<?xml version="1.0" encoding="utf-8"?>
<!-- Generator: Adobe Illustrator 25.0.0, SVG Export Plug-In . SVG Version: 6.00 Build 0)  -->
<svg version="1.1" id="Capa_1" xmlns="http://www.w3.org/2000/svg" xmlns:xlink="http://www.w3.org/1999/xlink" x="0px" y="0px"
	 viewBox="0 0 512 512" style="enable-background:new 0 0 512 512;" xml:space="preserve">
<style type="text/css">
	.st0{fill:#009618;}
</style>
<path class="st0" d="M464,256c0-114.9-93.1-208-208-208S48,141.1,48,256s93.1,208,208,208S464,370.9,464,256z M0,256
	C0,114.6,114.6,0,256,0s256,114.6,256,256S397.4,512,256,512S0,397.4,0,256z M306.7,325.1l-144.3,55.5c-19.4,7.5-38.5-11.6-31-31
	l55.5-144.3c3.3-8.5,9.9-15.1,18.4-18.4l144.3-55.5c19.4-7.5,38.5,11.6,31,31l-55.5,144.3C321.9,315.2,315.2,321.8,306.7,325.1z
	 M288,256c0-17.7-14.3-32-32-32s-32,14.3-32,32s14.3,32,32,32S288,273.7,288,256z"/>
</svg>
