<?xml version="1.0" encoding="utf-8"?>
<!-- Generator: Adobe Illustrator 25.0.0, SVG Export Plug-In . SVG Version: 6.00 Build 0)  -->
<svg version="1.1" id="Capa_1" xmlns="http://www.w3.org/2000/svg" xmlns:xlink="http://www.w3.org/1999/xlink" x="0px" y="0px"
	 viewBox="0 0 656.9 440" style="enable-background:new 0 0 656.9 440;" xml:space="preserve">
<style type="text/css">
	.st0{fill:#FFFFFF;}
	.st1{opacity:0.2;fill:#C0C0C0;enable-background:new    ;}
	.st2{fill:none;stroke:#000000;stroke-miterlimit:10;}
	.st3{enable-background:new    ;}
	.st4{fill:none;stroke:#000000;stroke-miterlimit:10;stroke-dasharray:3;}
</style>
<g>
	<rect class="st0" width="656.9" height="440"/>
	<g transform="translate(-78,-30) scale(1,1)">
		<rect x="127" y="191" class="st1" width="73.3" height="44"/>
	</g>
	<g transform="translate(-78,-30) scale(1,1)">
		<rect x="120" y="184" class="st0" width="73.3" height="44"/>
	</g>
	<g transform="translate(-78,-30) scale(1,1)">
		<path class="st2" d="M120,184h73.3v44H120V184z"/>
	</g>
	<g transform="translate(-78,-30) scale(1,1)">
		<path class="st2" d="M120,209h73.3"/>
	</g>
	<g transform="translate(-78,-30) scale(1,1)">
		<path class="st2" d="M120,219h73.3"/>
	</g>
	<g transform="translate(-78,-30) scale(1,1)">
		<g>
			<path class="st2" d="M0,0"/>
			<g class="st3">
				<path d="M133.8,202h-2l-0.8-2.1h-3.7l-0.8,2.1h-2l3.6-9.3h2L133.8,202z M130.4,198.3l-1.3-3.5l-1.3,3.5H130.4z"/>
				<path d="M140.7,197.3l-1.8,0.3c-0.1-0.4-0.2-0.6-0.4-0.8c-0.2-0.2-0.5-0.3-0.8-0.3c-0.4,0-0.8,0.2-1.1,0.5
					c-0.3,0.3-0.4,0.8-0.4,1.5c0,0.8,0.1,1.4,0.4,1.7c0.3,0.3,0.6,0.5,1.1,0.5c0.3,0,0.6-0.1,0.8-0.3s0.4-0.5,0.5-1l1.8,0.3
					c-0.2,0.8-0.5,1.4-1,1.8c-0.5,0.4-1.2,0.6-2.1,0.6c-1,0-1.8-0.3-2.4-0.9c-0.6-0.6-0.9-1.5-0.9-2.6c0-1.1,0.3-2,0.9-2.6
					s1.4-0.9,2.4-0.9c0.8,0,1.5,0.2,2,0.5C140.1,196,140.5,196.5,140.7,197.3z"/>
				<path d="M145.1,195.3v1.4h-1.2v2.7c0,0.5,0,0.9,0,1c0,0.1,0.1,0.2,0.2,0.2c0.1,0.1,0.2,0.1,0.3,0.1c0.2,0,0.4-0.1,0.7-0.2
					l0.2,1.4c-0.4,0.2-0.9,0.3-1.4,0.3c-0.3,0-0.6-0.1-0.9-0.2c-0.3-0.1-0.4-0.2-0.6-0.4c-0.1-0.2-0.2-0.4-0.3-0.7
					c0-0.2-0.1-0.6-0.1-1.3v-2.9h-0.8v-1.4h0.8v-1.3l1.8-1v2.4H145.1z"/>
				<path d="M145.9,199l1.8-0.2c0.1,0.6,0.3,1.1,0.7,1.4c0.3,0.3,0.8,0.4,1.4,0.4c0.6,0,1.1-0.1,1.4-0.4c0.3-0.3,0.5-0.6,0.5-0.9
					c0-0.2-0.1-0.4-0.2-0.6c-0.1-0.2-0.4-0.3-0.7-0.4c-0.2-0.1-0.7-0.2-1.5-0.4c-1-0.2-1.7-0.6-2.1-0.9c-0.6-0.5-0.9-1.1-0.9-1.9
					c0-0.5,0.1-0.9,0.4-1.3c0.3-0.4,0.7-0.7,1.2-0.9c0.5-0.2,1.1-0.3,1.8-0.3c1.2,0,2,0.3,2.6,0.8c0.6,0.5,0.9,1.2,0.9,2l-1.9,0.1
					c-0.1-0.5-0.3-0.8-0.5-1c-0.3-0.2-0.7-0.3-1.2-0.3c-0.5,0-1,0.1-1.3,0.3c-0.2,0.1-0.3,0.3-0.3,0.6c0,0.2,0.1,0.4,0.3,0.6
					c0.2,0.2,0.8,0.4,1.7,0.6c0.9,0.2,1.6,0.4,2,0.7c0.4,0.2,0.8,0.5,1,0.9c0.2,0.4,0.4,0.9,0.4,1.5c0,0.5-0.1,1-0.4,1.5
					c-0.3,0.5-0.7,0.8-1.3,1s-1.2,0.3-2,0.3c-1.2,0-2.1-0.3-2.7-0.8S146,200,145.9,199z"/>
				<path d="M159,199.9l1.8,0.3c-0.2,0.7-0.6,1.1-1.1,1.5c-0.5,0.3-1.1,0.5-1.9,0.5c-1.2,0-2-0.4-2.6-1.1c-0.4-0.6-0.7-1.4-0.7-2.3
					c0-1.1,0.3-2,0.9-2.6s1.3-0.9,2.2-0.9c1,0,1.8,0.3,2.4,1s0.9,1.7,0.8,3h-4.5c0,0.5,0.2,0.9,0.4,1.2s0.6,0.4,1,0.4
					c0.3,0,0.5-0.1,0.7-0.2S158.9,200.2,159,199.9z M159.1,198.1c0-0.5-0.1-0.9-0.4-1.2s-0.6-0.4-0.9-0.4c-0.4,0-0.7,0.1-1,0.4
					s-0.4,0.7-0.4,1.2H159.1z"/>
				<path d="M164,202h-1.8v-6.7h1.7v1c0.3-0.5,0.5-0.8,0.8-0.9c0.2-0.1,0.5-0.2,0.8-0.2c0.4,0,0.8,0.1,1.2,0.3L166,197
					c-0.3-0.2-0.6-0.3-0.8-0.3c-0.2,0-0.5,0.1-0.6,0.2s-0.3,0.4-0.4,0.7c-0.1,0.4-0.1,1.1-0.1,2.3V202z"/>
				<path d="M169.2,202l-2.7-6.7h1.9l1.3,3.4l0.4,1.1c0.1-0.3,0.2-0.5,0.2-0.6c0.1-0.2,0.1-0.4,0.2-0.6l1.3-3.4h1.8l-2.7,6.7H169.2z
					"/>
				<path d="M174.6,202v-9.3h1.8v9.3H174.6z"/>
				<path d="M182.1,199.9l1.8,0.3c-0.2,0.7-0.6,1.1-1.1,1.5c-0.5,0.3-1.1,0.5-1.9,0.5c-1.2,0-2-0.4-2.6-1.1
					c-0.4-0.6-0.7-1.4-0.7-2.3c0-1.1,0.3-2,0.9-2.6s1.3-0.9,2.2-0.9c1,0,1.8,0.3,2.4,1s0.9,1.7,0.8,3h-4.5c0,0.5,0.2,0.9,0.4,1.2
					s0.6,0.4,1,0.4c0.3,0,0.5-0.1,0.7-0.2S182,200.2,182.1,199.9z M182.2,198.1c0-0.5-0.1-0.9-0.4-1.2s-0.6-0.4-0.9-0.4
					c-0.4,0-0.7,0.1-1,0.4s-0.4,0.7-0.4,1.2H182.2z"/>
				<path d="M188.5,195.3v1.4h-1.2v2.7c0,0.5,0,0.9,0,1c0,0.1,0.1,0.2,0.2,0.2c0.1,0.1,0.2,0.1,0.3,0.1c0.2,0,0.4-0.1,0.7-0.2
					l0.2,1.4c-0.4,0.2-0.9,0.3-1.4,0.3c-0.3,0-0.6-0.1-0.9-0.2c-0.3-0.1-0.4-0.2-0.6-0.4c-0.1-0.2-0.2-0.4-0.3-0.7
					c0-0.2-0.1-0.6-0.1-1.3v-2.9h-0.8v-1.4h0.8v-1.3l1.8-1v2.4H188.5z"/>
			</g>
		</g>
	</g>
	<g transform="translate(-78,-30) scale(1,1)">
		<rect x="495" y="215" class="st1" width="75.5" height="44"/>
	</g>
	<g transform="translate(-78,-30) scale(1,1)">
		<rect x="488" y="208" class="st0" width="75.5" height="44"/>
	</g>
	<g transform="translate(-78,-30) scale(1,1)">
		<path class="st2" d="M488,208h75.5v44H488V208z"/>
	</g>
	<g transform="translate(-78,-30) scale(1,1)">
		<path class="st2" d="M488,233h75.5"/>
	</g>
	<g transform="translate(-78,-30) scale(1,1)">
		<path class="st2" d="M488,243h75.5"/>
	</g>
	<g transform="translate(-78,-30) scale(1,1)">
		<g>
			<path class="st2" d="M0,0"/>
			<g class="st3">
				<path d="M493.5,226v-9.2h1.9v7.7h4.7v1.6H493.5z"/>
				<path d="M501.4,218.3v-1.7h1.8v1.7H501.4z M501.4,226v-6.7h1.8v6.7H501.4z"/>
				<path d="M504.4,224.1l1.8-0.3c0.1,0.3,0.2,0.6,0.5,0.8c0.2,0.2,0.6,0.3,1,0.3c0.5,0,0.8-0.1,1-0.3c0.2-0.1,0.2-0.3,0.2-0.5
					c0-0.1,0-0.2-0.1-0.3c-0.1-0.1-0.3-0.2-0.6-0.2c-1.4-0.3-2.4-0.6-2.7-0.9c-0.5-0.4-0.8-0.9-0.8-1.5c0-0.6,0.2-1.1,0.7-1.5
					s1.2-0.6,2.1-0.6c0.9,0,1.6,0.2,2.1,0.5c0.4,0.3,0.8,0.7,0.9,1.3l-1.7,0.3c-0.1-0.3-0.2-0.5-0.4-0.6c-0.2-0.1-0.5-0.2-0.9-0.2
					c-0.5,0-0.8,0.1-1,0.2c-0.1,0.1-0.2,0.2-0.2,0.4c0,0.1,0.1,0.2,0.2,0.3c0.2,0.1,0.7,0.3,1.7,0.5c1,0.2,1.6,0.5,2,0.8
					c0.4,0.3,0.6,0.8,0.6,1.3c0,0.6-0.3,1.1-0.8,1.6c-0.5,0.4-1.3,0.7-2.3,0.7c-0.9,0-1.6-0.2-2.2-0.6S504.5,224.7,504.4,224.1z"/>
				<path d="M515.3,219.3v1.4h-1.2v2.7c0,0.5,0,0.9,0,1s0.1,0.2,0.2,0.2c0.1,0.1,0.2,0.1,0.3,0.1c0.2,0,0.4-0.1,0.7-0.2l0.2,1.4
					c-0.4,0.2-0.9,0.3-1.4,0.3c-0.3,0-0.6-0.1-0.9-0.2c-0.3-0.1-0.4-0.2-0.6-0.4c-0.1-0.2-0.2-0.4-0.2-0.7c0-0.2-0.1-0.6-0.1-1.3
					v-2.9h-0.8v-1.4h0.8v-1.3l1.8-1v2.4H515.3z"/>
				<path d="M516.1,223l1.8-0.2c0.1,0.6,0.3,1.1,0.7,1.4c0.3,0.3,0.8,0.4,1.4,0.4c0.6,0,1.1-0.1,1.4-0.4s0.5-0.6,0.5-0.9
					c0-0.2-0.1-0.4-0.2-0.6c-0.1-0.2-0.4-0.3-0.7-0.4c-0.2-0.1-0.7-0.2-1.5-0.4c-1-0.2-1.7-0.6-2.1-0.9c-0.6-0.5-0.9-1.1-0.9-1.9
					c0-0.5,0.1-0.9,0.4-1.3c0.3-0.4,0.7-0.7,1.2-0.9s1.1-0.3,1.8-0.3c1.2,0,2,0.3,2.6,0.8s0.9,1.2,0.9,2l-1.9,0.1
					c-0.1-0.5-0.3-0.8-0.5-1c-0.3-0.2-0.7-0.3-1.2-0.3c-0.5,0-1,0.1-1.3,0.3c-0.2,0.1-0.3,0.3-0.3,0.6c0,0.2,0.1,0.4,0.3,0.6
					c0.2,0.2,0.8,0.4,1.7,0.6c0.9,0.2,1.6,0.4,2,0.7s0.8,0.5,1,0.9c0.2,0.4,0.4,0.9,0.4,1.5c0,0.5-0.1,1-0.4,1.5
					c-0.3,0.5-0.7,0.8-1.3,1c-0.5,0.2-1.2,0.3-2,0.3c-1.2,0-2.1-0.3-2.7-0.8C516.6,224.8,516.2,224,516.1,223z"/>
				<path d="M529.1,223.9l1.8,0.3c-0.2,0.7-0.6,1.1-1.1,1.5c-0.5,0.3-1.1,0.5-1.8,0.5c-1.2,0-2-0.4-2.6-1.1
					c-0.4-0.6-0.7-1.4-0.7-2.3c0-1.1,0.3-2,0.9-2.6s1.3-0.9,2.2-0.9c1,0,1.8,0.3,2.4,1c0.6,0.7,0.9,1.7,0.8,3h-4.5
					c0,0.5,0.2,0.9,0.4,1.2s0.6,0.4,1,0.4c0.3,0,0.5-0.1,0.7-0.2C528.9,224.4,529,224.2,529.1,223.9z M529.2,222.1
					c0-0.5-0.1-0.9-0.4-1.2s-0.6-0.4-0.9-0.4c-0.4,0-0.7,0.1-1,0.4s-0.4,0.7-0.4,1.2H529.2z"/>
				<path d="M534.2,226h-1.8v-6.7h1.7v1c0.3-0.5,0.5-0.8,0.8-0.9s0.5-0.2,0.8-0.2c0.4,0,0.8,0.1,1.2,0.3l-0.6,1.6
					c-0.3-0.2-0.6-0.3-0.8-0.3c-0.2,0-0.5,0.1-0.6,0.2s-0.3,0.4-0.4,0.7s-0.1,1.1-0.1,2.3V226z"/>
				<path d="M539.4,226l-2.7-6.7h1.9l1.3,3.4l0.4,1.1c0.1-0.3,0.2-0.5,0.2-0.6c0.1-0.2,0.1-0.4,0.2-0.6l1.3-3.4h1.8L541,226H539.4z"
					/>
				<path d="M544.7,226v-9.3h1.8v9.3H544.7z"/>
				<path d="M552.2,223.9l1.8,0.3c-0.2,0.7-0.6,1.1-1.1,1.5c-0.5,0.3-1.1,0.5-1.8,0.5c-1.2,0-2-0.4-2.6-1.1
					c-0.4-0.6-0.7-1.4-0.7-2.3c0-1.1,0.3-2,0.9-2.6s1.3-0.9,2.2-0.9c1,0,1.8,0.3,2.4,1c0.6,0.7,0.9,1.7,0.8,3h-4.5
					c0,0.5,0.2,0.9,0.4,1.2s0.6,0.4,1,0.4c0.3,0,0.5-0.1,0.7-0.2C552,224.4,552.2,224.2,552.2,223.9z M552.4,222.1
					c0-0.5-0.1-0.9-0.4-1.2s-0.6-0.4-0.9-0.4c-0.4,0-0.7,0.1-1,0.4s-0.4,0.7-0.4,1.2H552.4z"/>
				<path d="M558.7,219.3v1.4h-1.2v2.7c0,0.5,0,0.9,0,1s0.1,0.2,0.2,0.2c0.1,0.1,0.2,0.1,0.3,0.1c0.2,0,0.4-0.1,0.7-0.2l0.2,1.4
					c-0.4,0.2-0.9,0.3-1.4,0.3c-0.3,0-0.6-0.1-0.9-0.2c-0.3-0.1-0.4-0.2-0.6-0.4c-0.1-0.2-0.2-0.4-0.2-0.7c0-0.2-0.1-0.6-0.1-1.3
					v-2.9h-0.8v-1.4h0.8v-1.3l1.8-1v2.4H558.7z"/>
			</g>
		</g>
	</g>
	<g transform="translate(-78,-30) scale(1,1)">
		<rect x="255" y="215" class="st1" width="78.4" height="44"/>
	</g>
	<g transform="translate(-78,-30) scale(1,1)">
		<rect x="248" y="208" class="st0" width="78.4" height="44"/>
	</g>
	<g transform="translate(-78,-30) scale(1,1)">
		<path class="st2" d="M248,208h78.4v44H248V208z"/>
	</g>
	<g transform="translate(-78,-30) scale(1,1)">
		<path class="st2" d="M248,233h78.4"/>
	</g>
	<g transform="translate(-78,-30) scale(1,1)">
		<path class="st2" d="M248,243h78.4"/>
	</g>
	<g transform="translate(-78,-30) scale(1,1)">
		<g>
			<path class="st2" d="M0,0"/>
			<g class="st3">
				<path d="M253.4,226v-9.3h2.8l1.7,6.3l1.7-6.3h2.8v9.3h-1.7v-7.3l-1.8,7.3H257l-1.8-7.3v7.3H253.4z"/>
				<path d="M265.6,221.3L264,221c0.2-0.7,0.5-1.1,0.9-1.4s1.1-0.5,2-0.5c0.8,0,1.4,0.1,1.8,0.3s0.7,0.4,0.8,0.7
					c0.2,0.3,0.2,0.8,0.2,1.6l0,2.1c0,0.6,0,1,0.1,1.3c0.1,0.3,0.2,0.6,0.3,0.9h-1.8c0-0.1-0.1-0.3-0.2-0.5c0-0.1-0.1-0.2-0.1-0.2
					c-0.3,0.3-0.6,0.5-1,0.7c-0.3,0.1-0.7,0.2-1.1,0.2c-0.7,0-1.2-0.2-1.6-0.6c-0.4-0.4-0.6-0.9-0.6-1.4c0-0.4,0.1-0.7,0.3-1
					c0.2-0.3,0.4-0.5,0.8-0.7c0.3-0.2,0.8-0.3,1.4-0.4c0.8-0.2,1.4-0.3,1.7-0.4v-0.2c0-0.3-0.1-0.6-0.3-0.7c-0.2-0.1-0.5-0.2-1-0.2
					c-0.3,0-0.6,0.1-0.7,0.2S265.7,221,265.6,221.3z M268,222.8c-0.2,0.1-0.6,0.2-1.1,0.3c-0.5,0.1-0.8,0.2-1,0.3
					c-0.2,0.2-0.3,0.4-0.3,0.6c0,0.2,0.1,0.5,0.3,0.6c0.2,0.2,0.4,0.3,0.7,0.3c0.3,0,0.6-0.1,0.9-0.3c0.2-0.2,0.4-0.4,0.4-0.6
					c0-0.2,0.1-0.4,0.1-0.9V222.8z"/>
				<path d="M271.4,219.3h1.7v1c0.2-0.3,0.5-0.6,0.9-0.8s0.8-0.3,1.2-0.3c0.8,0,1.4,0.3,2,0.9c0.5,0.6,0.8,1.5,0.8,2.6
					c0,1.1-0.3,2-0.8,2.6s-1.2,0.9-2,0.9c-0.4,0-0.7-0.1-1-0.2c-0.3-0.1-0.6-0.4-1-0.8v3.4h-1.8V219.3z M273.2,222.5
					c0,0.8,0.2,1.3,0.5,1.7c0.3,0.4,0.7,0.5,1.1,0.5c0.4,0,0.8-0.2,1-0.5s0.4-0.9,0.4-1.6c0-0.7-0.1-1.2-0.4-1.6
					c-0.3-0.3-0.6-0.5-1.1-0.5c-0.4,0-0.8,0.2-1.1,0.5C273.4,221.4,273.2,221.9,273.2,222.5z"/>
				<path d="M279,223l1.8-0.2c0.1,0.6,0.3,1.1,0.7,1.4c0.3,0.3,0.8,0.4,1.4,0.4c0.6,0,1.1-0.1,1.4-0.4c0.3-0.3,0.5-0.6,0.5-0.9
					c0-0.2-0.1-0.4-0.2-0.6c-0.1-0.2-0.4-0.3-0.7-0.4c-0.2-0.1-0.7-0.2-1.5-0.4c-1-0.2-1.7-0.6-2.1-0.9c-0.6-0.5-0.9-1.1-0.9-1.9
					c0-0.5,0.1-0.9,0.4-1.3c0.3-0.4,0.7-0.7,1.2-0.9c0.5-0.2,1.1-0.3,1.8-0.3c1.2,0,2,0.3,2.6,0.8c0.6,0.5,0.9,1.2,0.9,2l-1.9,0.1
					c-0.1-0.5-0.3-0.8-0.5-1c-0.3-0.2-0.7-0.3-1.2-0.3c-0.5,0-1,0.1-1.3,0.3c-0.2,0.1-0.3,0.3-0.3,0.6c0,0.2,0.1,0.4,0.3,0.6
					c0.2,0.2,0.8,0.4,1.7,0.6c0.9,0.2,1.6,0.4,2,0.7c0.4,0.2,0.8,0.5,1,0.9c0.2,0.4,0.4,0.9,0.4,1.5c0,0.5-0.1,1-0.4,1.5
					c-0.3,0.5-0.7,0.8-1.3,1s-1.2,0.3-2,0.3c-1.2,0-2.1-0.3-2.7-0.8S279.1,224,279,223z"/>
				<path d="M292,223.9l1.8,0.3c-0.2,0.7-0.6,1.1-1.1,1.5c-0.5,0.3-1.1,0.5-1.9,0.5c-1.2,0-2-0.4-2.6-1.1c-0.4-0.6-0.7-1.4-0.7-2.3
					c0-1.1,0.3-2,0.9-2.6s1.3-0.9,2.2-0.9c1,0,1.8,0.3,2.4,1s0.9,1.7,0.8,3h-4.5c0,0.5,0.2,0.9,0.4,1.2s0.6,0.4,1,0.4
					c0.3,0,0.5-0.1,0.7-0.2S291.9,224.2,292,223.9z M292.1,222.1c0-0.5-0.1-0.9-0.4-1.2s-0.6-0.4-0.9-0.4c-0.4,0-0.7,0.1-1,0.4
					s-0.4,0.7-0.4,1.2H292.1z"/>
				<path d="M297,226h-1.8v-6.7h1.7v1c0.3-0.5,0.5-0.8,0.8-0.9c0.2-0.1,0.5-0.2,0.8-0.2c0.4,0,0.8,0.1,1.2,0.3l-0.6,1.6
					c-0.3-0.2-0.6-0.3-0.8-0.3c-0.2,0-0.5,0.1-0.6,0.2s-0.3,0.4-0.4,0.7c-0.1,0.4-0.1,1.1-0.1,2.3V226z"/>
				<path d="M302.2,226l-2.7-6.7h1.9l1.3,3.4l0.4,1.1c0.1-0.3,0.2-0.5,0.2-0.6c0.1-0.2,0.1-0.4,0.2-0.6l1.3-3.4h1.8l-2.7,6.7H302.2z
					"/>
				<path d="M307.6,226v-9.3h1.8v9.3H307.6z"/>
				<path d="M315.1,223.9l1.8,0.3c-0.2,0.7-0.6,1.1-1.1,1.5c-0.5,0.3-1.1,0.5-1.9,0.5c-1.2,0-2-0.4-2.6-1.1
					c-0.4-0.6-0.7-1.4-0.7-2.3c0-1.1,0.3-2,0.9-2.6s1.3-0.9,2.2-0.9c1,0,1.8,0.3,2.4,1s0.9,1.7,0.8,3h-4.5c0,0.5,0.2,0.9,0.4,1.2
					s0.6,0.4,1,0.4c0.3,0,0.5-0.1,0.7-0.2S315,224.2,315.1,223.9z M315.2,222.1c0-0.5-0.1-0.9-0.4-1.2s-0.6-0.4-0.9-0.4
					c-0.4,0-0.7,0.1-1,0.4s-0.4,0.7-0.4,1.2H315.2z"/>
				<path d="M321.6,219.3v1.4h-1.2v2.7c0,0.5,0,0.9,0,1c0,0.1,0.1,0.2,0.2,0.2c0.1,0.1,0.2,0.1,0.3,0.1c0.2,0,0.4-0.1,0.7-0.2
					l0.2,1.4c-0.4,0.2-0.9,0.3-1.4,0.3c-0.3,0-0.6-0.1-0.9-0.2c-0.3-0.1-0.4-0.2-0.6-0.4c-0.1-0.2-0.2-0.4-0.3-0.7
					c0-0.2-0.1-0.6-0.1-1.3v-2.9h-0.8v-1.4h0.8v-1.3l1.8-1v2.4H321.6z"/>
			</g>
		</g>
	</g>
	<g transform="translate(-78,-30) scale(1,1)">
		<rect x="615" y="215" class="st1" width="52.4" height="44"/>
	</g>
	<g transform="translate(-78,-30) scale(1,1)">
		<rect x="608" y="208" class="st0" width="52.4" height="44"/>
	</g>
	<g transform="translate(-78,-30) scale(1,1)">
		<path class="st2" d="M608,208h52.4v44H608V208z"/>
	</g>
	<g transform="translate(-78,-30) scale(1,1)">
		<path class="st2" d="M608,233h52.4"/>
	</g>
	<g transform="translate(-78,-30) scale(1,1)">
		<path class="st2" d="M608,243h52.4"/>
	</g>
	<g transform="translate(-78,-30) scale(1,1)">
		<g>
			<path class="st2" d="M0,0"/>
			<g class="st3">
				<path d="M613,223l1.8-0.2c0.1,0.6,0.3,1.1,0.7,1.4c0.3,0.3,0.8,0.4,1.4,0.4c0.6,0,1.1-0.1,1.4-0.4s0.5-0.6,0.5-0.9
					c0-0.2-0.1-0.4-0.2-0.6c-0.1-0.2-0.4-0.3-0.7-0.4c-0.2-0.1-0.7-0.2-1.5-0.4c-1-0.2-1.7-0.6-2.1-0.9c-0.6-0.5-0.9-1.1-0.9-1.9
					c0-0.5,0.1-0.9,0.4-1.3c0.3-0.4,0.7-0.7,1.2-0.9s1.1-0.3,1.8-0.3c1.2,0,2,0.3,2.6,0.8c0.6,0.5,0.9,1.2,0.9,2l-1.9,0.1
					c-0.1-0.5-0.3-0.8-0.5-1c-0.3-0.2-0.7-0.3-1.2-0.3c-0.5,0-1,0.1-1.3,0.3c-0.2,0.1-0.3,0.3-0.3,0.6c0,0.2,0.1,0.4,0.3,0.6
					c0.2,0.2,0.8,0.4,1.7,0.6c0.9,0.2,1.6,0.4,2,0.7c0.4,0.2,0.8,0.5,1,0.9c0.2,0.4,0.4,0.9,0.4,1.5c0,0.5-0.1,1-0.4,1.5
					c-0.3,0.5-0.7,0.8-1.3,1s-1.2,0.3-2,0.3c-1.2,0-2.1-0.3-2.7-0.8S613.1,224,613,223z"/>
				<path d="M626,223.9l1.8,0.3c-0.2,0.7-0.6,1.1-1.1,1.5c-0.5,0.3-1.1,0.5-1.9,0.5c-1.2,0-2-0.4-2.6-1.1c-0.4-0.6-0.7-1.4-0.7-2.3
					c0-1.1,0.3-2,0.9-2.6s1.3-0.9,2.2-0.9c1,0,1.8,0.3,2.4,1s0.9,1.7,0.8,3h-4.5c0,0.5,0.2,0.9,0.4,1.2c0.3,0.3,0.6,0.4,1,0.4
					c0.3,0,0.5-0.1,0.7-0.2S625.9,224.2,626,223.9z M626.1,222.1c0-0.5-0.1-0.9-0.4-1.2s-0.6-0.4-0.9-0.4c-0.4,0-0.7,0.1-1,0.4
					s-0.4,0.7-0.4,1.2H626.1z"/>
				<path d="M631,226h-1.8v-6.7h1.7v1c0.3-0.5,0.5-0.8,0.8-0.9s0.5-0.2,0.8-0.2c0.4,0,0.8,0.1,1.2,0.3l-0.6,1.6
					c-0.3-0.2-0.6-0.3-0.8-0.3c-0.2,0-0.5,0.1-0.6,0.2c-0.2,0.1-0.3,0.4-0.4,0.7c-0.1,0.4-0.2,1.1-0.2,2.3V226z"/>
				<path d="M636.2,226l-2.7-6.7h1.9l1.3,3.4l0.4,1.1c0.1-0.3,0.2-0.5,0.2-0.6c0.1-0.2,0.1-0.4,0.2-0.6l1.3-3.4h1.8l-2.7,6.7H636.2z
					"/>
				<path d="M641.6,226v-9.3h1.8v9.3H641.6z"/>
				<path d="M649.1,223.9l1.8,0.3c-0.2,0.7-0.6,1.1-1.1,1.5c-0.5,0.3-1.1,0.5-1.9,0.5c-1.2,0-2-0.4-2.6-1.1
					c-0.4-0.6-0.7-1.4-0.7-2.3c0-1.1,0.3-2,0.9-2.6s1.3-0.9,2.2-0.9c1,0,1.8,0.3,2.4,1s0.9,1.7,0.8,3h-4.5c0,0.5,0.2,0.9,0.4,1.2
					c0.3,0.3,0.6,0.4,1,0.4c0.3,0,0.5-0.1,0.7-0.2S649,224.2,649.1,223.9z M649.2,222.1c0-0.5-0.1-0.9-0.4-1.2s-0.6-0.4-0.9-0.4
					c-0.4,0-0.7,0.1-1,0.4s-0.4,0.7-0.4,1.2H649.2z"/>
				<path d="M655.6,219.3v1.4h-1.2v2.7c0,0.5,0,0.9,0,1c0,0.1,0.1,0.2,0.2,0.2c0.1,0.1,0.2,0.1,0.3,0.1c0.2,0,0.4-0.1,0.7-0.2
					l0.2,1.4c-0.4,0.2-0.9,0.3-1.4,0.3c-0.3,0-0.6-0.1-0.9-0.2c-0.3-0.1-0.4-0.2-0.6-0.4c-0.1-0.2-0.2-0.4-0.3-0.7
					c0-0.2-0.1-0.6-0.1-1.3v-2.9h-0.8v-1.4h0.8v-1.3l1.8-1v2.4H655.6z"/>
			</g>
		</g>
	</g>
	<g transform="translate(-78,-30) scale(1,1)">
		<rect x="127" y="271" class="st1" width="72" height="44"/>
	</g>
	<g transform="translate(-78,-30) scale(1,1)">
		<rect x="120" y="264" class="st0" width="72" height="44"/>
	</g>
	<g transform="translate(-78,-30) scale(1,1)">
		<path class="st2" d="M120,264h72v44h-72V264z"/>
	</g>
	<g transform="translate(-78,-30) scale(1,1)">
		<path class="st2" d="M120,289h72"/>
	</g>
	<g transform="translate(-78,-30) scale(1,1)">
		<path class="st2" d="M120,299h72"/>
	</g>
	<g transform="translate(-78,-30) scale(1,1)">
		<g>
			<path class="st2" d="M0,0"/>
			<g class="st3">
				<path d="M137.7,277.3l-1.6-0.3c0.2-0.7,0.5-1.1,0.9-1.4s1.1-0.5,2-0.5c0.8,0,1.4,0.1,1.8,0.3s0.7,0.4,0.8,0.7
					c0.2,0.3,0.2,0.8,0.2,1.6l0,2.1c0,0.6,0,1,0.1,1.3c0.1,0.3,0.2,0.6,0.3,0.9h-1.8c0-0.1-0.1-0.3-0.2-0.5c0-0.1-0.1-0.2-0.1-0.2
					c-0.3,0.3-0.6,0.5-1,0.7c-0.3,0.1-0.7,0.2-1.1,0.2c-0.7,0-1.2-0.2-1.6-0.6c-0.4-0.4-0.6-0.9-0.6-1.4c0-0.4,0.1-0.7,0.3-1
					c0.2-0.3,0.4-0.5,0.8-0.7c0.3-0.2,0.8-0.3,1.4-0.4c0.8-0.2,1.4-0.3,1.7-0.4v-0.2c0-0.3-0.1-0.6-0.3-0.7c-0.2-0.1-0.5-0.2-1-0.2
					c-0.3,0-0.6,0.1-0.7,0.2S137.8,277,137.7,277.3z M140.1,278.8c-0.2,0.1-0.6,0.2-1.1,0.3c-0.5,0.1-0.8,0.2-1,0.3
					c-0.2,0.2-0.3,0.4-0.3,0.6c0,0.2,0.1,0.5,0.3,0.6c0.2,0.2,0.4,0.3,0.7,0.3c0.3,0,0.6-0.1,0.9-0.3c0.2-0.2,0.4-0.4,0.4-0.6
					c0-0.2,0.1-0.4,0.1-0.9V278.8z"/>
				<path d="M149.4,277.3l-1.8,0.3c-0.1-0.4-0.2-0.6-0.4-0.8c-0.2-0.2-0.5-0.3-0.8-0.3c-0.4,0-0.8,0.2-1.1,0.5
					c-0.3,0.3-0.4,0.8-0.4,1.5c0,0.8,0.1,1.4,0.4,1.7c0.3,0.3,0.6,0.5,1.1,0.5c0.3,0,0.6-0.1,0.8-0.3s0.4-0.5,0.5-1l1.8,0.3
					c-0.2,0.8-0.5,1.4-1,1.8c-0.5,0.4-1.2,0.6-2.1,0.6c-1,0-1.8-0.3-2.4-0.9c-0.6-0.6-0.9-1.5-0.9-2.6c0-1.1,0.3-2,0.9-2.6
					s1.4-0.9,2.4-0.9c0.8,0,1.5,0.2,2,0.5C148.9,276,149.2,276.5,149.4,277.3z"/>
				<path d="M153.9,275.3v1.4h-1.2v2.7c0,0.5,0,0.9,0,1c0,0.1,0.1,0.2,0.2,0.2c0.1,0.1,0.2,0.1,0.3,0.1c0.2,0,0.4-0.1,0.7-0.2
					l0.2,1.4c-0.4,0.2-0.9,0.3-1.4,0.3c-0.3,0-0.6-0.1-0.9-0.2c-0.3-0.1-0.4-0.2-0.6-0.4c-0.1-0.2-0.2-0.4-0.3-0.7
					c0-0.2-0.1-0.6-0.1-1.3v-2.9h-0.8v-1.4h0.8v-1.3l1.8-1v2.4H153.9z"/>
				<path d="M155.1,282v-1.8h1.8v1.8H155.1z"/>
				<path d="M160.5,275.3v6.5c0,0.9-0.1,1.5-0.2,1.8c-0.1,0.4-0.3,0.6-0.6,0.8c-0.3,0.2-0.7,0.3-1.2,0.3c-0.2,0-0.4,0-0.6,0
					c-0.2,0-0.4-0.1-0.7-0.1l0.3-1.5c0.1,0,0.2,0,0.2,0c0.1,0,0.1,0,0.2,0c0.2,0,0.3,0,0.4-0.1c0.1-0.1,0.2-0.2,0.2-0.3
					c0-0.1,0.1-0.4,0.1-1v-6.4H160.5z M158.7,274.3v-1.7h1.8v1.7H158.7z"/>
				<path d="M161.7,280.1l1.8-0.3c0.1,0.3,0.2,0.6,0.5,0.8s0.6,0.3,1,0.3c0.5,0,0.8-0.1,1-0.3c0.2-0.1,0.2-0.3,0.2-0.5
					c0-0.1,0-0.2-0.1-0.3c-0.1-0.1-0.3-0.2-0.6-0.2c-1.4-0.3-2.4-0.6-2.7-0.9c-0.5-0.4-0.8-0.9-0.8-1.5c0-0.6,0.2-1.1,0.7-1.5
					s1.2-0.6,2.1-0.6c0.9,0,1.6,0.2,2.1,0.5c0.4,0.3,0.8,0.7,0.9,1.3l-1.7,0.3c-0.1-0.3-0.2-0.5-0.4-0.6c-0.2-0.1-0.5-0.2-0.9-0.2
					c-0.5,0-0.8,0.1-1,0.2c-0.1,0.1-0.2,0.2-0.2,0.4c0,0.1,0.1,0.2,0.2,0.3c0.2,0.1,0.7,0.3,1.7,0.5c1,0.2,1.6,0.5,2,0.8
					c0.4,0.3,0.6,0.8,0.6,1.3c0,0.6-0.3,1.1-0.8,1.6c-0.5,0.4-1.3,0.7-2.3,0.7c-0.9,0-1.6-0.2-2.2-0.6
					C162.2,281.2,161.9,280.7,161.7,280.1z"/>
				<path d="M169.5,275.3h1.7v1c0.2-0.3,0.5-0.6,0.9-0.8s0.8-0.3,1.2-0.3c0.8,0,1.4,0.3,2,0.9c0.5,0.6,0.8,1.5,0.8,2.6
					c0,1.1-0.3,2-0.8,2.6s-1.2,0.9-2,0.9c-0.4,0-0.7-0.1-1-0.2c-0.3-0.1-0.6-0.4-1-0.8v3.4h-1.8V275.3z M171.3,278.5
					c0,0.8,0.2,1.3,0.5,1.7c0.3,0.4,0.7,0.5,1.1,0.5c0.4,0,0.8-0.2,1-0.5s0.4-0.9,0.4-1.6c0-0.7-0.1-1.2-0.4-1.6
					c-0.3-0.3-0.6-0.5-1.1-0.5c-0.4,0-0.8,0.2-1.1,0.5C171.4,277.4,171.3,277.9,171.3,278.5z"/>
			</g>
		</g>
	</g>
	<g transform="translate(-78,-30) scale(1,1)">
		<rect x="255" y="287" class="st1" width="80.5" height="44"/>
	</g>
	<g transform="translate(-78,-30) scale(1,1)">
		<rect x="248" y="280" class="st0" width="80.5" height="44"/>
	</g>
	<g transform="translate(-78,-30) scale(1,1)">
		<path class="st2" d="M248,280h80.5v44H248V280z"/>
	</g>
	<g transform="translate(-78,-30) scale(1,1)">
		<path class="st2" d="M248,305h80.5"/>
	</g>
	<g transform="translate(-78,-30) scale(1,1)">
		<path class="st2" d="M248,315h80.5"/>
	</g>
	<g transform="translate(-78,-30) scale(1,1)">
		<g>
			<path class="st2" d="M0,0"/>
			<g class="st3">
				<path d="M257.3,295.9l1.8,0.3c-0.2,0.7-0.6,1.1-1.1,1.5c-0.5,0.3-1.1,0.5-1.9,0.5c-1.2,0-2-0.4-2.6-1.1
					c-0.4-0.6-0.7-1.4-0.7-2.3c0-1.1,0.3-2,0.9-2.6s1.3-0.9,2.2-0.9c1,0,1.8,0.3,2.4,1s0.9,1.7,0.8,3h-4.5c0,0.5,0.2,0.9,0.4,1.2
					s0.6,0.4,1,0.4c0.3,0,0.5-0.1,0.7-0.2S257.2,296.2,257.3,295.9z M257.4,294.1c0-0.5-0.1-0.9-0.4-1.2s-0.6-0.4-0.9-0.4
					c-0.4,0-0.7,0.1-1,0.4s-0.4,0.7-0.4,1.2H257.4z"/>
				<path d="M266.5,293.3l-1.8,0.3c-0.1-0.4-0.2-0.6-0.4-0.8c-0.2-0.2-0.5-0.3-0.8-0.3c-0.4,0-0.8,0.2-1.1,0.5
					c-0.3,0.3-0.4,0.8-0.4,1.5c0,0.8,0.1,1.4,0.4,1.7c0.3,0.3,0.6,0.5,1.1,0.5c0.3,0,0.6-0.1,0.8-0.3s0.4-0.5,0.5-1l1.8,0.3
					c-0.2,0.8-0.5,1.4-1,1.8c-0.5,0.4-1.2,0.6-2.1,0.6c-1,0-1.8-0.3-2.4-0.9c-0.6-0.6-0.9-1.5-0.9-2.6c0-1.1,0.3-2,0.9-2.6
					s1.4-0.9,2.4-0.9c0.8,0,1.5,0.2,2,0.5C266,292,266.3,292.5,266.5,293.3z"/>
				<path d="M267.5,294.5c0-0.6,0.1-1.2,0.4-1.7c0.3-0.6,0.7-1,1.2-1.3c0.5-0.3,1.1-0.4,1.8-0.4c1,0,1.9,0.3,2.5,1s1,1.5,1,2.5
					c0,1-0.3,1.9-1,2.5c-0.7,0.7-1.5,1-2.5,1c-0.6,0-1.2-0.1-1.8-0.4c-0.6-0.3-1-0.7-1.3-1.2C267.6,296,267.5,295.3,267.5,294.5z
					 M269.3,294.6c0,0.7,0.2,1.2,0.5,1.5s0.7,0.5,1.2,0.5s0.9-0.2,1.2-0.5c0.3-0.4,0.5-0.9,0.5-1.5c0-0.7-0.2-1.2-0.5-1.5
					c-0.3-0.4-0.7-0.5-1.2-0.5s-0.9,0.2-1.2,0.5S269.3,294,269.3,294.6z"/>
				<path d="M275.7,291.3h1.6v0.9c0.6-0.7,1.3-1.1,2.1-1.1c0.4,0,0.8,0.1,1.1,0.3s0.6,0.4,0.8,0.8c0.3-0.4,0.6-0.6,1-0.8
					s0.7-0.3,1.1-0.3c0.5,0,0.9,0.1,1.3,0.3s0.6,0.5,0.8,0.9c0.1,0.3,0.2,0.8,0.2,1.4v4.3h-1.8v-3.9c0-0.7-0.1-1.1-0.2-1.3
					c-0.2-0.3-0.4-0.4-0.8-0.4c-0.2,0-0.5,0.1-0.7,0.2s-0.4,0.4-0.5,0.7s-0.1,0.8-0.1,1.4v3.2h-1.8v-3.7c0-0.7,0-1.1-0.1-1.3
					s-0.2-0.3-0.3-0.4c-0.1-0.1-0.3-0.1-0.5-0.1c-0.3,0-0.5,0.1-0.7,0.2s-0.4,0.4-0.5,0.6c-0.1,0.3-0.1,0.7-0.1,1.4v3.3h-1.8V291.3z
					"/>
				<path d="M288.7,293.3l-1.6-0.3c0.2-0.7,0.5-1.1,0.9-1.4s1.1-0.5,2-0.5c0.8,0,1.4,0.1,1.8,0.3s0.7,0.4,0.8,0.7
					c0.2,0.3,0.2,0.8,0.2,1.6l0,2.1c0,0.6,0,1,0.1,1.3c0.1,0.3,0.2,0.6,0.3,0.9h-1.8c0-0.1-0.1-0.3-0.2-0.5c0-0.1-0.1-0.2-0.1-0.2
					c-0.3,0.3-0.6,0.5-1,0.7c-0.3,0.1-0.7,0.2-1.1,0.2c-0.7,0-1.2-0.2-1.6-0.6c-0.4-0.4-0.6-0.9-0.6-1.4c0-0.4,0.1-0.7,0.3-1
					c0.2-0.3,0.4-0.5,0.8-0.7c0.3-0.2,0.8-0.3,1.4-0.4c0.8-0.2,1.4-0.3,1.7-0.4v-0.2c0-0.3-0.1-0.6-0.3-0.7c-0.2-0.1-0.5-0.2-1-0.2
					c-0.3,0-0.6,0.1-0.7,0.2S288.8,293,288.7,293.3z M291.1,294.8c-0.2,0.1-0.6,0.2-1.1,0.3c-0.5,0.1-0.8,0.2-1,0.3
					c-0.2,0.2-0.3,0.4-0.3,0.6c0,0.2,0.1,0.5,0.3,0.6c0.2,0.2,0.4,0.3,0.7,0.3c0.3,0,0.6-0.1,0.9-0.3c0.2-0.2,0.4-0.4,0.4-0.6
					c0-0.2,0.1-0.4,0.1-0.9V294.8z"/>
				<path d="M294.6,291.3h1.7v1c0.2-0.3,0.5-0.6,0.9-0.8s0.8-0.3,1.2-0.3c0.8,0,1.4,0.3,2,0.9c0.5,0.6,0.8,1.5,0.8,2.6
					c0,1.1-0.3,2-0.8,2.6s-1.2,0.9-2,0.9c-0.4,0-0.7-0.1-1-0.2c-0.3-0.1-0.6-0.4-1-0.8v3.4h-1.8V291.3z M296.3,294.5
					c0,0.8,0.2,1.3,0.5,1.7c0.3,0.4,0.7,0.5,1.1,0.5c0.4,0,0.8-0.2,1-0.5s0.4-0.9,0.4-1.6c0-0.7-0.1-1.2-0.4-1.6
					c-0.3-0.3-0.6-0.5-1.1-0.5c-0.4,0-0.8,0.2-1.1,0.5C296.5,293.4,296.3,293.9,296.3,294.5z"/>
				<path d="M302.6,298v-1.8h1.8v1.8H302.6z"/>
				<path d="M307.9,291.3v6.5c0,0.9-0.1,1.5-0.2,1.8c-0.1,0.4-0.3,0.6-0.6,0.8c-0.3,0.2-0.7,0.3-1.2,0.3c-0.2,0-0.4,0-0.6,0
					c-0.2,0-0.4-0.1-0.7-0.1l0.3-1.5c0.1,0,0.2,0,0.2,0c0.1,0,0.1,0,0.2,0c0.2,0,0.3,0,0.4-0.1c0.1-0.1,0.2-0.2,0.2-0.3
					c0-0.1,0.1-0.4,0.1-1v-6.4H307.9z M306.1,290.3v-1.7h1.8v1.7H306.1z"/>
				<path d="M309.2,296.1l1.8-0.3c0.1,0.3,0.2,0.6,0.5,0.8s0.6,0.3,1,0.3c0.5,0,0.8-0.1,1-0.3c0.2-0.1,0.2-0.3,0.2-0.5
					c0-0.1,0-0.2-0.1-0.3c-0.1-0.1-0.3-0.2-0.6-0.2c-1.4-0.3-2.4-0.6-2.7-0.9c-0.5-0.4-0.8-0.9-0.8-1.5c0-0.6,0.2-1.1,0.7-1.5
					s1.2-0.6,2.1-0.6c0.9,0,1.6,0.2,2.1,0.5c0.4,0.3,0.8,0.7,0.9,1.3l-1.7,0.3c-0.1-0.3-0.2-0.5-0.4-0.6c-0.2-0.1-0.5-0.2-0.9-0.2
					c-0.5,0-0.8,0.1-1,0.2c-0.1,0.1-0.2,0.2-0.2,0.4c0,0.1,0.1,0.2,0.2,0.3c0.2,0.1,0.7,0.3,1.7,0.5c1,0.2,1.6,0.5,2,0.8
					c0.4,0.3,0.6,0.8,0.6,1.3c0,0.6-0.3,1.1-0.8,1.6c-0.5,0.4-1.3,0.7-2.3,0.7c-0.9,0-1.6-0.2-2.2-0.6
					C309.7,297.2,309.3,296.7,309.2,296.1z"/>
				<path d="M317,291.3h1.7v1c0.2-0.3,0.5-0.6,0.9-0.8s0.8-0.3,1.2-0.3c0.8,0,1.4,0.3,2,0.9c0.5,0.6,0.8,1.5,0.8,2.6
					c0,1.1-0.3,2-0.8,2.6s-1.2,0.9-2,0.9c-0.4,0-0.7-0.1-1-0.2c-0.3-0.1-0.6-0.4-1-0.8v3.4H317V291.3z M318.7,294.5
					c0,0.8,0.2,1.3,0.5,1.7c0.3,0.4,0.7,0.5,1.1,0.5c0.4,0,0.8-0.2,1-0.5s0.4-0.9,0.4-1.6c0-0.7-0.1-1.2-0.4-1.6
					c-0.3-0.3-0.6-0.5-1.1-0.5c-0.4,0-0.8,0.2-1.1,0.5C318.9,293.4,318.7,293.9,318.7,294.5z"/>
			</g>
		</g>
	</g>
	<g transform="translate(-78,-30) scale(1,1)">
		<rect x="583" y="287" class="st1" width="54.5" height="44"/>
	</g>
	<g transform="translate(-78,-30) scale(1,1)">
		<rect x="576" y="280" class="st0" width="54.5" height="44"/>
	</g>
	<g transform="translate(-78,-30) scale(1,1)">
		<path class="st2" d="M576,280h54.5v44H576V280z"/>
	</g>
	<g transform="translate(-78,-30) scale(1,1)">
		<path class="st2" d="M576,305h54.5"/>
	</g>
	<g transform="translate(-78,-30) scale(1,1)">
		<path class="st2" d="M576,315h54.5"/>
	</g>
	<g transform="translate(-78,-30) scale(1,1)">
		<g>
			<path class="st2" d="M0,0"/>
			<g class="st3">
				<path d="M585.3,295.9l1.8,0.3c-0.2,0.7-0.6,1.1-1.1,1.5s-1.1,0.5-1.9,0.5c-1.2,0-2-0.4-2.6-1.1c-0.4-0.6-0.7-1.4-0.7-2.3
					c0-1.1,0.3-2,0.9-2.6s1.3-0.9,2.2-0.9c1,0,1.8,0.3,2.4,1s0.9,1.7,0.8,3h-4.5c0,0.5,0.2,0.9,0.4,1.2c0.3,0.3,0.6,0.4,1,0.4
					c0.3,0,0.5-0.1,0.7-0.2S585.2,296.2,585.3,295.9z M585.4,294.1c0-0.5-0.1-0.9-0.4-1.2s-0.6-0.4-0.9-0.4c-0.4,0-0.7,0.1-1,0.4
					s-0.4,0.7-0.4,1.2H585.4z"/>
				<path d="M594.8,298h-1.7v-1c-0.3,0.4-0.6,0.7-1,0.9s-0.8,0.3-1.1,0.3c-0.8,0-1.4-0.3-2-0.9s-0.8-1.5-0.8-2.6
					c0-1.1,0.3-2,0.8-2.6s1.2-0.9,2-0.9c0.8,0,1.4,0.3,2,0.9v-3.4h1.8V298z M590.1,294.5c0,0.7,0.1,1.2,0.3,1.6
					c0.3,0.5,0.7,0.7,1.2,0.7c0.4,0,0.8-0.2,1-0.5c0.3-0.3,0.4-0.9,0.4-1.6c0-0.8-0.1-1.3-0.4-1.7s-0.6-0.5-1.1-0.5
					c-0.4,0-0.8,0.2-1.1,0.5C590.2,293.3,590.1,293.8,590.1,294.5z"/>
				<path d="M596.6,290.3v-1.7h1.8v1.7H596.6z M596.6,298v-6.7h1.8v6.7H596.6z"/>
				<path d="M603.3,291.3v1.4h-1.2v2.7c0,0.5,0,0.9,0,1s0.1,0.2,0.2,0.2c0.1,0.1,0.2,0.1,0.3,0.1c0.2,0,0.4-0.1,0.7-0.2l0.2,1.4
					c-0.4,0.2-0.9,0.3-1.4,0.3c-0.3,0-0.6-0.1-0.9-0.2c-0.3-0.1-0.4-0.2-0.6-0.4c-0.1-0.2-0.2-0.4-0.2-0.7c0-0.2-0.1-0.6-0.1-1.3
					v-2.9h-0.8v-1.4h0.8v-1.3l1.8-1v2.4H603.3z"/>
				<path d="M604.5,298v-1.8h1.8v1.8H604.5z"/>
				<path d="M609.9,291.3v6.5c0,0.9-0.1,1.5-0.2,1.8c-0.1,0.4-0.3,0.6-0.6,0.8s-0.7,0.3-1.2,0.3c-0.2,0-0.4,0-0.6,0
					c-0.2,0-0.4-0.1-0.7-0.1l0.3-1.5c0.1,0,0.2,0,0.2,0s0.1,0,0.2,0c0.2,0,0.3,0,0.4-0.1c0.1-0.1,0.2-0.2,0.2-0.3
					c0-0.1,0.1-0.4,0.1-1v-6.4H609.9z M608.1,290.3v-1.7h1.8v1.7H608.1z"/>
				<path d="M611.1,296.1l1.8-0.3c0.1,0.3,0.2,0.6,0.5,0.8s0.6,0.3,1,0.3c0.5,0,0.8-0.1,1-0.3c0.2-0.1,0.2-0.3,0.2-0.5
					c0-0.1,0-0.2-0.1-0.3c-0.1-0.1-0.3-0.2-0.6-0.2c-1.4-0.3-2.4-0.6-2.7-0.9c-0.5-0.4-0.8-0.9-0.8-1.5c0-0.6,0.2-1.1,0.7-1.5
					c0.5-0.4,1.2-0.6,2.1-0.6c0.9,0,1.6,0.2,2.1,0.5c0.4,0.3,0.8,0.7,0.9,1.3l-1.7,0.3c-0.1-0.3-0.2-0.5-0.4-0.6
					c-0.2-0.1-0.5-0.2-0.9-0.2c-0.5,0-0.8,0.1-1,0.2c-0.1,0.1-0.2,0.2-0.2,0.4c0,0.1,0.1,0.2,0.2,0.3c0.2,0.1,0.7,0.3,1.7,0.5
					c0.9,0.2,1.6,0.5,2,0.8c0.4,0.3,0.6,0.8,0.6,1.3c0,0.6-0.3,1.1-0.8,1.6c-0.5,0.4-1.3,0.7-2.3,0.7c-0.9,0-1.6-0.2-2.2-0.6
					C611.7,297.2,611.3,296.7,611.1,296.1z"/>
				<path d="M618.9,291.3h1.7v1c0.2-0.3,0.5-0.6,0.9-0.8c0.4-0.2,0.8-0.3,1.2-0.3c0.8,0,1.4,0.3,2,0.9c0.5,0.6,0.8,1.5,0.8,2.6
					c0,1.1-0.3,2-0.8,2.6c-0.6,0.6-1.2,0.9-2,0.9c-0.4,0-0.7-0.1-1-0.2c-0.3-0.1-0.6-0.4-1-0.8v3.4h-1.8V291.3z M620.7,294.5
					c0,0.8,0.2,1.3,0.5,1.7c0.3,0.4,0.7,0.5,1.1,0.5c0.4,0,0.8-0.2,1-0.5s0.4-0.9,0.4-1.6c0-0.7-0.1-1.2-0.4-1.6
					c-0.3-0.3-0.6-0.5-1.1-0.5c-0.4,0-0.8,0.2-1.1,0.5C620.9,293.4,620.7,293.9,620.7,294.5z"/>
			</g>
		</g>
	</g>
	<g transform="translate(-78,-30) scale(1,1)">
		<rect x="663" y="287" class="st1" width="68.9" height="44"/>
	</g>
	<g transform="translate(-78,-30) scale(1,1)">
		<rect x="656" y="280" class="st0" width="68.9" height="44"/>
	</g>
	<g transform="translate(-78,-30) scale(1,1)">
		<path class="st2" d="M656,280h68.9v44H656V280z"/>
	</g>
	<g transform="translate(-78,-30) scale(1,1)">
		<path class="st2" d="M656,305h68.9"/>
	</g>
	<g transform="translate(-78,-30) scale(1,1)">
		<path class="st2" d="M656,315h68.9"/>
	</g>
	<g transform="translate(-78,-30) scale(1,1)">
		<g>
			<path class="st2" d="M0,0"/>
			<g class="st3">
				<path d="M660.7,291.3h1v-0.5c0-0.6,0.1-1,0.2-1.3c0.1-0.3,0.3-0.5,0.7-0.7c0.3-0.2,0.7-0.3,1.2-0.3c0.5,0,1,0.1,1.5,0.2L665,290
					c-0.3-0.1-0.6-0.1-0.8-0.1c-0.3,0-0.4,0.1-0.6,0.2c-0.1,0.1-0.2,0.4-0.2,0.7v0.5h1.3v1.4h-1.3v5.3h-1.8v-5.3h-1V291.3z"/>
				<path d="M665.3,294.5c0-0.6,0.1-1.2,0.4-1.7c0.3-0.6,0.7-1,1.2-1.3c0.5-0.3,1.1-0.4,1.8-0.4c1,0,1.9,0.3,2.5,1s1,1.5,1,2.5
					c0,1-0.3,1.9-1,2.5c-0.7,0.7-1.5,1-2.5,1c-0.6,0-1.2-0.1-1.8-0.4s-1-0.7-1.3-1.2C665.5,296,665.3,295.3,665.3,294.5z
					 M667.2,294.6c0,0.7,0.2,1.2,0.5,1.5c0.3,0.4,0.7,0.5,1.2,0.5s0.9-0.2,1.2-0.5s0.5-0.9,0.5-1.5c0-0.7-0.2-1.2-0.5-1.5
					s-0.7-0.5-1.2-0.5s-0.9,0.2-1.2,0.5C667.3,293.4,667.2,294,667.2,294.6z"/>
				<path d="M675.4,298h-1.8v-6.7h1.7v1c0.3-0.5,0.5-0.8,0.8-0.9s0.5-0.2,0.8-0.2c0.4,0,0.8,0.1,1.2,0.3l-0.6,1.6
					c-0.3-0.2-0.6-0.3-0.8-0.3c-0.2,0-0.5,0.1-0.6,0.2c-0.2,0.1-0.3,0.4-0.4,0.7c-0.1,0.4-0.2,1.1-0.2,2.3V298z"/>
				<path d="M678.6,291.3h1.6v0.9c0.6-0.7,1.3-1.1,2.1-1.1c0.4,0,0.8,0.1,1.1,0.3c0.3,0.2,0.6,0.4,0.8,0.8c0.3-0.4,0.6-0.6,1-0.8
					c0.3-0.2,0.7-0.3,1.1-0.3c0.5,0,0.9,0.1,1.3,0.3s0.6,0.5,0.8,0.9c0.1,0.3,0.2,0.8,0.2,1.4v4.3h-1.8v-3.9c0-0.7-0.1-1.1-0.2-1.3
					c-0.2-0.3-0.4-0.4-0.8-0.4c-0.2,0-0.5,0.1-0.7,0.2c-0.2,0.2-0.4,0.4-0.5,0.7s-0.1,0.8-0.1,1.4v3.2h-1.8v-3.7
					c0-0.7,0-1.1-0.1-1.3c-0.1-0.2-0.2-0.3-0.3-0.4c-0.1-0.1-0.3-0.1-0.5-0.1c-0.3,0-0.5,0.1-0.7,0.2s-0.4,0.4-0.5,0.6
					c-0.1,0.3-0.1,0.7-0.1,1.4v3.3h-1.8V291.3z"/>
				<path d="M690.3,298v-1.8h1.8v1.8H690.3z"/>
				<path d="M695.7,288.7v3.4c0.6-0.7,1.3-1,2.1-1c0.4,0,0.8,0.1,1.1,0.2s0.6,0.3,0.7,0.6s0.3,0.5,0.3,0.8c0.1,0.3,0.1,0.7,0.1,1.3
					v4h-1.8v-3.6c0-0.7,0-1.2-0.1-1.3c-0.1-0.2-0.2-0.3-0.4-0.5c-0.2-0.1-0.4-0.2-0.6-0.2c-0.3,0-0.6,0.1-0.8,0.2
					c-0.2,0.1-0.4,0.4-0.5,0.7c-0.1,0.3-0.2,0.7-0.2,1.3v3.4h-1.8v-9.3H695.7z"/>
				<path d="M705,291.3v1.4h-1.2v2.7c0,0.5,0,0.9,0,1s0.1,0.2,0.2,0.2c0.1,0.1,0.2,0.1,0.3,0.1c0.2,0,0.4-0.1,0.7-0.2l0.2,1.4
					c-0.4,0.2-0.9,0.3-1.4,0.3c-0.3,0-0.6-0.1-0.9-0.2c-0.3-0.1-0.4-0.2-0.6-0.4c-0.1-0.2-0.2-0.4-0.2-0.7c0-0.2-0.1-0.6-0.1-1.3
					v-2.9h-0.8v-1.4h0.8v-1.3l1.8-1v2.4H705z"/>
				<path d="M706.1,291.3h1.6v0.9c0.6-0.7,1.3-1.1,2.1-1.1c0.4,0,0.8,0.1,1.1,0.3s0.6,0.4,0.8,0.8c0.3-0.4,0.6-0.6,1-0.8
					s0.7-0.3,1.1-0.3c0.5,0,0.9,0.1,1.3,0.3c0.3,0.2,0.6,0.5,0.8,0.9c0.1,0.3,0.2,0.8,0.2,1.4v4.3h-1.8v-3.9c0-0.7-0.1-1.1-0.2-1.3
					c-0.2-0.3-0.4-0.4-0.8-0.4c-0.2,0-0.5,0.1-0.7,0.2s-0.4,0.4-0.5,0.7c-0.1,0.3-0.1,0.8-0.1,1.4v3.2h-1.8v-3.7
					c0-0.7,0-1.1-0.1-1.3s-0.2-0.3-0.3-0.4c-0.1-0.1-0.3-0.1-0.5-0.1c-0.3,0-0.5,0.1-0.7,0.2c-0.2,0.1-0.4,0.4-0.5,0.6
					s-0.1,0.7-0.1,1.4v3.3h-1.8V291.3z"/>
				<path d="M717.8,298v-9.3h1.8v9.3H717.8z"/>
			</g>
		</g>
	</g>
	<g transform="translate(-78,-30) scale(1,1)">
		<rect x="407" y="47" class="st1" width="74" height="44"/>
	</g>
	<g transform="translate(-78,-30) scale(1,1)">
		<rect x="400" y="40" class="st0" width="74" height="44"/>
	</g>
	<g transform="translate(-78,-30) scale(1,1)">
		<path class="st2" d="M400,40h74v44h-74V40z"/>
	</g>
	<g transform="translate(-78,-30) scale(1,1)">
		<path class="st2" d="M400,65h74"/>
	</g>
	<g transform="translate(-78,-30) scale(1,1)">
		<path class="st2" d="M400,75h74"/>
	</g>
	<g transform="translate(-78,-30) scale(1,1)">
		<g>
			<path class="st2" d="M0,0"/>
			<g class="st3">
				<path d="M405.4,50.3v-1.7h1.8v1.7H405.4z M405.4,58v-6.7h1.8V58H405.4z"/>
				<path d="M415.2,58h-1.8v-3.4c0-0.7,0-1.2-0.1-1.4s-0.2-0.4-0.4-0.5c-0.2-0.1-0.4-0.2-0.6-0.2c-0.3,0-0.6,0.1-0.8,0.3
					c-0.2,0.2-0.4,0.4-0.5,0.7c-0.1,0.3-0.1,0.8-0.1,1.5V58H409v-6.7h1.7v1c0.6-0.8,1.3-1.1,2.2-1.1c0.4,0,0.8,0.1,1.1,0.2
					c0.3,0.1,0.6,0.3,0.7,0.5c0.2,0.2,0.3,0.5,0.3,0.8c0.1,0.3,0.1,0.7,0.1,1.2V58z"/>
				<path d="M423.2,58h-1.7v-1c-0.3,0.4-0.6,0.7-1,0.9c-0.4,0.2-0.8,0.3-1.1,0.3c-0.8,0-1.4-0.3-2-0.9c-0.6-0.6-0.8-1.5-0.8-2.6
					c0-1.1,0.3-2,0.8-2.6c0.5-0.6,1.2-0.9,2-0.9c0.8,0,1.4,0.3,2,0.9v-3.4h1.8V58z M418.4,54.5c0,0.7,0.1,1.2,0.3,1.6
					c0.3,0.5,0.7,0.7,1.2,0.7c0.4,0,0.8-0.2,1-0.5c0.3-0.3,0.4-0.9,0.4-1.6c0-0.8-0.1-1.3-0.4-1.7s-0.6-0.5-1.1-0.5
					c-0.4,0-0.8,0.2-1.1,0.5C418.6,53.3,418.4,53.8,418.4,54.5z"/>
				<path d="M428.8,55.9l1.8,0.3c-0.2,0.7-0.6,1.1-1.1,1.5c-0.5,0.3-1.1,0.5-1.8,0.5c-1.2,0-2-0.4-2.6-1.1c-0.4-0.6-0.7-1.4-0.7-2.3
					c0-1.1,0.3-2,0.9-2.6s1.3-0.9,2.2-0.9c1,0,1.8,0.3,2.4,1c0.6,0.7,0.9,1.7,0.8,3h-4.5c0,0.5,0.2,0.9,0.4,1.2s0.6,0.4,1,0.4
					c0.3,0,0.5-0.1,0.7-0.2C428.6,56.4,428.7,56.2,428.8,55.9z M428.9,54.1c0-0.5-0.1-0.9-0.4-1.2s-0.6-0.4-0.9-0.4
					c-0.4,0-0.7,0.1-1,0.4s-0.4,0.7-0.4,1.2H428.9z"/>
				<path d="M431.3,58l2.4-3.5l-2.3-3.3h2.2l1.2,1.9l1.3-1.9h2.1l-2.3,3.2l2.5,3.5h-2.2l-1.4-2.1l-1.4,2.1H431.3z"/>
				<path d="M439.4,58v-1.8h1.8V58H439.4z"/>
				<path d="M444.8,48.7v3.4c0.6-0.7,1.3-1,2.1-1c0.4,0,0.8,0.1,1.1,0.2s0.6,0.3,0.7,0.6c0.2,0.2,0.3,0.5,0.3,0.8s0.1,0.7,0.1,1.3v4
					h-1.8v-3.6c0-0.7,0-1.2-0.1-1.3c-0.1-0.2-0.2-0.3-0.4-0.5c-0.2-0.1-0.4-0.2-0.6-0.2c-0.3,0-0.6,0.1-0.8,0.2
					c-0.2,0.1-0.4,0.4-0.5,0.7c-0.1,0.3-0.2,0.7-0.2,1.3V58H443v-9.3H444.8z"/>
				<path d="M454,51.3v1.4h-1.2v2.7c0,0.5,0,0.9,0,1c0,0.1,0.1,0.2,0.2,0.2c0.1,0.1,0.2,0.1,0.3,0.1c0.2,0,0.4-0.1,0.7-0.2l0.2,1.4
					c-0.4,0.2-0.9,0.3-1.4,0.3c-0.3,0-0.6-0.1-0.9-0.2c-0.3-0.1-0.4-0.2-0.6-0.4c-0.1-0.2-0.2-0.4-0.3-0.7c0-0.2-0.1-0.6-0.1-1.3
					v-2.9h-0.8v-1.4h0.8v-1.3l1.8-1v2.4H454z"/>
				<path d="M455.1,51.3h1.6v0.9c0.6-0.7,1.3-1.1,2.1-1.1c0.4,0,0.8,0.1,1.1,0.3s0.6,0.4,0.8,0.8c0.3-0.4,0.6-0.6,1-0.8
					s0.7-0.3,1.1-0.3c0.5,0,0.9,0.1,1.3,0.3c0.3,0.2,0.6,0.5,0.8,0.9c0.1,0.3,0.2,0.8,0.2,1.4V58h-1.8v-3.9c0-0.7-0.1-1.1-0.2-1.3
					c-0.2-0.3-0.4-0.4-0.8-0.4c-0.2,0-0.5,0.1-0.7,0.2s-0.4,0.4-0.5,0.7c-0.1,0.3-0.1,0.8-0.1,1.4V58h-1.8v-3.7c0-0.7,0-1.1-0.1-1.3
					s-0.2-0.3-0.3-0.4c-0.1-0.1-0.3-0.1-0.5-0.1c-0.3,0-0.5,0.1-0.7,0.2c-0.2,0.1-0.4,0.4-0.5,0.6c-0.1,0.3-0.1,0.7-0.1,1.4V58h-1.8
					V51.3z"/>
				<path d="M466.8,58v-9.3h1.8V58H466.8z"/>
			</g>
		</g>
	</g>
	<g transform="translate(-78,-30) scale(1,1)">
		<rect x="175" y="359" class="st1" width="63.9" height="44"/>
	</g>
	<g transform="translate(-78,-30) scale(1,1)">
		<rect x="168" y="352" class="st0" width="63.9" height="44"/>
	</g>
	<g transform="translate(-78,-30) scale(1,1)">
		<path class="st2" d="M168,352h63.9v44H168V352z"/>
	</g>
	<g transform="translate(-78,-30) scale(1,1)">
		<path class="st2" d="M168,377h63.9"/>
	</g>
	<g transform="translate(-78,-30) scale(1,1)">
		<path class="st2" d="M168,387h63.9"/>
	</g>
	<g transform="translate(-78,-30) scale(1,1)">
		<g>
			<path class="st2" d="M0,0"/>
			<g class="st3">
				<path d="M173.4,362.3v-1.7h1.8v1.7H173.4z M173.4,370v-6.7h1.8v6.7H173.4z"/>
				<path d="M183.2,370h-1.8v-3.4c0-0.7,0-1.2-0.1-1.4s-0.2-0.4-0.4-0.5c-0.2-0.1-0.4-0.2-0.6-0.2c-0.3,0-0.6,0.1-0.8,0.3
					c-0.2,0.2-0.4,0.4-0.5,0.7c-0.1,0.3-0.1,0.8-0.1,1.5v3.1H177v-6.7h1.7v1c0.6-0.8,1.3-1.1,2.2-1.1c0.4,0,0.8,0.1,1.1,0.2
					s0.6,0.3,0.7,0.5c0.2,0.2,0.3,0.5,0.3,0.8c0.1,0.3,0.1,0.7,0.1,1.2V370z"/>
				<path d="M184.2,363.3h1v-0.5c0-0.6,0.1-1,0.2-1.3c0.1-0.3,0.3-0.5,0.7-0.7c0.3-0.2,0.7-0.3,1.2-0.3c0.5,0,1,0.1,1.5,0.2
					l-0.2,1.2c-0.3-0.1-0.6-0.1-0.8-0.1c-0.3,0-0.4,0.1-0.6,0.2c-0.1,0.1-0.2,0.4-0.2,0.7v0.5h1.3v1.4H187v5.3h-1.8v-5.3h-1V363.3z"
					/>
				<path d="M188.9,366.5c0-0.6,0.1-1.2,0.4-1.7c0.3-0.6,0.7-1,1.2-1.3c0.5-0.3,1.1-0.4,1.8-0.4c1,0,1.9,0.3,2.5,1s1,1.5,1,2.5
					c0,1-0.3,1.9-1,2.5c-0.7,0.7-1.5,1-2.5,1c-0.6,0-1.2-0.1-1.8-0.4c-0.6-0.3-1-0.7-1.3-1.2C189,368,188.9,367.3,188.9,366.5z
					 M190.7,366.6c0,0.7,0.2,1.2,0.5,1.5s0.7,0.5,1.2,0.5s0.9-0.2,1.2-0.5c0.3-0.4,0.5-0.9,0.5-1.5c0-0.7-0.2-1.2-0.5-1.5
					c-0.3-0.4-0.7-0.5-1.2-0.5s-0.9,0.2-1.2,0.5S190.7,366,190.7,366.6z"/>
				<path d="M197.3,370v-1.8h1.8v1.8H197.3z"/>
				<path d="M202.6,360.7v3.4c0.6-0.7,1.3-1,2.1-1c0.4,0,0.8,0.1,1.1,0.2s0.6,0.3,0.7,0.6c0.2,0.2,0.3,0.5,0.3,0.8
					c0.1,0.3,0.1,0.7,0.1,1.3v4h-1.8v-3.6c0-0.7,0-1.2-0.1-1.3c-0.1-0.2-0.2-0.3-0.4-0.5c-0.2-0.1-0.4-0.2-0.6-0.2
					c-0.3,0-0.6,0.1-0.8,0.2c-0.2,0.1-0.4,0.4-0.5,0.7c-0.1,0.3-0.2,0.7-0.2,1.3v3.4h-1.8v-9.3H202.6z"/>
				<path d="M211.9,363.3v1.4h-1.2v2.7c0,0.5,0,0.9,0,1c0,0.1,0.1,0.2,0.2,0.2c0.1,0.1,0.2,0.1,0.3,0.1c0.2,0,0.4-0.1,0.7-0.2
					l0.2,1.4c-0.4,0.2-0.9,0.3-1.4,0.3c-0.3,0-0.6-0.1-0.9-0.2c-0.3-0.1-0.4-0.2-0.6-0.4c-0.1-0.2-0.2-0.4-0.3-0.7
					c0-0.2-0.1-0.6-0.1-1.3v-2.9h-0.8v-1.4h0.8v-1.3l1.8-1v2.4H211.9z"/>
				<path d="M213,363.3h1.6v0.9c0.6-0.7,1.3-1.1,2.1-1.1c0.4,0,0.8,0.1,1.1,0.3s0.6,0.4,0.8,0.8c0.3-0.4,0.6-0.6,1-0.8
					s0.7-0.3,1.1-0.3c0.5,0,0.9,0.1,1.3,0.3s0.6,0.5,0.8,0.9c0.1,0.3,0.2,0.8,0.2,1.4v4.3h-1.8v-3.9c0-0.7-0.1-1.1-0.2-1.3
					c-0.2-0.3-0.4-0.4-0.8-0.4c-0.2,0-0.5,0.1-0.7,0.2s-0.4,0.4-0.5,0.7s-0.1,0.8-0.1,1.4v3.2h-1.8v-3.7c0-0.7,0-1.1-0.1-1.3
					s-0.2-0.3-0.3-0.4c-0.1-0.1-0.3-0.1-0.5-0.1c-0.3,0-0.5,0.1-0.7,0.2s-0.4,0.4-0.5,0.6c-0.1,0.3-0.1,0.7-0.1,1.4v3.3H213V363.3z"
					/>
				<path d="M224.7,370v-9.3h1.8v9.3H224.7z"/>
			</g>
		</g>
	</g>
	<g transform="translate(-78,-30) scale(1,1)">
		<rect x="511" y="287" class="st1" width="50.2" height="54"/>
	</g>
	<g transform="translate(-78,-30) scale(1,1)">
		<rect x="504" y="280" class="st0" width="50.2" height="54"/>
	</g>
	<g transform="translate(-78,-30) scale(1,1)">
		<path class="st2" d="M504,280h50.2v54H504V280z"/>
	</g>
	<g transform="translate(-78,-30) scale(1,1)">
		<path class="st2" d="M504,305h50.2"/>
	</g>
	<g transform="translate(-78,-30) scale(1,1)">
		<path class="st2" d="M504,315h50.2"/>
	</g>
	<g transform="translate(-78,-30) scale(1,1)">
		<path class="st2" d="M504,325h50.2"/>
	</g>
	<g transform="translate(-78,-30) scale(1,1)">
		<g>
			<path class="st2" d="M0,0"/>
			<g class="st3">
				<path d="M509.4,298v-9.3h1.8v9.3H509.4z"/>
				<path d="M513,290.3v-1.7h1.8v1.7H513z M513,298v-6.7h1.8v6.7H513z"/>
				<path d="M516,296.1l1.8-0.3c0.1,0.3,0.2,0.6,0.5,0.8c0.2,0.2,0.6,0.3,1,0.3c0.5,0,0.8-0.1,1-0.3c0.2-0.1,0.2-0.3,0.2-0.5
					c0-0.1,0-0.2-0.1-0.3c-0.1-0.1-0.3-0.2-0.6-0.2c-1.4-0.3-2.4-0.6-2.7-0.9c-0.5-0.4-0.8-0.9-0.8-1.5c0-0.6,0.2-1.1,0.7-1.5
					s1.2-0.6,2.1-0.6c0.9,0,1.6,0.2,2.1,0.5c0.4,0.3,0.8,0.7,0.9,1.3l-1.7,0.3c-0.1-0.3-0.2-0.5-0.4-0.6c-0.2-0.1-0.5-0.2-0.9-0.2
					c-0.5,0-0.8,0.1-1,0.2c-0.1,0.1-0.2,0.2-0.2,0.4c0,0.1,0.1,0.2,0.2,0.3c0.2,0.1,0.7,0.3,1.7,0.5s1.6,0.5,2,0.8
					c0.4,0.3,0.6,0.8,0.6,1.3c0,0.6-0.3,1.1-0.8,1.6c-0.5,0.4-1.3,0.7-2.3,0.7c-0.9,0-1.6-0.2-2.2-0.6
					C516.5,297.2,516.2,296.7,516,296.1z"/>
				<path d="M527,291.3v1.4h-1.2v2.7c0,0.5,0,0.9,0,1c0,0.1,0.1,0.2,0.2,0.2c0.1,0.1,0.2,0.1,0.3,0.1c0.2,0,0.4-0.1,0.7-0.2l0.2,1.4
					c-0.4,0.2-0.9,0.3-1.4,0.3c-0.3,0-0.6-0.1-0.9-0.2c-0.3-0.1-0.4-0.2-0.6-0.4c-0.1-0.2-0.2-0.4-0.3-0.7c0-0.2-0.1-0.6-0.1-1.3
					v-2.9h-0.8v-1.4h0.8v-1.3l1.8-1v2.4H527z"/>
				<path d="M528.2,298v-1.8h1.8v1.8H528.2z"/>
				<path d="M533.6,291.3v6.5c0,0.9-0.1,1.5-0.2,1.8s-0.3,0.6-0.6,0.8c-0.3,0.2-0.7,0.3-1.2,0.3c-0.2,0-0.4,0-0.6,0
					c-0.2,0-0.4-0.1-0.7-0.1l0.3-1.5c0.1,0,0.2,0,0.2,0c0.1,0,0.1,0,0.2,0c0.2,0,0.3,0,0.4-0.1s0.2-0.2,0.2-0.3c0-0.1,0.1-0.4,0.1-1
					v-6.4H533.6z M531.8,290.3v-1.7h1.8v1.7H531.8z"/>
				<path d="M534.8,296.1l1.8-0.3c0.1,0.3,0.2,0.6,0.5,0.8s0.6,0.3,1,0.3c0.5,0,0.8-0.1,1-0.3c0.2-0.1,0.2-0.3,0.2-0.5
					c0-0.1,0-0.2-0.1-0.3c-0.1-0.1-0.3-0.2-0.6-0.2c-1.4-0.3-2.3-0.6-2.7-0.9c-0.5-0.4-0.8-0.9-0.8-1.5c0-0.6,0.2-1.1,0.7-1.5
					c0.5-0.4,1.2-0.6,2.1-0.6c0.9,0,1.6,0.2,2.1,0.5c0.4,0.3,0.8,0.7,0.9,1.3l-1.7,0.3c-0.1-0.3-0.2-0.5-0.4-0.6
					c-0.2-0.1-0.5-0.2-0.9-0.2c-0.5,0-0.8,0.1-1,0.2c-0.1,0.1-0.2,0.2-0.2,0.4c0,0.1,0.1,0.2,0.2,0.3c0.2,0.1,0.7,0.3,1.7,0.5
					c1,0.2,1.6,0.5,2,0.8c0.4,0.3,0.6,0.8,0.6,1.3c0,0.6-0.3,1.1-0.8,1.6c-0.5,0.4-1.3,0.7-2.3,0.7c-0.9,0-1.6-0.2-2.2-0.6
					S535,296.7,534.8,296.1z"/>
				<path d="M542.6,291.3h1.7v1c0.2-0.3,0.5-0.6,0.9-0.8c0.4-0.2,0.8-0.3,1.2-0.3c0.8,0,1.4,0.3,2,0.9c0.5,0.6,0.8,1.5,0.8,2.6
					c0,1.1-0.3,2-0.8,2.6c-0.5,0.6-1.2,0.9-2,0.9c-0.4,0-0.7-0.1-1-0.2c-0.3-0.1-0.6-0.4-1-0.8v3.4h-1.8V291.3z M544.4,294.5
					c0,0.8,0.2,1.3,0.5,1.7c0.3,0.4,0.7,0.5,1.1,0.5c0.4,0,0.8-0.2,1-0.5s0.4-0.9,0.4-1.6c0-0.7-0.1-1.2-0.4-1.6
					c-0.3-0.3-0.6-0.5-1.1-0.5c-0.4,0-0.8,0.2-1.1,0.5C544.5,293.4,544.4,293.9,544.4,294.5z"/>
			</g>
		</g>
	</g>
	<g transform="translate(-78,-30) scale(1,1)">
		<rect x="391" y="287" class="st1" width="50.2" height="44"/>
	</g>
	<g transform="translate(-78,-30) scale(1,1)">
		<rect x="384" y="280" class="st0" width="50.2" height="44"/>
	</g>
	<g transform="translate(-78,-30) scale(1,1)">
		<path class="st2" d="M384,280h50.2v44H384V280z"/>
	</g>
	<g transform="translate(-78,-30) scale(1,1)">
		<path class="st2" d="M384,305h50.2"/>
	</g>
	<g transform="translate(-78,-30) scale(1,1)">
		<path class="st2" d="M384,315h50.2"/>
	</g>
	<g transform="translate(-78,-30) scale(1,1)">
		<g>
			<path class="st2" d="M0,0"/>
			<g class="st3">
				<path d="M389.3,291.3h1.6v0.9c0.6-0.7,1.3-1.1,2.1-1.1c0.4,0,0.8,0.1,1.1,0.3s0.6,0.4,0.8,0.8c0.3-0.4,0.6-0.6,1-0.8
					s0.7-0.3,1.1-0.3c0.5,0,0.9,0.1,1.3,0.3s0.6,0.5,0.8,0.9c0.1,0.3,0.2,0.8,0.2,1.4v4.3h-1.8v-3.9c0-0.7-0.1-1.1-0.2-1.3
					c-0.2-0.3-0.4-0.4-0.8-0.4c-0.2,0-0.5,0.1-0.7,0.2s-0.4,0.4-0.5,0.7s-0.1,0.8-0.1,1.4v3.2h-1.8v-3.7c0-0.7,0-1.1-0.1-1.3
					s-0.2-0.3-0.3-0.4c-0.1-0.1-0.3-0.1-0.5-0.1c-0.3,0-0.5,0.1-0.7,0.2s-0.4,0.4-0.5,0.6c-0.1,0.3-0.1,0.7-0.1,1.4v3.3h-1.8V291.3z
					"/>
				<path d="M402.3,293.3l-1.6-0.3c0.2-0.7,0.5-1.1,0.9-1.4s1.1-0.5,2-0.5c0.8,0,1.4,0.1,1.8,0.3s0.7,0.4,0.8,0.7
					c0.2,0.3,0.2,0.8,0.2,1.6l0,2.1c0,0.6,0,1,0.1,1.3c0.1,0.3,0.2,0.6,0.3,0.9h-1.8c0-0.1-0.1-0.3-0.2-0.5c0-0.1-0.1-0.2-0.1-0.2
					c-0.3,0.3-0.6,0.5-1,0.7c-0.3,0.1-0.7,0.2-1.1,0.2c-0.7,0-1.2-0.2-1.6-0.6c-0.4-0.4-0.6-0.9-0.6-1.4c0-0.4,0.1-0.7,0.3-1
					c0.2-0.3,0.4-0.5,0.8-0.7c0.3-0.2,0.8-0.3,1.4-0.4c0.8-0.2,1.4-0.3,1.7-0.4v-0.2c0-0.3-0.1-0.6-0.3-0.7c-0.2-0.1-0.5-0.2-1-0.2
					c-0.3,0-0.6,0.1-0.7,0.2S402.4,293,402.3,293.3z M404.7,294.8c-0.2,0.1-0.6,0.2-1.1,0.3c-0.5,0.1-0.8,0.2-1,0.3
					c-0.2,0.2-0.3,0.4-0.3,0.6c0,0.2,0.1,0.5,0.3,0.6c0.2,0.2,0.4,0.3,0.7,0.3c0.3,0,0.6-0.1,0.9-0.3c0.2-0.2,0.4-0.4,0.4-0.6
					c0-0.2,0.1-0.4,0.1-0.9V294.8z"/>
				<path d="M408.2,291.3h1.7v1c0.2-0.3,0.5-0.6,0.9-0.8c0.4-0.2,0.8-0.3,1.2-0.3c0.8,0,1.4,0.3,2,0.9c0.5,0.6,0.8,1.5,0.8,2.6
					c0,1.1-0.3,2-0.8,2.6c-0.5,0.6-1.2,0.9-2,0.9c-0.4,0-0.7-0.1-1-0.2c-0.3-0.1-0.6-0.4-1-0.8v3.4h-1.8V291.3z M409.9,294.5
					c0,0.8,0.2,1.3,0.5,1.7c0.3,0.4,0.7,0.5,1.1,0.5c0.4,0,0.8-0.2,1-0.5s0.4-0.9,0.4-1.6c0-0.7-0.1-1.2-0.4-1.6
					c-0.3-0.3-0.6-0.5-1.1-0.5c-0.4,0-0.8,0.2-1.1,0.5C410.1,293.4,409.9,293.9,409.9,294.5z"/>
				<path d="M416.2,298v-1.8h1.8v1.8H416.2z"/>
				<path d="M421.5,291.3v6.5c0,0.9-0.1,1.5-0.2,1.8s-0.3,0.6-0.6,0.8c-0.3,0.2-0.7,0.3-1.2,0.3c-0.2,0-0.4,0-0.6,0
					c-0.2,0-0.4-0.1-0.7-0.1l0.3-1.5c0.1,0,0.2,0,0.2,0c0.1,0,0.1,0,0.2,0c0.2,0,0.3,0,0.4-0.1s0.2-0.2,0.2-0.3c0-0.1,0.1-0.4,0.1-1
					v-6.4H421.5z M419.7,290.3v-1.7h1.8v1.7H419.7z"/>
				<path d="M422.8,296.1l1.8-0.3c0.1,0.3,0.2,0.6,0.5,0.8s0.6,0.3,1,0.3c0.5,0,0.8-0.1,1-0.3c0.2-0.1,0.2-0.3,0.2-0.5
					c0-0.1,0-0.2-0.1-0.3c-0.1-0.1-0.3-0.2-0.6-0.2c-1.4-0.3-2.3-0.6-2.7-0.9c-0.5-0.4-0.8-0.9-0.8-1.5c0-0.6,0.2-1.1,0.7-1.5
					c0.5-0.4,1.2-0.6,2.1-0.6c0.9,0,1.6,0.2,2.1,0.5c0.4,0.3,0.8,0.7,0.9,1.3l-1.7,0.3c-0.1-0.3-0.2-0.5-0.4-0.6
					c-0.2-0.1-0.5-0.2-0.9-0.2c-0.5,0-0.8,0.1-1,0.2c-0.1,0.1-0.2,0.2-0.2,0.4c0,0.1,0.1,0.2,0.2,0.3c0.2,0.1,0.7,0.3,1.7,0.5
					c1,0.2,1.6,0.5,2,0.8c0.4,0.3,0.6,0.8,0.6,1.3c0,0.6-0.3,1.1-0.8,1.6c-0.5,0.4-1.3,0.7-2.3,0.7c-0.9,0-1.6-0.2-2.2-0.6
					S422.9,296.7,422.8,296.1z"/>
			</g>
		</g>
	</g>
	<g transform="translate(-78,-30) scale(1,1)">
		<rect x="343" y="359" class="st1" width="150.6" height="44"/>
	</g>
	<g transform="translate(-78,-30) scale(1,1)">
		<rect x="336" y="352" class="st0" width="150.6" height="44"/>
	</g>
	<g transform="translate(-78,-30) scale(1,1)">
		<path class="st2" d="M336,352h150.6v44H336V352z"/>
	</g>
	<g transform="translate(-78,-30) scale(1,1)">
		<path class="st2" d="M336,377h150.6"/>
	</g>
	<g transform="translate(-78,-30) scale(1,1)">
		<path class="st2" d="M336,387h150.6"/>
	</g>
	<g transform="translate(-78,-30) scale(1,1)">
		<g>
			<path class="st2" d="M0,0"/>
			<g class="st3">
				<path d="M347.3,365.3l-1.8,0.3c-0.1-0.4-0.2-0.6-0.4-0.8c-0.2-0.2-0.5-0.3-0.8-0.3c-0.4,0-0.8,0.2-1.1,0.5
					c-0.3,0.3-0.4,0.8-0.4,1.5c0,0.8,0.1,1.4,0.4,1.7c0.3,0.3,0.6,0.5,1.1,0.5c0.3,0,0.6-0.1,0.8-0.3s0.4-0.5,0.5-1l1.8,0.3
					c-0.2,0.8-0.5,1.4-1,1.8c-0.5,0.4-1.2,0.6-2.1,0.6c-1,0-1.8-0.3-2.4-0.9c-0.6-0.6-0.9-1.5-0.9-2.6c0-1.1,0.3-2,0.9-2.6
					s1.4-0.9,2.4-0.9c0.8,0,1.5,0.2,2,0.5C346.8,364,347.1,364.5,347.3,365.3z"/>
				<path d="M353.1,370v-1c-0.2,0.4-0.6,0.6-1,0.9c-0.4,0.2-0.8,0.3-1.3,0.3c-0.5,0-0.9-0.1-1.2-0.3c-0.4-0.2-0.6-0.5-0.8-0.8
					c-0.2-0.4-0.2-0.9-0.2-1.5v-4.3h1.8v3.1c0,0.9,0,1.5,0.1,1.7c0.1,0.2,0.2,0.4,0.4,0.5s0.4,0.2,0.7,0.2c0.3,0,0.6-0.1,0.8-0.3
					s0.4-0.4,0.5-0.6c0.1-0.2,0.1-0.9,0.1-1.8v-2.8h1.8v6.7H353.1z"/>
				<path d="M362.7,370H361v-3.4c0-0.7,0-1.2-0.1-1.4s-0.2-0.4-0.4-0.5c-0.2-0.1-0.4-0.2-0.6-0.2c-0.3,0-0.6,0.1-0.8,0.3
					c-0.2,0.2-0.4,0.4-0.5,0.7c-0.1,0.3-0.1,0.8-0.1,1.5v3.1h-1.8v-6.7h1.7v1c0.6-0.8,1.3-1.1,2.2-1.1c0.4,0,0.8,0.1,1.1,0.2
					s0.6,0.3,0.7,0.5c0.2,0.2,0.3,0.5,0.3,0.8c0.1,0.3,0.1,0.7,0.1,1.2V370z"/>
				<path d="M370.7,370h-1.7v-1c-0.3,0.4-0.6,0.7-1,0.9c-0.4,0.2-0.8,0.3-1.1,0.3c-0.8,0-1.4-0.3-2-0.9c-0.6-0.6-0.8-1.5-0.8-2.6
					c0-1.1,0.3-2,0.8-2.6s1.2-0.9,2-0.9c0.8,0,1.4,0.3,2,0.9v-3.4h1.8V370z M366,366.5c0,0.7,0.1,1.2,0.3,1.6
					c0.3,0.5,0.7,0.7,1.2,0.7c0.4,0,0.8-0.2,1-0.5c0.3-0.3,0.4-0.9,0.4-1.6c0-0.8-0.1-1.3-0.4-1.7s-0.6-0.5-1.1-0.5
					c-0.4,0-0.8,0.2-1.1,0.5C366.1,365.3,366,365.8,366,366.5z"/>
				<path d="M372.5,362.3v-1.7h1.8v1.7H372.5z M372.5,370v-6.7h1.8v6.7H372.5z"/>
				<path d="M382.2,370h-1.8v-3.4c0-0.7,0-1.2-0.1-1.4s-0.2-0.4-0.4-0.5c-0.2-0.1-0.4-0.2-0.6-0.2c-0.3,0-0.6,0.1-0.8,0.3
					c-0.2,0.2-0.4,0.4-0.5,0.7c-0.1,0.3-0.1,0.8-0.1,1.5v3.1h-1.8v-6.7h1.7v1c0.6-0.8,1.3-1.1,2.2-1.1c0.4,0,0.8,0.1,1.1,0.2
					s0.6,0.3,0.7,0.5c0.2,0.2,0.3,0.5,0.3,0.8c0.1,0.3,0.1,0.7,0.1,1.2V370z"/>
				<path d="M385.4,365.3l-1.6-0.3c0.2-0.7,0.5-1.1,0.9-1.4s1.1-0.5,2-0.5c0.8,0,1.4,0.1,1.8,0.3s0.7,0.4,0.8,0.7
					c0.2,0.3,0.2,0.8,0.2,1.6l0,2.1c0,0.6,0,1,0.1,1.3c0.1,0.3,0.2,0.6,0.3,0.9h-1.8c0-0.1-0.1-0.3-0.2-0.5c0-0.1-0.1-0.2-0.1-0.2
					c-0.3,0.3-0.6,0.5-1,0.7c-0.3,0.1-0.7,0.2-1.1,0.2c-0.7,0-1.2-0.2-1.6-0.6c-0.4-0.4-0.6-0.9-0.6-1.4c0-0.4,0.1-0.7,0.3-1
					c0.2-0.3,0.4-0.5,0.8-0.7c0.3-0.2,0.8-0.3,1.4-0.4c0.8-0.2,1.4-0.3,1.7-0.4v-0.2c0-0.3-0.1-0.6-0.3-0.7c-0.2-0.1-0.5-0.2-1-0.2
					c-0.3,0-0.6,0.1-0.7,0.2S385.5,365,385.4,365.3z M387.8,366.8c-0.2,0.1-0.6,0.2-1.1,0.3c-0.5,0.1-0.8,0.2-1,0.3
					c-0.2,0.2-0.3,0.4-0.3,0.6c0,0.2,0.1,0.5,0.3,0.6c0.2,0.2,0.4,0.3,0.7,0.3c0.3,0,0.6-0.1,0.9-0.3c0.2-0.2,0.4-0.4,0.4-0.6
					c0-0.2,0.1-0.4,0.1-0.9V366.8z"/>
				<path d="M391.1,363.3h1.6v0.9c0.6-0.7,1.3-1.1,2.1-1.1c0.4,0,0.8,0.1,1.1,0.3s0.6,0.4,0.8,0.8c0.3-0.4,0.6-0.6,1-0.8
					s0.7-0.3,1.1-0.3c0.5,0,0.9,0.1,1.3,0.3s0.6,0.5,0.8,0.9c0.1,0.3,0.2,0.8,0.2,1.4v4.3h-1.8v-3.9c0-0.7-0.1-1.1-0.2-1.3
					c-0.2-0.3-0.4-0.4-0.8-0.4c-0.2,0-0.5,0.1-0.7,0.2s-0.4,0.4-0.5,0.7s-0.1,0.8-0.1,1.4v3.2h-1.8v-3.7c0-0.7,0-1.1-0.1-1.3
					s-0.2-0.3-0.3-0.4c-0.1-0.1-0.3-0.1-0.5-0.1c-0.3,0-0.5,0.1-0.7,0.2s-0.4,0.4-0.5,0.6c-0.1,0.3-0.1,0.7-0.1,1.4v3.3h-1.8V363.3z
					"/>
				<path d="M404.2,365.3l-1.6-0.3c0.2-0.7,0.5-1.1,0.9-1.4s1.1-0.5,2-0.5c0.8,0,1.4,0.1,1.8,0.3c0.4,0.2,0.7,0.4,0.8,0.7
					c0.2,0.3,0.2,0.8,0.2,1.6l0,2.1c0,0.6,0,1,0.1,1.3c0.1,0.3,0.2,0.6,0.3,0.9h-1.8c0-0.1-0.1-0.3-0.2-0.5c0-0.1-0.1-0.2-0.1-0.2
					c-0.3,0.3-0.6,0.5-1,0.7c-0.3,0.1-0.7,0.2-1.1,0.2c-0.7,0-1.2-0.2-1.6-0.6c-0.4-0.4-0.6-0.9-0.6-1.4c0-0.4,0.1-0.7,0.3-1
					c0.2-0.3,0.4-0.5,0.8-0.7c0.3-0.2,0.8-0.3,1.4-0.4c0.8-0.2,1.4-0.3,1.7-0.4v-0.2c0-0.3-0.1-0.6-0.3-0.7c-0.2-0.1-0.5-0.2-1-0.2
					c-0.3,0-0.6,0.1-0.7,0.2S404.3,365,404.2,365.3z M406.5,366.8c-0.2,0.1-0.6,0.2-1.1,0.3c-0.5,0.1-0.8,0.2-1,0.3
					c-0.2,0.2-0.3,0.4-0.3,0.6c0,0.2,0.1,0.5,0.3,0.6c0.2,0.2,0.4,0.3,0.7,0.3c0.3,0,0.6-0.1,0.9-0.3c0.2-0.2,0.4-0.4,0.4-0.6
					c0-0.2,0.1-0.4,0.1-0.9V366.8z"/>
				<path d="M411.8,370H410v-6.7h1.7v1c0.3-0.5,0.5-0.8,0.8-0.9c0.2-0.1,0.5-0.2,0.8-0.2c0.4,0,0.8,0.1,1.2,0.3l-0.6,1.6
					c-0.3-0.2-0.6-0.3-0.8-0.3c-0.2,0-0.5,0.1-0.6,0.2c-0.2,0.1-0.3,0.4-0.4,0.7s-0.1,1.1-0.1,2.3V370z"/>
				<path d="M421,365.3l-1.8,0.3c-0.1-0.4-0.2-0.6-0.4-0.8c-0.2-0.2-0.5-0.3-0.8-0.3c-0.4,0-0.8,0.2-1.1,0.5s-0.4,0.8-0.4,1.5
					c0,0.8,0.1,1.4,0.4,1.7c0.3,0.3,0.6,0.5,1.1,0.5c0.3,0,0.6-0.1,0.8-0.3c0.2-0.2,0.4-0.5,0.5-1l1.8,0.3c-0.2,0.8-0.5,1.4-1,1.8
					c-0.5,0.4-1.2,0.6-2.1,0.6c-1,0-1.8-0.3-2.4-0.9c-0.6-0.6-0.9-1.5-0.9-2.6c0-1.1,0.3-2,0.9-2.6s1.4-0.9,2.4-0.9
					c0.8,0,1.5,0.2,2,0.5C420.4,364,420.8,364.5,421,365.3z"/>
				<path d="M423.7,365.3l-1.6-0.3c0.2-0.7,0.5-1.1,0.9-1.4c0.4-0.3,1.1-0.5,2-0.5c0.8,0,1.4,0.1,1.8,0.3c0.4,0.2,0.7,0.4,0.8,0.7
					s0.2,0.8,0.2,1.6l0,2.1c0,0.6,0,1,0.1,1.3s0.2,0.6,0.3,0.9h-1.8c0-0.1-0.1-0.3-0.2-0.5c0-0.1-0.1-0.2-0.1-0.2
					c-0.3,0.3-0.6,0.5-1,0.7c-0.3,0.1-0.7,0.2-1.1,0.2c-0.7,0-1.2-0.2-1.6-0.6c-0.4-0.4-0.6-0.9-0.6-1.4c0-0.4,0.1-0.7,0.3-1
					c0.2-0.3,0.4-0.5,0.8-0.7c0.3-0.2,0.8-0.3,1.4-0.4c0.8-0.2,1.4-0.3,1.7-0.4v-0.2c0-0.3-0.1-0.6-0.3-0.7c-0.2-0.1-0.5-0.2-1-0.2
					c-0.3,0-0.6,0.1-0.7,0.2S423.8,365,423.7,365.3z M426.1,366.8c-0.2,0.1-0.6,0.2-1.1,0.3c-0.5,0.1-0.8,0.2-1,0.3
					c-0.2,0.2-0.3,0.4-0.3,0.6c0,0.2,0.1,0.5,0.3,0.6c0.2,0.2,0.4,0.3,0.7,0.3c0.3,0,0.6-0.1,0.9-0.3c0.2-0.2,0.4-0.4,0.4-0.6
					c0-0.2,0.1-0.4,0.1-0.9V366.8z"/>
				<path d="M429.6,370v-1.8h1.8v1.8H429.6z"/>
				<path d="M433,370.4l2,0.2c0,0.2,0.1,0.4,0.2,0.5c0.2,0.1,0.4,0.2,0.8,0.2c0.5,0,0.8-0.1,1-0.2c0.2-0.1,0.3-0.2,0.4-0.5
					c0.1-0.1,0.1-0.4,0.1-0.8v-1c-0.5,0.7-1.2,1.1-2,1.1c-0.9,0-1.6-0.4-2.2-1.1c-0.4-0.6-0.6-1.4-0.6-2.3c0-1.1,0.3-2,0.8-2.6
					c0.5-0.6,1.2-0.9,2-0.9c0.8,0,1.5,0.4,2.1,1.1v-0.9h1.7v6c0,0.8-0.1,1.4-0.2,1.8s-0.3,0.7-0.6,0.9c-0.2,0.2-0.6,0.4-0.9,0.5
					c-0.4,0.1-0.9,0.2-1.5,0.2c-1.1,0-2-0.2-2.4-0.6s-0.7-0.9-0.7-1.5C433,370.6,433,370.5,433,370.4z M434.6,366.5
					c0,0.7,0.1,1.2,0.4,1.6c0.3,0.3,0.6,0.5,1,0.5c0.4,0,0.8-0.2,1.1-0.5s0.5-0.8,0.5-1.5c0-0.7-0.1-1.2-0.4-1.6
					c-0.3-0.3-0.7-0.5-1.1-0.5c-0.4,0-0.8,0.2-1.1,0.5C434.8,365.3,434.6,365.8,434.6,366.5z"/>
				<path d="M445,367.9l1.8,0.3c-0.2,0.7-0.6,1.1-1.1,1.5c-0.5,0.3-1.1,0.5-1.9,0.5c-1.2,0-2-0.4-2.6-1.1c-0.4-0.6-0.7-1.4-0.7-2.3
					c0-1.1,0.3-2,0.9-2.6s1.3-0.9,2.2-0.9c1,0,1.8,0.3,2.4,1s0.9,1.7,0.8,3h-4.5c0,0.5,0.2,0.9,0.4,1.2c0.3,0.3,0.6,0.4,1,0.4
					c0.3,0,0.5-0.1,0.7-0.2S444.9,368.2,445,367.9z M445.1,366.1c0-0.5-0.1-0.9-0.4-1.2s-0.6-0.4-0.9-0.4c-0.4,0-0.7,0.1-1,0.4
					s-0.4,0.7-0.4,1.2H445.1z"/>
				<path d="M447.9,366.5c0-0.6,0.1-1.2,0.4-1.7c0.3-0.6,0.7-1,1.2-1.3c0.5-0.3,1.1-0.4,1.8-0.4c1,0,1.9,0.3,2.5,1
					c0.7,0.7,1,1.5,1,2.5c0,1-0.3,1.9-1,2.5c-0.7,0.7-1.5,1-2.5,1c-0.6,0-1.2-0.1-1.8-0.4s-1-0.7-1.3-1.2
					C448.1,368,447.9,367.3,447.9,366.5z M449.8,366.6c0,0.7,0.2,1.2,0.5,1.5s0.7,0.5,1.2,0.5c0.5,0,0.9-0.2,1.2-0.5
					c0.3-0.4,0.5-0.9,0.5-1.5c0-0.7-0.2-1.2-0.5-1.5c-0.3-0.4-0.7-0.5-1.2-0.5c-0.5,0-0.9,0.2-1.2,0.5S449.8,366,449.8,366.6z"/>
				<path d="M458,363.3v6.5c0,0.9-0.1,1.5-0.2,1.8s-0.3,0.6-0.6,0.8c-0.3,0.2-0.7,0.3-1.2,0.3c-0.2,0-0.4,0-0.6,0
					c-0.2,0-0.4-0.1-0.7-0.1l0.3-1.5c0.1,0,0.2,0,0.2,0c0.1,0,0.1,0,0.2,0c0.2,0,0.3,0,0.4-0.1s0.2-0.2,0.2-0.3c0-0.1,0.1-0.4,0.1-1
					v-6.4H458z M456.3,362.3v-1.7h1.8v1.7H456.3z"/>
				<path d="M459.3,368.1l1.8-0.3c0.1,0.3,0.2,0.6,0.5,0.8s0.6,0.3,1,0.3c0.5,0,0.8-0.1,1-0.3c0.2-0.1,0.2-0.3,0.2-0.5
					c0-0.1,0-0.2-0.1-0.3c-0.1-0.1-0.3-0.2-0.6-0.2c-1.4-0.3-2.3-0.6-2.7-0.9c-0.5-0.4-0.8-0.9-0.8-1.5c0-0.6,0.2-1.1,0.7-1.5
					c0.5-0.4,1.2-0.6,2.1-0.6c0.9,0,1.6,0.2,2.1,0.5c0.4,0.3,0.8,0.7,0.9,1.3l-1.7,0.3c-0.1-0.3-0.2-0.5-0.4-0.6
					c-0.2-0.1-0.5-0.2-0.9-0.2c-0.5,0-0.8,0.1-1,0.2c-0.1,0.1-0.2,0.2-0.2,0.4c0,0.1,0.1,0.2,0.2,0.3c0.2,0.1,0.7,0.3,1.7,0.5
					c1,0.2,1.6,0.5,2,0.8c0.4,0.3,0.6,0.8,0.6,1.3c0,0.6-0.3,1.1-0.8,1.6c-0.5,0.4-1.3,0.7-2.3,0.7c-0.9,0-1.6-0.2-2.2-0.6
					S459.4,368.7,459.3,368.1z"/>
				<path d="M466.7,366.5c0-0.6,0.1-1.2,0.4-1.7c0.3-0.6,0.7-1,1.2-1.3c0.5-0.3,1.1-0.4,1.8-0.4c1,0,1.9,0.3,2.5,1s1,1.5,1,2.5
					c0,1-0.3,1.9-1,2.5s-1.5,1-2.5,1c-0.6,0-1.2-0.1-1.8-0.4c-0.6-0.3-1-0.7-1.3-1.2C466.9,368,466.7,367.3,466.7,366.5z
					 M468.6,366.6c0,0.7,0.2,1.2,0.5,1.5c0.3,0.4,0.7,0.5,1.2,0.5s0.9-0.2,1.2-0.5c0.3-0.4,0.5-0.9,0.5-1.5c0-0.7-0.2-1.2-0.5-1.5
					c-0.3-0.4-0.7-0.5-1.2-0.5s-0.9,0.2-1.2,0.5C468.7,365.4,468.6,366,468.6,366.6z"/>
				<path d="M481.2,370h-1.8v-3.4c0-0.7,0-1.2-0.1-1.4s-0.2-0.4-0.4-0.5c-0.2-0.1-0.4-0.2-0.6-0.2c-0.3,0-0.6,0.1-0.8,0.3
					c-0.2,0.2-0.4,0.4-0.5,0.7c-0.1,0.3-0.1,0.8-0.1,1.5v3.1h-1.8v-6.7h1.7v1c0.6-0.8,1.3-1.1,2.2-1.1c0.4,0,0.8,0.1,1.1,0.2
					c0.3,0.1,0.6,0.3,0.7,0.5c0.2,0.2,0.3,0.5,0.3,0.8c0.1,0.3,0.1,0.7,0.1,1.2V370z"/>
			</g>
		</g>
	</g>
	<g transform="translate(-78,-30) scale(1,1)">
		<rect x="616" y="360" class="st0" width="71" height="44"/>
	</g>
	<g transform="translate(-78,-30) scale(1,1)">
		<path class="st2" d="M616,360h71v44h-71V360z"/>
	</g>
	<g transform="translate(-78,-30) scale(1,1)">
		<path class="st2" d="M616,385h71"/>
	</g>
	<g transform="translate(-78,-30) scale(1,1)">
		<path class="st2" d="M616,395h71"/>
	</g>
	<g transform="translate(-78,-30) scale(1,1)">
		<g>
			<path class="st2" d="M0,0"/>
			<g class="st3">
				<path d="M623,371.8l-1.6-0.3c0.2-0.7,0.5-1.1,0.9-1.4s1.1-0.5,2-0.5c0.8,0,1.4,0.1,1.8,0.3c0.4,0.2,0.7,0.4,0.8,0.7
					c0.2,0.3,0.2,0.8,0.2,1.6l0,2.1c0,0.6,0,1,0.1,1.3c0.1,0.3,0.2,0.6,0.3,0.9h-1.8c0-0.1-0.1-0.3-0.2-0.5c0-0.1-0.1-0.2-0.1-0.2
					c-0.3,0.3-0.6,0.5-1,0.7c-0.3,0.1-0.7,0.2-1.1,0.2c-0.7,0-1.2-0.2-1.6-0.6c-0.4-0.4-0.6-0.9-0.6-1.4c0-0.4,0.1-0.7,0.3-1
					c0.2-0.3,0.4-0.5,0.8-0.7c0.3-0.2,0.8-0.3,1.4-0.4c0.8-0.2,1.4-0.3,1.7-0.4v-0.2c0-0.3-0.1-0.6-0.3-0.7c-0.2-0.1-0.5-0.2-1-0.2
					c-0.3,0-0.6,0.1-0.7,0.2S623.2,371.5,623,371.8z M625.4,373.3c-0.2,0.1-0.6,0.2-1.1,0.3c-0.5,0.1-0.8,0.2-1,0.3
					c-0.2,0.2-0.3,0.4-0.3,0.6c0,0.2,0.1,0.5,0.3,0.6c0.2,0.2,0.4,0.3,0.7,0.3c0.3,0,0.6-0.1,0.9-0.3c0.2-0.2,0.4-0.4,0.4-0.6
					c0-0.2,0.1-0.4,0.1-0.9V373.3z"/>
				<path d="M634.8,371.8l-1.8,0.3c-0.1-0.4-0.2-0.6-0.4-0.8c-0.2-0.2-0.5-0.3-0.8-0.3c-0.4,0-0.8,0.2-1.1,0.5
					c-0.3,0.3-0.4,0.8-0.4,1.5c0,0.8,0.1,1.4,0.4,1.7s0.6,0.5,1.1,0.5c0.3,0,0.6-0.1,0.8-0.3s0.4-0.5,0.5-1l1.8,0.3
					c-0.2,0.8-0.5,1.4-1,1.8c-0.5,0.4-1.2,0.6-2.1,0.6c-1,0-1.8-0.3-2.4-0.9c-0.6-0.6-0.9-1.5-0.9-2.6c0-1.1,0.3-2,0.9-2.6
					c0.6-0.6,1.4-0.9,2.4-0.9c0.8,0,1.5,0.2,2,0.5C634.3,370.5,634.6,371,634.8,371.8z"/>
				<path d="M642,371.8l-1.8,0.3c-0.1-0.4-0.2-0.6-0.4-0.8c-0.2-0.2-0.5-0.3-0.8-0.3c-0.4,0-0.8,0.2-1.1,0.5s-0.4,0.8-0.4,1.5
					c0,0.8,0.1,1.4,0.4,1.7c0.3,0.3,0.6,0.5,1.1,0.5c0.3,0,0.6-0.1,0.8-0.3s0.4-0.5,0.5-1l1.8,0.3c-0.2,0.8-0.5,1.4-1,1.8
					c-0.5,0.4-1.2,0.6-2.1,0.6c-1,0-1.8-0.3-2.4-0.9c-0.6-0.6-0.9-1.5-0.9-2.6c0-1.1,0.3-2,0.9-2.6c0.6-0.6,1.4-0.9,2.4-0.9
					c0.8,0,1.5,0.2,2,0.5S641.8,371,642,371.8z"/>
				<path d="M647.3,374.4l1.8,0.3c-0.2,0.7-0.6,1.1-1.1,1.5s-1.1,0.5-1.9,0.5c-1.2,0-2-0.4-2.6-1.1c-0.4-0.6-0.7-1.4-0.7-2.3
					c0-1.1,0.3-2,0.9-2.6s1.3-0.9,2.2-0.9c1,0,1.8,0.3,2.4,1c0.6,0.7,0.9,1.7,0.8,3h-4.5c0,0.5,0.2,0.9,0.4,1.2
					c0.3,0.3,0.6,0.4,1,0.4c0.3,0,0.5-0.1,0.7-0.2S647.2,374.7,647.3,374.4z M647.4,372.6c0-0.5-0.1-0.9-0.4-1.2s-0.6-0.4-0.9-0.4
					c-0.4,0-0.7,0.1-1,0.4s-0.4,0.7-0.4,1.2H647.4z"/>
				<path d="M650,374.6l1.8-0.3c0.1,0.3,0.2,0.6,0.5,0.8c0.2,0.2,0.6,0.3,1,0.3c0.5,0,0.8-0.1,1-0.3c0.2-0.1,0.2-0.3,0.2-0.5
					c0-0.1,0-0.2-0.1-0.3c-0.1-0.1-0.3-0.2-0.6-0.2c-1.4-0.3-2.4-0.6-2.7-0.9c-0.5-0.4-0.8-0.9-0.8-1.5c0-0.6,0.2-1.1,0.7-1.5
					c0.5-0.4,1.2-0.6,2.1-0.6c0.9,0,1.6,0.2,2.1,0.5c0.4,0.3,0.8,0.7,0.9,1.3l-1.7,0.3c-0.1-0.3-0.2-0.5-0.4-0.6
					c-0.2-0.1-0.5-0.2-0.9-0.2c-0.5,0-0.8,0.1-1,0.2c-0.1,0.1-0.2,0.2-0.2,0.4c0,0.1,0.1,0.2,0.2,0.3c0.2,0.1,0.7,0.3,1.7,0.5
					s1.6,0.5,2,0.8c0.4,0.3,0.6,0.8,0.6,1.3c0,0.6-0.3,1.1-0.8,1.6c-0.5,0.4-1.3,0.7-2.3,0.7c-0.9,0-1.6-0.2-2.2-0.6
					C650.5,375.7,650.2,375.2,650,374.6z"/>
				<path d="M657.9,376.5v-1.8h1.8v1.8H657.9z"/>
				<path d="M667.3,371.8l-1.8,0.3c-0.1-0.4-0.2-0.6-0.4-0.8c-0.2-0.2-0.5-0.3-0.8-0.3c-0.4,0-0.8,0.2-1.1,0.5s-0.4,0.8-0.4,1.5
					c0,0.8,0.1,1.4,0.4,1.7c0.3,0.3,0.6,0.5,1.1,0.5c0.3,0,0.6-0.1,0.8-0.3s0.4-0.5,0.5-1l1.8,0.3c-0.2,0.8-0.5,1.4-1,1.8
					c-0.5,0.4-1.2,0.6-2.1,0.6c-1,0-1.8-0.3-2.4-0.9c-0.6-0.6-0.9-1.5-0.9-2.6c0-1.1,0.3-2,0.9-2.6c0.6-0.6,1.4-0.9,2.4-0.9
					c0.8,0,1.5,0.2,2,0.5S667.1,371,667.3,371.8z"/>
				<path d="M668.1,374.6l1.8-0.3c0.1,0.3,0.2,0.6,0.5,0.8c0.2,0.2,0.6,0.3,1,0.3c0.5,0,0.8-0.1,1-0.3c0.2-0.1,0.2-0.3,0.2-0.5
					c0-0.1,0-0.2-0.1-0.3c-0.1-0.1-0.3-0.2-0.6-0.2c-1.4-0.3-2.4-0.6-2.7-0.9c-0.5-0.4-0.8-0.9-0.8-1.5c0-0.6,0.2-1.1,0.7-1.5
					c0.5-0.4,1.2-0.6,2.1-0.6c0.9,0,1.6,0.2,2.1,0.5c0.4,0.3,0.8,0.7,0.9,1.3l-1.7,0.3c-0.1-0.3-0.2-0.5-0.4-0.6
					c-0.2-0.1-0.5-0.2-0.9-0.2c-0.5,0-0.8,0.1-1,0.2c-0.1,0.1-0.2,0.2-0.2,0.4c0,0.1,0.1,0.2,0.2,0.3c0.2,0.1,0.7,0.3,1.7,0.5
					c1,0.2,1.6,0.5,2,0.8c0.4,0.3,0.6,0.8,0.6,1.3c0,0.6-0.3,1.1-0.8,1.6c-0.5,0.4-1.3,0.7-2.3,0.7c-0.9,0-1.6-0.2-2.2-0.6
					S668.2,375.2,668.1,374.6z"/>
				<path d="M675.3,374.6l1.8-0.3c0.1,0.3,0.2,0.6,0.5,0.8c0.2,0.2,0.6,0.3,1,0.3c0.5,0,0.8-0.1,1-0.3c0.2-0.1,0.2-0.3,0.2-0.5
					c0-0.1,0-0.2-0.1-0.3c-0.1-0.1-0.3-0.2-0.6-0.2c-1.4-0.3-2.4-0.6-2.7-0.9c-0.5-0.4-0.8-0.9-0.8-1.5c0-0.6,0.2-1.1,0.7-1.5
					c0.5-0.4,1.2-0.6,2.1-0.6c0.9,0,1.6,0.2,2.1,0.5c0.4,0.3,0.8,0.7,0.9,1.3l-1.7,0.3c-0.1-0.3-0.2-0.5-0.4-0.6
					c-0.2-0.1-0.5-0.2-0.9-0.2c-0.5,0-0.8,0.1-1,0.2c-0.1,0.1-0.2,0.2-0.2,0.4c0,0.1,0.1,0.2,0.2,0.3c0.2,0.1,0.7,0.3,1.7,0.5
					s1.6,0.5,2,0.8c0.4,0.3,0.6,0.8,0.6,1.3c0,0.6-0.3,1.1-0.8,1.6c-0.5,0.4-1.3,0.7-2.3,0.7c-0.9,0-1.6-0.2-2.2-0.6
					C675.8,375.7,675.5,375.2,675.3,374.6z"/>
			</g>
		</g>
	</g>
	<g transform="translate(-78,-30) scale(1,1)">
		<rect x="135" y="111" class="st1" width="68.3" height="47"/>
	</g>
	<g transform="translate(-78,-30) scale(1,1)">
		<rect x="128" y="104" class="st0" width="68.3" height="47"/>
	</g>
	<g transform="translate(-78,-30) scale(1,1)">
		<path class="st2" d="M128,104h68.3v47H128V104z"/>
	</g>
	<g transform="translate(-78,-30) scale(1,1)">
		<path class="st2" d="M128,129h68.3"/>
	</g>
	<g transform="translate(-78,-30) scale(1,1)">
		<path class="st2" d="M128,139h68.3"/>
	</g>
	<g transform="translate(-78,-30) scale(1,1)">
		<g>
			<path class="st2" d="M0,0"/>
			<g class="st3">
				<path d="M133.4,114.3v-1.7h1.8v1.7H133.4z M133.4,122v-6.7h1.8v6.7H133.4z"/>
				<path d="M143.2,122h-1.8v-3.4c0-0.7,0-1.2-0.1-1.4s-0.2-0.4-0.4-0.5c-0.2-0.1-0.4-0.2-0.6-0.2c-0.3,0-0.6,0.1-0.8,0.3
					c-0.2,0.2-0.4,0.4-0.5,0.7c-0.1,0.3-0.1,0.8-0.1,1.5v3.1H137v-6.7h1.7v1c0.6-0.8,1.3-1.1,2.2-1.1c0.4,0,0.8,0.1,1.1,0.2
					s0.6,0.3,0.7,0.5c0.2,0.2,0.3,0.5,0.3,0.8c0.1,0.3,0.1,0.7,0.1,1.2V122z"/>
				<path d="M151.2,122h-1.7v-1c-0.3,0.4-0.6,0.7-1,0.9c-0.4,0.2-0.8,0.3-1.1,0.3c-0.8,0-1.4-0.3-2-0.9c-0.6-0.6-0.8-1.5-0.8-2.6
					c0-1.1,0.3-2,0.8-2.6s1.2-0.9,2-0.9c0.8,0,1.4,0.3,2,0.9v-3.4h1.8V122z M146.4,118.5c0,0.7,0.1,1.2,0.3,1.6
					c0.3,0.5,0.7,0.7,1.2,0.7c0.4,0,0.8-0.2,1-0.5c0.3-0.3,0.4-0.9,0.4-1.6c0-0.8-0.1-1.3-0.4-1.7s-0.6-0.5-1.1-0.5
					c-0.4,0-0.8,0.2-1.1,0.5C146.6,117.3,146.4,117.8,146.4,118.5z"/>
				<path d="M156.8,119.9l1.8,0.3c-0.2,0.7-0.6,1.1-1.1,1.5c-0.5,0.3-1.1,0.5-1.9,0.5c-1.2,0-2-0.4-2.6-1.1
					c-0.4-0.6-0.7-1.4-0.7-2.3c0-1.1,0.3-2,0.9-2.6s1.3-0.9,2.2-0.9c1,0,1.8,0.3,2.4,1s0.9,1.7,0.8,3h-4.5c0,0.5,0.2,0.9,0.4,1.2
					s0.6,0.4,1,0.4c0.3,0,0.5-0.1,0.7-0.2S156.7,120.2,156.8,119.9z M156.9,118.1c0-0.5-0.1-0.9-0.4-1.2s-0.6-0.4-0.9-0.4
					c-0.4,0-0.7,0.1-1,0.4s-0.4,0.7-0.4,1.2H156.9z"/>
				<path d="M159.3,122l2.4-3.5l-2.3-3.3h2.2l1.2,1.9l1.3-1.9h2.1l-2.3,3.2l2.5,3.5h-2.2l-1.4-2.1l-1.4,2.1H159.3z"/>
				<path d="M167.4,122v-1.8h1.8v1.8H167.4z"/>
				<path d="M176.9,117.3l-1.8,0.3c-0.1-0.4-0.2-0.6-0.4-0.8c-0.2-0.2-0.5-0.3-0.8-0.3c-0.4,0-0.8,0.2-1.1,0.5
					c-0.3,0.3-0.4,0.8-0.4,1.5c0,0.8,0.1,1.4,0.4,1.7c0.3,0.3,0.6,0.5,1.1,0.5c0.3,0,0.6-0.1,0.8-0.3s0.4-0.5,0.5-1l1.8,0.3
					c-0.2,0.8-0.5,1.4-1,1.8c-0.5,0.4-1.2,0.6-2.1,0.6c-1,0-1.8-0.3-2.4-0.9c-0.6-0.6-0.9-1.5-0.9-2.6c0-1.1,0.3-2,0.9-2.6
					s1.4-0.9,2.4-0.9c0.8,0,1.5,0.2,2,0.5C176.3,116,176.7,116.5,176.9,117.3z"/>
				<path d="M177.6,120.1l1.8-0.3c0.1,0.3,0.2,0.6,0.5,0.8s0.6,0.3,1,0.3c0.5,0,0.8-0.1,1-0.3c0.2-0.1,0.2-0.3,0.2-0.5
					c0-0.1,0-0.2-0.1-0.3c-0.1-0.1-0.3-0.2-0.6-0.2c-1.4-0.3-2.4-0.6-2.7-0.9c-0.5-0.4-0.8-0.9-0.8-1.5c0-0.6,0.2-1.1,0.7-1.5
					s1.2-0.6,2.1-0.6c0.9,0,1.6,0.2,2.1,0.5c0.4,0.3,0.8,0.7,0.9,1.3l-1.7,0.3c-0.1-0.3-0.2-0.5-0.4-0.6c-0.2-0.1-0.5-0.2-0.9-0.2
					c-0.5,0-0.8,0.1-1,0.2c-0.1,0.1-0.2,0.2-0.2,0.4c0,0.1,0.1,0.2,0.2,0.3c0.2,0.1,0.7,0.3,1.7,0.5c1,0.2,1.6,0.5,2,0.8
					c0.4,0.3,0.6,0.8,0.6,1.3c0,0.6-0.3,1.1-0.8,1.6c-0.5,0.4-1.3,0.7-2.3,0.7c-0.9,0-1.6-0.2-2.2-0.6
					C178.1,121.2,177.8,120.7,177.6,120.1z"/>
				<path d="M184.8,120.1l1.8-0.3c0.1,0.3,0.2,0.6,0.5,0.8s0.6,0.3,1,0.3c0.5,0,0.8-0.1,1-0.3c0.2-0.1,0.2-0.3,0.2-0.5
					c0-0.1,0-0.2-0.1-0.3c-0.1-0.1-0.3-0.2-0.6-0.2c-1.4-0.3-2.4-0.6-2.7-0.9c-0.5-0.4-0.8-0.9-0.8-1.5c0-0.6,0.2-1.1,0.7-1.5
					s1.2-0.6,2.1-0.6c0.9,0,1.6,0.2,2.1,0.5c0.4,0.3,0.8,0.7,0.9,1.3l-1.7,0.3c-0.1-0.3-0.2-0.5-0.4-0.6c-0.2-0.1-0.5-0.2-0.9-0.2
					c-0.5,0-0.8,0.1-1,0.2c-0.1,0.1-0.2,0.2-0.2,0.4c0,0.1,0.1,0.2,0.2,0.3c0.2,0.1,0.7,0.3,1.7,0.5c1,0.2,1.6,0.5,2,0.8
					c0.4,0.3,0.6,0.8,0.6,1.3c0,0.6-0.3,1.1-0.8,1.6c-0.5,0.4-1.3,0.7-2.3,0.7c-0.9,0-1.6-0.2-2.2-0.6
					C185.3,121.2,185,120.7,184.8,120.1z"/>
			</g>
		</g>
	</g>
	<g transform="translate(-78,-30) scale(1,1)">
		<rect x="175" y="423" class="st1" width="58.1" height="44"/>
	</g>
	<g transform="translate(-78,-30) scale(1,1)">
		<rect x="168" y="416" class="st0" width="58.1" height="44"/>
	</g>
	<g transform="translate(-78,-30) scale(1,1)">
		<path class="st2" d="M168,416h58.1v44H168V416z"/>
	</g>
	<g transform="translate(-78,-30) scale(1,1)">
		<path class="st2" d="M168,441h58.1"/>
	</g>
	<g transform="translate(-78,-30) scale(1,1)">
		<path class="st2" d="M168,451h58.1"/>
	</g>
	<g transform="translate(-78,-30) scale(1,1)">
		<g>
			<path class="st2" d="M0,0"/>
			<g class="st3">
				<path d="M173.4,426.3v-1.7h1.8v1.7H173.4z M173.4,434v-6.7h1.8v6.7H173.4z"/>
				<path d="M183.2,434h-1.8v-3.4c0-0.7,0-1.2-0.1-1.4s-0.2-0.4-0.4-0.5c-0.2-0.1-0.4-0.2-0.6-0.2c-0.3,0-0.6,0.1-0.8,0.3
					c-0.2,0.2-0.4,0.4-0.5,0.7c-0.1,0.3-0.1,0.8-0.1,1.5v3.1H177v-6.7h1.7v1c0.6-0.8,1.3-1.1,2.2-1.1c0.4,0,0.8,0.1,1.1,0.2
					s0.6,0.3,0.7,0.5c0.2,0.2,0.3,0.5,0.3,0.8c0.1,0.3,0.1,0.7,0.1,1.2V434z"/>
				<path d="M184.2,427.3h1v-0.5c0-0.6,0.1-1,0.2-1.3c0.1-0.3,0.3-0.5,0.7-0.7c0.3-0.2,0.7-0.3,1.2-0.3c0.5,0,1,0.1,1.5,0.2
					l-0.2,1.2c-0.3-0.1-0.6-0.1-0.8-0.1c-0.3,0-0.4,0.1-0.6,0.2c-0.1,0.1-0.2,0.4-0.2,0.7v0.5h1.3v1.4H187v5.3h-1.8v-5.3h-1V427.3z"
					/>
				<path d="M188.9,430.5c0-0.6,0.1-1.2,0.4-1.7c0.3-0.6,0.7-1,1.2-1.3c0.5-0.3,1.1-0.4,1.8-0.4c1,0,1.9,0.3,2.5,1s1,1.5,1,2.5
					c0,1-0.3,1.9-1,2.5c-0.7,0.7-1.5,1-2.5,1c-0.6,0-1.2-0.1-1.8-0.4c-0.6-0.3-1-0.7-1.3-1.2C189,432,188.9,431.3,188.9,430.5z
					 M190.7,430.6c0,0.7,0.2,1.2,0.5,1.5s0.7,0.5,1.2,0.5s0.9-0.2,1.2-0.5c0.3-0.4,0.5-0.9,0.5-1.5c0-0.7-0.2-1.2-0.5-1.5
					c-0.3-0.4-0.7-0.5-1.2-0.5s-0.9,0.2-1.2,0.5S190.7,430,190.7,430.6z"/>
				<path d="M197.3,434v-1.8h1.8v1.8H197.3z"/>
				<path d="M206.7,429.3l-1.8,0.3c-0.1-0.4-0.2-0.6-0.4-0.8c-0.2-0.2-0.5-0.3-0.8-0.3c-0.4,0-0.8,0.2-1.1,0.5
					c-0.3,0.3-0.4,0.8-0.4,1.5c0,0.8,0.1,1.4,0.4,1.7c0.3,0.3,0.6,0.5,1.1,0.5c0.3,0,0.6-0.1,0.8-0.3s0.4-0.5,0.5-1l1.8,0.3
					c-0.2,0.8-0.5,1.4-1,1.8c-0.5,0.4-1.2,0.6-2.1,0.6c-1,0-1.8-0.3-2.4-0.9c-0.6-0.6-0.9-1.5-0.9-2.6c0-1.1,0.3-2,0.9-2.6
					s1.4-0.9,2.4-0.9c0.8,0,1.5,0.2,2,0.5C206.2,428,206.5,428.5,206.7,429.3z"/>
				<path d="M207.5,432.1l1.8-0.3c0.1,0.3,0.2,0.6,0.5,0.8s0.6,0.3,1,0.3c0.5,0,0.8-0.1,1-0.3c0.2-0.1,0.2-0.3,0.2-0.5
					c0-0.1,0-0.2-0.1-0.3c-0.1-0.1-0.3-0.2-0.6-0.2c-1.4-0.3-2.4-0.6-2.7-0.9c-0.5-0.4-0.8-0.9-0.8-1.5c0-0.6,0.2-1.1,0.7-1.5
					s1.2-0.6,2.1-0.6c0.9,0,1.6,0.2,2.1,0.5c0.4,0.3,0.8,0.7,0.9,1.3l-1.7,0.3c-0.1-0.3-0.2-0.5-0.4-0.6c-0.2-0.1-0.5-0.2-0.9-0.2
					c-0.5,0-0.8,0.1-1,0.2c-0.1,0.1-0.2,0.2-0.2,0.4c0,0.1,0.1,0.2,0.2,0.3c0.2,0.1,0.7,0.3,1.7,0.5c1,0.2,1.6,0.5,2,0.8
					c0.4,0.3,0.6,0.8,0.6,1.3c0,0.6-0.3,1.1-0.8,1.6c-0.5,0.4-1.3,0.7-2.3,0.7c-0.9,0-1.6-0.2-2.2-0.6
					C208,433.2,207.6,432.7,207.5,432.1z"/>
				<path d="M214.7,432.1l1.8-0.3c0.1,0.3,0.2,0.6,0.5,0.8s0.6,0.3,1,0.3c0.5,0,0.8-0.1,1-0.3c0.2-0.1,0.2-0.3,0.2-0.5
					c0-0.1,0-0.2-0.1-0.3c-0.1-0.1-0.3-0.2-0.6-0.2c-1.4-0.3-2.4-0.6-2.7-0.9c-0.5-0.4-0.8-0.9-0.8-1.5c0-0.6,0.2-1.1,0.7-1.5
					s1.2-0.6,2.1-0.6c0.9,0,1.6,0.2,2.1,0.5c0.4,0.3,0.8,0.7,0.9,1.3l-1.7,0.3c-0.1-0.3-0.2-0.5-0.4-0.6c-0.2-0.1-0.5-0.2-0.9-0.2
					c-0.5,0-0.8,0.1-1,0.2c-0.1,0.1-0.2,0.2-0.2,0.4c0,0.1,0.1,0.2,0.2,0.3c0.2,0.1,0.7,0.3,1.7,0.5c1,0.2,1.6,0.5,2,0.8
					c0.4,0.3,0.6,0.8,0.6,1.3c0,0.6-0.3,1.1-0.8,1.6c-0.5,0.4-1.3,0.7-2.3,0.7c-0.9,0-1.6-0.2-2.2-0.6
					C215.2,433.2,214.9,432.7,214.7,432.1z"/>
			</g>
		</g>
	</g>
	<g transform="translate(-78,-30) scale(1,1)">
		<rect x="263" y="359" class="st1" width="61" height="44"/>
	</g>
	<g transform="translate(-78,-30) scale(1,1)">
		<rect x="256" y="352" class="st0" width="61" height="44"/>
	</g>
	<g transform="translate(-78,-30) scale(1,1)">
		<path class="st2" d="M256,352h61v44h-61V352z"/>
	</g>
	<g transform="translate(-78,-30) scale(1,1)">
		<path class="st2" d="M256,377h61"/>
	</g>
	<g transform="translate(-78,-30) scale(1,1)">
		<path class="st2" d="M256,387h61"/>
	</g>
	<g transform="translate(-78,-30) scale(1,1)">
		<g>
			<path class="st2" d="M0,0"/>
			<g class="st3">
				<path d="M261.3,361.8h1.6v0.9c0.6-0.7,1.3-1.1,2.1-1.1c0.4,0,0.8,0.1,1.1,0.3s0.6,0.4,0.8,0.8c0.3-0.4,0.6-0.6,1-0.8
					s0.7-0.3,1.1-0.3c0.5,0,0.9,0.1,1.3,0.3s0.6,0.5,0.8,0.9c0.1,0.3,0.2,0.8,0.2,1.4v4.3h-1.8v-3.9c0-0.7-0.1-1.1-0.2-1.3
					c-0.2-0.3-0.4-0.4-0.8-0.4c-0.2,0-0.5,0.1-0.7,0.2s-0.4,0.4-0.5,0.7s-0.1,0.8-0.1,1.4v3.2h-1.8v-3.7c0-0.7,0-1.1-0.1-1.3
					s-0.2-0.3-0.3-0.4c-0.1-0.1-0.3-0.1-0.5-0.1c-0.3,0-0.5,0.1-0.7,0.2s-0.4,0.4-0.5,0.6c-0.1,0.3-0.1,0.7-0.1,1.4v3.3h-1.8V361.8z
					"/>
				<path d="M274.3,363.8l-1.6-0.3c0.2-0.7,0.5-1.1,0.9-1.4s1.1-0.5,2-0.5c0.8,0,1.4,0.1,1.8,0.3s0.7,0.4,0.8,0.7
					c0.2,0.3,0.2,0.8,0.2,1.6l0,2.1c0,0.6,0,1,0.1,1.3c0.1,0.3,0.2,0.6,0.3,0.9h-1.8c0-0.1-0.1-0.3-0.2-0.5c0-0.1-0.1-0.2-0.1-0.2
					c-0.3,0.3-0.6,0.5-1,0.7c-0.3,0.1-0.7,0.2-1.1,0.2c-0.7,0-1.2-0.2-1.6-0.6c-0.4-0.4-0.6-0.9-0.6-1.4c0-0.4,0.1-0.7,0.3-1
					c0.2-0.3,0.4-0.5,0.8-0.7c0.3-0.2,0.8-0.3,1.4-0.4c0.8-0.2,1.4-0.3,1.7-0.4v-0.2c0-0.3-0.1-0.6-0.3-0.7c-0.2-0.1-0.5-0.2-1-0.2
					c-0.3,0-0.6,0.1-0.7,0.2S274.4,363.5,274.3,363.8z M276.7,365.3c-0.2,0.1-0.6,0.2-1.1,0.3c-0.5,0.1-0.8,0.2-1,0.3
					c-0.2,0.2-0.3,0.4-0.3,0.6c0,0.2,0.1,0.5,0.3,0.6c0.2,0.2,0.4,0.3,0.7,0.3c0.3,0,0.6-0.1,0.9-0.3c0.2-0.2,0.4-0.4,0.4-0.6
					c0-0.2,0.1-0.4,0.1-0.9V365.3z"/>
				<path d="M280.2,361.8h1.7v1c0.2-0.3,0.5-0.6,0.9-0.8s0.8-0.3,1.2-0.3c0.8,0,1.4,0.3,2,0.9c0.5,0.6,0.8,1.5,0.8,2.6
					c0,1.1-0.3,2-0.8,2.6s-1.2,0.9-2,0.9c-0.4,0-0.7-0.1-1-0.2c-0.3-0.1-0.6-0.4-1-0.8v3.4h-1.8V361.8z M281.9,365
					c0,0.8,0.2,1.3,0.5,1.7c0.3,0.4,0.7,0.5,1.1,0.5c0.4,0,0.8-0.2,1-0.5s0.4-0.9,0.4-1.6c0-0.7-0.1-1.2-0.4-1.6
					c-0.3-0.3-0.6-0.5-1.1-0.5c-0.4,0-0.8,0.2-1.1,0.5C282.1,363.9,281.9,364.4,281.9,365z"/>
				<path d="M288.2,368.5v-1.8h1.8v1.8H288.2z"/>
				<path d="M297.7,363.8l-1.8,0.3c-0.1-0.4-0.2-0.6-0.4-0.8c-0.2-0.2-0.5-0.3-0.8-0.3c-0.4,0-0.8,0.2-1.1,0.5
					c-0.3,0.3-0.4,0.8-0.4,1.5c0,0.8,0.1,1.4,0.4,1.7c0.3,0.3,0.6,0.5,1.1,0.5c0.3,0,0.6-0.1,0.8-0.3s0.4-0.5,0.5-1l1.8,0.3
					c-0.2,0.8-0.5,1.4-1,1.8c-0.5,0.4-1.2,0.6-2.1,0.6c-1,0-1.8-0.3-2.4-0.9c-0.6-0.6-0.9-1.5-0.9-2.6c0-1.1,0.3-2,0.9-2.6
					s1.4-0.9,2.4-0.9c0.8,0,1.5,0.2,2,0.5C297.1,362.5,297.4,363,297.7,363.8z"/>
				<path d="M298.4,366.6l1.8-0.3c0.1,0.3,0.2,0.6,0.5,0.8s0.6,0.3,1,0.3c0.5,0,0.8-0.1,1-0.3c0.2-0.1,0.2-0.3,0.2-0.5
					c0-0.1,0-0.2-0.1-0.3c-0.1-0.1-0.3-0.2-0.6-0.2c-1.4-0.3-2.4-0.6-2.7-0.9c-0.5-0.4-0.8-0.9-0.8-1.5c0-0.6,0.2-1.1,0.7-1.5
					s1.2-0.6,2.1-0.6c0.9,0,1.6,0.2,2.1,0.5c0.4,0.3,0.8,0.7,0.9,1.3l-1.7,0.3c-0.1-0.3-0.2-0.5-0.4-0.6c-0.2-0.1-0.5-0.2-0.9-0.2
					c-0.5,0-0.8,0.1-1,0.2c-0.1,0.1-0.2,0.2-0.2,0.4c0,0.1,0.1,0.2,0.2,0.3c0.2,0.1,0.7,0.3,1.7,0.5c1,0.2,1.6,0.5,2,0.8
					c0.4,0.3,0.6,0.8,0.6,1.3c0,0.6-0.3,1.1-0.8,1.6c-0.5,0.4-1.3,0.7-2.3,0.7c-0.9,0-1.6-0.2-2.2-0.6
					C298.9,367.7,298.5,367.2,298.4,366.6z"/>
				<path d="M305.6,366.6l1.8-0.3c0.1,0.3,0.2,0.6,0.5,0.8s0.6,0.3,1,0.3c0.5,0,0.8-0.1,1-0.3c0.2-0.1,0.2-0.3,0.2-0.5
					c0-0.1,0-0.2-0.1-0.3c-0.1-0.1-0.3-0.2-0.6-0.2c-1.4-0.3-2.4-0.6-2.7-0.9c-0.5-0.4-0.8-0.9-0.8-1.5c0-0.6,0.2-1.1,0.7-1.5
					s1.2-0.6,2.1-0.6c0.9,0,1.6,0.2,2.1,0.5c0.4,0.3,0.8,0.7,0.9,1.3l-1.7,0.3c-0.1-0.3-0.2-0.5-0.4-0.6c-0.2-0.1-0.5-0.2-0.9-0.2
					c-0.5,0-0.8,0.1-1,0.2c-0.1,0.1-0.2,0.2-0.2,0.4c0,0.1,0.1,0.2,0.2,0.3c0.2,0.1,0.7,0.3,1.7,0.5c1,0.2,1.6,0.5,2,0.8
					c0.4,0.3,0.6,0.8,0.6,1.3c0,0.6-0.3,1.1-0.8,1.6c-0.5,0.4-1.3,0.7-2.3,0.7c-0.9,0-1.6-0.2-2.2-0.6
					C306.1,367.7,305.8,367.2,305.6,366.6z"/>
			</g>
		</g>
	</g>
	<g transform="translate(-78,-30) scale(1,1)">
		<rect x="496" y="360" class="st0" width="64.6" height="44"/>
	</g>
	<g transform="translate(-78,-30) scale(1,1)">
		<path class="st2" d="M496,360h64.6v44H496V360z"/>
	</g>
	<g transform="translate(-78,-30) scale(1,1)">
		<path class="st2" d="M496,385h64.6"/>
	</g>
	<g transform="translate(-78,-30) scale(1,1)">
		<path class="st2" d="M496,395h64.6"/>
	</g>
	<g transform="translate(-78,-30) scale(1,1)">
		<g>
			<path class="st2" d="M0,0"/>
			<g class="st3">
				<path d="M504.5,371.3v1.4h-1.2v2.7c0,0.5,0,0.9,0,1c0,0.1,0.1,0.2,0.2,0.2c0.1,0.1,0.2,0.1,0.3,0.1c0.2,0,0.4-0.1,0.7-0.2
					l0.2,1.4c-0.4,0.2-0.9,0.3-1.4,0.3c-0.3,0-0.6-0.1-0.9-0.2c-0.3-0.1-0.4-0.2-0.6-0.4c-0.1-0.2-0.2-0.4-0.3-0.7
					c0-0.2-0.1-0.6-0.1-1.3v-2.9h-0.8v-1.4h0.8v-1.3l1.8-1v2.4H504.5z"/>
				<path d="M507.1,373.3l-1.6-0.3c0.2-0.7,0.5-1.1,0.9-1.4s1.1-0.5,2-0.5c0.8,0,1.4,0.1,1.8,0.3s0.7,0.4,0.8,0.7
					c0.2,0.3,0.2,0.8,0.2,1.6l0,2.1c0,0.6,0,1,0.1,1.3c0.1,0.3,0.2,0.6,0.3,0.9h-1.8c0-0.1-0.1-0.3-0.2-0.5c0-0.1-0.1-0.2-0.1-0.2
					c-0.3,0.3-0.6,0.5-1,0.7c-0.3,0.1-0.7,0.2-1.1,0.2c-0.7,0-1.2-0.2-1.6-0.6c-0.4-0.4-0.6-0.9-0.6-1.4c0-0.4,0.1-0.7,0.3-1
					c0.2-0.3,0.4-0.5,0.8-0.7c0.3-0.2,0.8-0.3,1.4-0.4c0.8-0.2,1.4-0.3,1.7-0.4v-0.2c0-0.3-0.1-0.6-0.3-0.7c-0.2-0.1-0.5-0.2-1-0.2
					c-0.3,0-0.6,0.1-0.7,0.2S507.2,373,507.1,373.3z M509.5,374.8c-0.2,0.1-0.6,0.2-1.1,0.3c-0.5,0.1-0.8,0.2-1,0.3
					c-0.2,0.2-0.3,0.4-0.3,0.6c0,0.2,0.1,0.5,0.3,0.6c0.2,0.2,0.4,0.3,0.7,0.3c0.3,0,0.6-0.1,0.9-0.3c0.2-0.2,0.4-0.4,0.4-0.6
					c0-0.2,0.1-0.4,0.1-0.9V374.8z"/>
				<path d="M512.9,378v-9.3h1.8v3.4c0.6-0.6,1.2-0.9,2-0.9c0.8,0,1.5,0.3,2,0.9s0.8,1.4,0.8,2.6c0,1.2-0.3,2-0.8,2.7
					c-0.5,0.6-1.2,0.9-2,0.9c-0.4,0-0.8-0.1-1.1-0.3s-0.7-0.5-1-0.9v1H512.9z M514.7,374.5c0,0.7,0.1,1.2,0.3,1.5
					c0.3,0.5,0.7,0.7,1.2,0.7c0.4,0,0.7-0.2,1-0.5c0.3-0.3,0.4-0.9,0.4-1.6c0-0.8-0.1-1.3-0.4-1.7s-0.6-0.5-1.1-0.5
					c-0.4,0-0.8,0.2-1.1,0.5S514.7,373.8,514.7,374.5z"/>
				<path d="M520.9,378v-9.3h1.8v9.3H520.9z"/>
				<path d="M528.4,375.9l1.8,0.3c-0.2,0.7-0.6,1.1-1.1,1.5c-0.5,0.3-1.1,0.5-1.9,0.5c-1.2,0-2-0.4-2.6-1.1
					c-0.4-0.6-0.7-1.4-0.7-2.3c0-1.1,0.3-2,0.9-2.6s1.3-0.9,2.2-0.9c1,0,1.8,0.3,2.4,1c0.6,0.7,0.9,1.7,0.8,3h-4.5
					c0,0.5,0.2,0.9,0.4,1.2s0.6,0.4,1,0.4c0.3,0,0.5-0.1,0.7-0.2C528.2,376.4,528.4,376.2,528.4,375.9z M528.6,374.1
					c0-0.5-0.1-0.9-0.4-1.2s-0.6-0.4-0.9-0.4c-0.4,0-0.7,0.1-1,0.4s-0.4,0.7-0.4,1.2H528.6z"/>
				<path d="M531.8,378v-1.8h1.8v1.8H531.8z"/>
				<path d="M541.3,373.3l-1.8,0.3c-0.1-0.4-0.2-0.6-0.4-0.8s-0.5-0.3-0.8-0.3c-0.4,0-0.8,0.2-1.1,0.5c-0.3,0.3-0.4,0.8-0.4,1.5
					c0,0.8,0.1,1.4,0.4,1.7c0.3,0.3,0.6,0.5,1.1,0.5c0.3,0,0.6-0.1,0.8-0.3s0.4-0.5,0.5-1l1.8,0.3c-0.2,0.8-0.5,1.4-1,1.8
					c-0.5,0.4-1.2,0.6-2.1,0.6c-1,0-1.8-0.3-2.4-0.9c-0.6-0.6-0.9-1.5-0.9-2.6c0-1.1,0.3-2,0.9-2.6c0.6-0.6,1.4-0.9,2.4-0.9
					c0.8,0,1.5,0.2,2,0.5S541.1,372.5,541.3,373.3z"/>
				<path d="M542,376.1l1.8-0.3c0.1,0.3,0.2,0.6,0.5,0.8c0.2,0.2,0.6,0.3,1,0.3c0.5,0,0.8-0.1,1-0.3c0.2-0.1,0.2-0.3,0.2-0.5
					c0-0.1,0-0.2-0.1-0.3c-0.1-0.1-0.3-0.2-0.6-0.2c-1.4-0.3-2.4-0.6-2.7-0.9c-0.5-0.4-0.8-0.9-0.8-1.5c0-0.6,0.2-1.1,0.7-1.5
					s1.2-0.6,2.1-0.6c0.9,0,1.6,0.2,2.1,0.5c0.4,0.3,0.8,0.7,0.9,1.3l-1.7,0.3c-0.1-0.3-0.2-0.5-0.4-0.6c-0.2-0.1-0.5-0.2-0.9-0.2
					c-0.5,0-0.8,0.1-1,0.2c-0.1,0.1-0.2,0.2-0.2,0.4c0,0.1,0.1,0.2,0.2,0.3c0.2,0.1,0.7,0.3,1.7,0.5c1,0.2,1.6,0.5,2,0.8
					c0.4,0.3,0.6,0.8,0.6,1.3c0,0.6-0.3,1.1-0.8,1.6c-0.5,0.4-1.3,0.7-2.3,0.7c-0.9,0-1.6-0.2-2.2-0.6S542.2,376.7,542,376.1z"/>
				<path d="M549.2,376.1l1.8-0.3c0.1,0.3,0.2,0.6,0.5,0.8s0.6,0.3,1,0.3c0.5,0,0.8-0.1,1-0.3c0.2-0.1,0.2-0.3,0.2-0.5
					c0-0.1,0-0.2-0.1-0.3c-0.1-0.1-0.3-0.2-0.6-0.2c-1.4-0.3-2.4-0.6-2.7-0.9c-0.5-0.4-0.8-0.9-0.8-1.5c0-0.6,0.2-1.1,0.7-1.5
					c0.5-0.4,1.2-0.6,2.1-0.6c0.9,0,1.6,0.2,2.1,0.5c0.4,0.3,0.8,0.7,0.9,1.3l-1.7,0.3c-0.1-0.3-0.2-0.5-0.4-0.6
					c-0.2-0.1-0.5-0.2-0.9-0.2c-0.5,0-0.8,0.1-1,0.2c-0.1,0.1-0.2,0.2-0.2,0.4c0,0.1,0.1,0.2,0.2,0.3c0.2,0.1,0.7,0.3,1.7,0.5
					c0.9,0.2,1.6,0.5,2,0.8c0.4,0.3,0.6,0.8,0.6,1.3c0,0.6-0.3,1.1-0.8,1.6c-0.5,0.4-1.3,0.7-2.3,0.7c-0.9,0-1.6-0.2-2.2-0.6
					C549.7,377.2,549.4,376.7,549.2,376.1z"/>
			</g>
		</g>
	</g>
	<g transform="translate(-78,-30) scale(1,1)">
		<path class="st2" d="M287,325v26"/>
	</g>
	<g transform="translate(-78,-30) scale(1,1)">
		<path class="st4" d="M156,229v34"/>
	</g>
	<g transform="translate(-78,-30) scale(1,1)">
		<path class="st2" d="M151.8,252.8L156,263l4.2-10.2"/>
	</g>
	<g transform="translate(-78,-30) scale(1,1)">
		<path class="st4" d="M526,253l2,26"/>
	</g>
	<g transform="translate(-78,-30) scale(1,1)">
		<path class="st2" d="M523,269.2l5,9.8l3.4-10.5"/>
	</g>
	<g transform="translate(-78,-30) scale(1,1)">
		<path class="st4" d="M287,253l1,26"/>
	</g>
	<g transform="translate(-78,-30) scale(1,1)">
		<path class="st2" d="M283.4,269l4.6,10l3.8-10.3"/>
	</g>
	<g transform="translate(-78,-30) scale(1,1)">
		<path class="st2" d="M529,335l-1,24"/>
	</g>
	<g transform="translate(-78,-30) scale(1,1)">
		<path class="st4" d="M464,85l143,122"/>
	</g>
	<g transform="translate(-78,-30) scale(1,1)">
		<path class="st2" d="M596.5,203.6L607,207l-5-9.8"/>
	</g>
	<g transform="translate(-78,-30) scale(1,1)">
		<path class="st2" d="M136,263l-48-55l51-56"/>
	</g>
	<g transform="translate(-78,-30) scale(1,1)">
		<path class="st2" d="M197,119l202-48"/>
	</g>
	<g transform="translate(-78,-30) scale(1,1)">
		<path class="st4" d="M410,351v-26"/>
	</g>
	<g transform="translate(-78,-30) scale(1,1)">
		<path class="st2" d="M414.2,335.2L410,325l-4.2,10.2"/>
	</g>
	<g transform="translate(-78,-30) scale(1,1)">
		<path class="st4" d="M383,302h-53"/>
	</g>
	<g transform="translate(-78,-30) scale(1,1)">
		<path class="st2" d="M340.2,297.8L330,302l10.2,4.2"/>
	</g>
	<g transform="translate(-78,-30) scale(1,1)">
		<path class="st4" d="M227,351l33-26"/>
	</g>
	<g transform="translate(-78,-30) scale(1,1)">
		<path class="st2" d="M254.6,334.6l5.4-9.6l-10.6,3"/>
	</g>
	<g transform="translate(-78,-30) scale(1,1)">
		<path class="st2" d="M198,397v18"/>
	</g>
	<g transform="translate(-78,-30) scale(1,1)">
		<path class="st2" d="M679,325l-17,34"/>
	</g>
	<g transform="translate(-78,-30) scale(1,1)">
		<path class="st2" d="M617,325l20,34"/>
	</g>
	<g transform="translate(-78,-30) scale(1,1)">
		<path class="st4" d="M607,230h-43"/>
	</g>
	<g transform="translate(-78,-30) scale(1,1)">
		<path class="st2" d="M574.2,225.8L564,230l10.2,4.2"/>
	</g>
	<g transform="translate(-78,-30) scale(1,1)">
		<path class="st4" d="M399,81L194,186"/>
	</g>
	<g transform="translate(-78,-30) scale(1,1)">
		<path class="st2" d="M201.1,177.6L194,186l11-0.9"/>
	</g>
	<g transform="translate(-78,-30) scale(1,1)">
		<path class="st4" d="M416,85L308,207"/>
	</g>
	<g transform="translate(-78,-30) scale(1,1)">
		<path class="st2" d="M311.6,196.6L308,207l9.9-4.8"/>
	</g>
	<g transform="translate(-78,-30) scale(1,1)">
		<path class="st4" d="M624,253l-11,26"/>
	</g>
	<g transform="translate(-78,-30) scale(1,1)">
		<path class="st2" d="M613.1,268l-0.1,11l7.8-7.7"/>
	</g>
	<g transform="translate(-78,-30) scale(1,1)">
		<path class="st4" d="M652,253l20,26"/>
	</g>
	<g transform="translate(-78,-30) scale(1,1)">
		<path class="st2" d="M662.5,273.5l9.5,5.5l-2.9-10.6"/>
	</g>
</g>
</svg>
