<?xml version="1.0" encoding="utf-8"?>
<!-- Generator: Adobe Illustrator 25.0.0, SVG Export Plug-In . SVG Version: 6.00 Build 0)  -->
<svg version="1.1" id="Capa_1" xmlns="http://www.w3.org/2000/svg" xmlns:xlink="http://www.w3.org/1999/xlink" x="0px" y="0px"
	 viewBox="0 0 656.9 440" style="enable-background:new 0 0 656.9 440;" xml:space="preserve">
<style type="text/css">
	.st0{fill:#FFFFFF;stroke:#000000;stroke-miterlimit:10;}
	.st1{opacity:0.2;fill:#C0C0C0;enable-background:new    ;}
	.st2{fill:#FFFFFF;}
	.st3{fill:none;stroke:#000000;stroke-miterlimit:10;}
	.st4{enable-background:new    ;}
	.st5{fill:none;stroke:#000000;stroke-miterlimit:10;stroke-dasharray:3;}
</style>
<rect class="st0" width="656.9" height="440"/>
<g>
	<g transform="translate(-78,-30) scale(1,1)">
		<rect x="127" y="191" class="st1" width="73.3" height="44"/>
	</g>
	<g transform="translate(-78,-30) scale(1,1)">
		<rect x="120" y="184" class="st2" width="73.3" height="44"/>
	</g>
	<g transform="translate(-78,-30) scale(1,1)">
		<path class="st3" d="M120,184h73.3v44H120V184z"/>
	</g>
	<g transform="translate(-78,-30) scale(1,1)">
		<path class="st3" d="M120,209h73.3"/>
	</g>
	<g transform="translate(-78,-30) scale(1,1)">
		<path class="st3" d="M120,219h73.3"/>
	</g>
	<g transform="translate(-78,-30) scale(1,1)">
		<g>
			<path class="st3" d="M0,0"/>
			<g class="st4">
				<path d="M133.8,202h-2l-0.8-2.1h-3.7l-0.8,2.1h-2l3.6-9.3h2L133.8,202z M130.4,198.3l-1.3-3.5l-1.3,3.5H130.4z"/>
				<path d="M140.7,197.3l-1.8,0.3c-0.1-0.4-0.2-0.6-0.4-0.8s-0.5-0.3-0.8-0.3c-0.4,0-0.8,0.2-1.1,0.5s-0.4,0.8-0.4,1.5
					c0,0.8,0.1,1.4,0.4,1.7c0.3,0.3,0.6,0.5,1.1,0.5c0.3,0,0.6-0.1,0.8-0.3s0.4-0.5,0.5-1l1.8,0.3c-0.2,0.8-0.5,1.4-1,1.8
					c-0.5,0.4-1.2,0.6-2.1,0.6c-1,0-1.8-0.3-2.4-0.9c-0.6-0.6-0.9-1.5-0.9-2.6s0.3-2,0.9-2.6s1.4-0.9,2.4-0.9c0.8,0,1.5,0.2,2,0.5
					C140.1,196,140.5,196.5,140.7,197.3z"/>
				<path d="M145.1,195.3v1.4h-1.2v2.7c0,0.5,0,0.9,0,1s0.1,0.2,0.2,0.2c0.1,0.1,0.2,0.1,0.3,0.1c0.2,0,0.4-0.1,0.7-0.2l0.2,1.4
					c-0.4,0.2-0.9,0.3-1.4,0.3c-0.3,0-0.6-0.1-0.9-0.2c-0.3-0.1-0.4-0.2-0.6-0.4c-0.1-0.2-0.2-0.4-0.3-0.7c0-0.2-0.1-0.6-0.1-1.3
					v-2.9h-0.8v-1.4h0.8V194l1.8-1v2.4h1.3V195.3z"/>
				<path d="M145.9,199l1.8-0.2c0.1,0.6,0.3,1.1,0.7,1.4c0.3,0.3,0.8,0.4,1.4,0.4c0.6,0,1.1-0.1,1.4-0.4c0.3-0.3,0.5-0.6,0.5-0.9
					c0-0.2-0.1-0.4-0.2-0.6c-0.1-0.2-0.4-0.3-0.7-0.4c-0.2-0.1-0.7-0.2-1.5-0.4c-1-0.2-1.7-0.6-2.1-0.9c-0.6-0.5-0.9-1.1-0.9-1.9
					c0-0.5,0.1-0.9,0.4-1.3c0.3-0.4,0.7-0.7,1.2-0.9s1.1-0.3,1.8-0.3c1.2,0,2,0.3,2.6,0.8s0.9,1.2,0.9,2l-1.9,0.1
					c-0.1-0.5-0.3-0.8-0.5-1c-0.3-0.2-0.7-0.3-1.2-0.3s-1,0.1-1.3,0.3c-0.2,0.1-0.3,0.3-0.3,0.6c0,0.2,0.1,0.4,0.3,0.6
					c0.2,0.2,0.8,0.4,1.7,0.6c0.9,0.2,1.6,0.4,2,0.7c0.4,0.2,0.8,0.5,1,0.9s0.4,0.9,0.4,1.5c0,0.5-0.1,1-0.4,1.5
					c-0.3,0.5-0.7,0.8-1.3,1s-1.2,0.3-2,0.3c-1.2,0-2.1-0.3-2.7-0.8S146,200,145.9,199z"/>
				<path d="M159,199.9l1.8,0.3c-0.2,0.7-0.6,1.1-1.1,1.5c-0.5,0.3-1.1,0.5-1.9,0.5c-1.2,0-2-0.4-2.6-1.1c-0.4-0.6-0.7-1.4-0.7-2.3
					c0-1.1,0.3-2,0.9-2.6s1.3-0.9,2.2-0.9c1,0,1.8,0.3,2.4,1s0.9,1.7,0.8,3h-4.5c0,0.5,0.2,0.9,0.4,1.2s0.6,0.4,1,0.4
					c0.3,0,0.5-0.1,0.7-0.2S158.9,200.2,159,199.9z M159.1,198.1c0-0.5-0.1-0.9-0.4-1.2s-0.6-0.4-0.9-0.4c-0.4,0-0.7,0.1-1,0.4
					s-0.4,0.7-0.4,1.2H159.1z"/>
				<path d="M164,202h-1.8v-6.7h1.7v1c0.3-0.5,0.5-0.8,0.8-0.9c0.2-0.1,0.5-0.2,0.8-0.2c0.4,0,0.8,0.1,1.2,0.3L166,197
					c-0.3-0.2-0.6-0.3-0.8-0.3s-0.5,0.1-0.6,0.2s-0.3,0.4-0.4,0.7c-0.1,0.4-0.1,1.1-0.1,2.3L164,202L164,202z"/>
				<path d="M169.2,202l-2.7-6.7h1.9l1.3,3.4l0.4,1.1c0.1-0.3,0.2-0.5,0.2-0.6c0.1-0.2,0.1-0.4,0.2-0.6l1.3-3.4h1.8l-2.7,6.7h-1.7
					V202z"/>
				<path d="M174.6,202v-9.3h1.8v9.3H174.6z"/>
				<path d="M182.1,199.9l1.8,0.3c-0.2,0.7-0.6,1.1-1.1,1.5c-0.5,0.3-1.1,0.5-1.9,0.5c-1.2,0-2-0.4-2.6-1.1
					c-0.4-0.6-0.7-1.4-0.7-2.3c0-1.1,0.3-2,0.9-2.6s1.3-0.9,2.2-0.9c1,0,1.8,0.3,2.4,1s0.9,1.7,0.8,3h-4.5c0,0.5,0.2,0.9,0.4,1.2
					s0.6,0.4,1,0.4c0.3,0,0.5-0.1,0.7-0.2S182,200.2,182.1,199.9z M182.2,198.1c0-0.5-0.1-0.9-0.4-1.2s-0.6-0.4-0.9-0.4
					c-0.4,0-0.7,0.1-1,0.4s-0.4,0.7-0.4,1.2H182.2z"/>
				<path d="M188.5,195.3v1.4h-1.2v2.7c0,0.5,0,0.9,0,1s0.1,0.2,0.2,0.2c0.1,0.1,0.2,0.1,0.3,0.1c0.2,0,0.4-0.1,0.7-0.2l0.2,1.4
					c-0.4,0.2-0.9,0.3-1.4,0.3c-0.3,0-0.6-0.1-0.9-0.2c-0.3-0.1-0.4-0.2-0.6-0.4c-0.1-0.2-0.2-0.4-0.3-0.7c0-0.2-0.1-0.6-0.1-1.3
					v-2.9h-0.8v-1.4h0.8V194l1.8-1v2.4h1.3V195.3z"/>
			</g>
		</g>
	</g>
	<g transform="translate(-78,-30) scale(1,1)">
		<rect x="575" y="215" class="st1" width="75.5" height="44"/>
	</g>
	<g transform="translate(-78,-30) scale(1,1)">
		<rect x="568" y="208" class="st2" width="75.5" height="44"/>
	</g>
	<g transform="translate(-78,-30) scale(1,1)">
		<path class="st3" d="M568,208h75.5v44H568V208z"/>
	</g>
	<g transform="translate(-78,-30) scale(1,1)">
		<path class="st3" d="M568,233h75.5"/>
	</g>
	<g transform="translate(-78,-30) scale(1,1)">
		<path class="st3" d="M568,243h75.5"/>
	</g>
	<g transform="translate(-78,-30) scale(1,1)">
		<g>
			<path class="st3" d="M0,0"/>
			<g class="st4">
				<path d="M573.5,226v-9.2h1.9v7.7h4.7v1.6h-6.6V226z"/>
				<path d="M581.4,218.3v-1.7h1.8v1.7H581.4z M581.4,226v-6.7h1.8v6.7H581.4z"/>
				<path d="M584.4,224.1l1.8-0.3c0.1,0.3,0.2,0.6,0.5,0.8c0.2,0.2,0.6,0.3,1,0.3c0.5,0,0.8-0.1,1-0.3c0.2-0.1,0.2-0.3,0.2-0.5
					c0-0.1,0-0.2-0.1-0.3s-0.3-0.2-0.6-0.2c-1.4-0.3-2.4-0.6-2.7-0.9c-0.5-0.4-0.8-0.9-0.8-1.5s0.2-1.1,0.7-1.5s1.2-0.6,2.1-0.6
					c0.9,0,1.6,0.2,2.1,0.5c0.4,0.3,0.8,0.7,0.9,1.3l-1.7,0.3c-0.1-0.3-0.2-0.5-0.4-0.6s-0.5-0.2-0.9-0.2c-0.5,0-0.8,0.1-1,0.2
					c-0.1,0.1-0.2,0.2-0.2,0.4c0,0.1,0.1,0.2,0.2,0.3c0.2,0.1,0.7,0.3,1.7,0.5s1.6,0.5,2,0.8s0.6,0.8,0.6,1.3c0,0.6-0.3,1.1-0.8,1.6
					c-0.5,0.4-1.3,0.7-2.3,0.7c-0.9,0-1.6-0.2-2.2-0.6S584.5,224.7,584.4,224.1z"/>
				<path d="M595.3,219.3v1.4h-1.2v2.7c0,0.5,0,0.9,0,1s0.1,0.2,0.2,0.2c0.1,0.1,0.2,0.1,0.3,0.1c0.2,0,0.4-0.1,0.7-0.2l0.2,1.4
					c-0.4,0.2-0.9,0.3-1.4,0.3c-0.3,0-0.6-0.1-0.9-0.2c-0.3-0.1-0.4-0.2-0.6-0.4c-0.1-0.2-0.2-0.4-0.2-0.7c0-0.2-0.1-0.6-0.1-1.3
					v-2.9h-0.8v-1.4h0.8V218l1.8-1v2.4h1.2V219.3z"/>
				<path d="M596.1,223l1.8-0.2c0.1,0.6,0.3,1.1,0.7,1.4c0.3,0.3,0.8,0.4,1.4,0.4c0.6,0,1.1-0.1,1.4-0.4s0.5-0.6,0.5-0.9
					c0-0.2-0.1-0.4-0.2-0.6c-0.1-0.2-0.4-0.3-0.7-0.4c-0.2-0.1-0.7-0.2-1.5-0.4c-1-0.2-1.7-0.6-2.1-0.9c-0.6-0.5-0.9-1.1-0.9-1.9
					c0-0.5,0.1-0.9,0.4-1.3c0.3-0.4,0.7-0.7,1.2-0.9s1.1-0.3,1.8-0.3c1.2,0,2,0.3,2.6,0.8s0.9,1.2,0.9,2l-1.9,0.1
					c-0.1-0.5-0.3-0.8-0.5-1c-0.3-0.2-0.7-0.3-1.2-0.3s-1,0.1-1.3,0.3c-0.2,0.1-0.3,0.3-0.3,0.6c0,0.2,0.1,0.4,0.3,0.6
					c0.2,0.2,0.8,0.4,1.7,0.6c0.9,0.2,1.6,0.4,2,0.7s0.8,0.5,1,0.9s0.4,0.9,0.4,1.5c0,0.5-0.1,1-0.4,1.5c-0.3,0.5-0.7,0.8-1.3,1
					c-0.5,0.2-1.2,0.3-2,0.3c-1.2,0-2.1-0.3-2.7-0.8C596.6,224.8,596.2,224,596.1,223z"/>
				<path d="M609.1,223.9l1.8,0.3c-0.2,0.7-0.6,1.1-1.1,1.5c-0.5,0.3-1.1,0.5-1.8,0.5c-1.2,0-2-0.4-2.6-1.1
					c-0.4-0.6-0.7-1.4-0.7-2.3c0-1.1,0.3-2,0.9-2.6s1.3-0.9,2.2-0.9c1,0,1.8,0.3,2.4,1c0.6,0.7,0.9,1.7,0.8,3h-4.5
					c0,0.5,0.2,0.9,0.4,1.2s0.6,0.4,1,0.4c0.3,0,0.5-0.1,0.7-0.2C608.9,224.4,609,224.2,609.1,223.9z M609.2,222.1
					c0-0.5-0.1-0.9-0.4-1.2s-0.6-0.4-0.9-0.4c-0.4,0-0.7,0.1-1,0.4s-0.4,0.7-0.4,1.2H609.2z"/>
				<path d="M614.2,226h-1.8v-6.7h1.7v1c0.3-0.5,0.5-0.8,0.8-0.9s0.5-0.2,0.8-0.2c0.4,0,0.8,0.1,1.2,0.3l-0.6,1.6
					c-0.3-0.2-0.6-0.3-0.8-0.3s-0.5,0.1-0.6,0.2s-0.3,0.4-0.4,0.7s-0.1,1.1-0.1,2.3v2H614.2z"/>
				<path d="M619.4,226l-2.7-6.7h1.9l1.3,3.4l0.4,1.1c0.1-0.3,0.2-0.5,0.2-0.6c0.1-0.2,0.1-0.4,0.2-0.6l1.3-3.4h1.8L621,226H619.4z"
					/>
				<path d="M624.7,226v-9.3h1.8v9.3H624.7z"/>
				<path d="M632.2,223.9l1.8,0.3c-0.2,0.7-0.6,1.1-1.1,1.5c-0.5,0.3-1.1,0.5-1.8,0.5c-1.2,0-2-0.4-2.6-1.1
					c-0.4-0.6-0.7-1.4-0.7-2.3c0-1.1,0.3-2,0.9-2.6s1.3-0.9,2.2-0.9c1,0,1.8,0.3,2.4,1c0.6,0.7,0.9,1.7,0.8,3h-4.5
					c0,0.5,0.2,0.9,0.4,1.2s0.6,0.4,1,0.4c0.3,0,0.5-0.1,0.7-0.2C632,224.4,632.2,224.2,632.2,223.9z M632.4,222.1
					c0-0.5-0.1-0.9-0.4-1.2s-0.6-0.4-0.9-0.4c-0.4,0-0.7,0.1-1,0.4s-0.4,0.7-0.4,1.2H632.4z"/>
				<path d="M638.7,219.3v1.4h-1.2v2.7c0,0.5,0,0.9,0,1s0.1,0.2,0.2,0.2c0.1,0.1,0.2,0.1,0.3,0.1c0.2,0,0.4-0.1,0.7-0.2l0.2,1.4
					c-0.4,0.2-0.9,0.3-1.4,0.3c-0.3,0-0.6-0.1-0.9-0.2c-0.3-0.1-0.4-0.2-0.6-0.4c-0.1-0.2-0.2-0.4-0.2-0.7c0-0.2-0.1-0.6-0.1-1.3
					v-2.9h-0.8v-1.4h0.8V218l1.8-1v2.4h1.2V219.3z"/>
			</g>
		</g>
	</g>
	<g transform="translate(-78,-30) scale(1,1)">
		<rect x="255" y="215" class="st1" width="78.4" height="44"/>
	</g>
	<g transform="translate(-78,-30) scale(1,1)">
		<rect x="248" y="208" class="st2" width="78.4" height="44"/>
	</g>
	<g transform="translate(-78,-30) scale(1,1)">
		<path class="st3" d="M248,208h78.4v44H248V208z"/>
	</g>
	<g transform="translate(-78,-30) scale(1,1)">
		<path class="st3" d="M248,233h78.4"/>
	</g>
	<g transform="translate(-78,-30) scale(1,1)">
		<path class="st3" d="M248,243h78.4"/>
	</g>
	<g transform="translate(-78,-30) scale(1,1)">
		<g>
			<path class="st3" d="M0,0"/>
			<g class="st4">
				<path d="M253.4,226v-9.3h2.8l1.7,6.3l1.7-6.3h2.8v9.3h-1.7v-7.3l-1.8,7.3H257l-1.8-7.3v7.3H253.4z"/>
				<path d="M265.6,221.3L264,221c0.2-0.7,0.5-1.1,0.9-1.4s1.1-0.5,2-0.5c0.8,0,1.4,0.1,1.8,0.3s0.7,0.4,0.8,0.7
					c0.2,0.3,0.2,0.8,0.2,1.6v2.1c0,0.6,0,1,0.1,1.3s0.2,0.6,0.3,0.9h-1.8c0-0.1-0.1-0.3-0.2-0.5c0-0.1-0.1-0.2-0.1-0.2
					c-0.3,0.3-0.6,0.5-1,0.7c-0.3,0.1-0.7,0.2-1.1,0.2c-0.7,0-1.2-0.2-1.6-0.6c-0.4-0.4-0.6-0.9-0.6-1.4c0-0.4,0.1-0.7,0.3-1
					c0.2-0.3,0.4-0.5,0.8-0.7c0.3-0.2,0.8-0.3,1.4-0.4c0.8-0.2,1.4-0.3,1.7-0.4v-0.2c0-0.3-0.1-0.6-0.3-0.7c-0.2-0.1-0.5-0.2-1-0.2
					c-0.3,0-0.6,0.1-0.7,0.2S265.7,221,265.6,221.3z M268,222.8c-0.2,0.1-0.6,0.2-1.1,0.3s-0.8,0.2-1,0.3c-0.2,0.2-0.3,0.4-0.3,0.6
					c0,0.2,0.1,0.5,0.3,0.6c0.2,0.2,0.4,0.3,0.7,0.3c0.3,0,0.6-0.1,0.9-0.3c0.2-0.2,0.4-0.4,0.4-0.6c0-0.2,0.1-0.4,0.1-0.9V222.8z"
					/>
				<path d="M271.4,219.3h1.7v1c0.2-0.3,0.5-0.6,0.9-0.8s0.8-0.3,1.2-0.3c0.8,0,1.4,0.3,2,0.9c0.5,0.6,0.8,1.5,0.8,2.6
					s-0.3,2-0.8,2.6s-1.2,0.9-2,0.9c-0.4,0-0.7-0.1-1-0.2c-0.3-0.1-0.6-0.4-1-0.8v3.4h-1.8L271.4,219.3L271.4,219.3z M273.2,222.5
					c0,0.8,0.2,1.3,0.5,1.7s0.7,0.5,1.1,0.5s0.8-0.2,1-0.5s0.4-0.9,0.4-1.6c0-0.7-0.1-1.2-0.4-1.6c-0.3-0.3-0.6-0.5-1.1-0.5
					c-0.4,0-0.8,0.2-1.1,0.5C273.4,221.4,273.2,221.9,273.2,222.5z"/>
				<path d="M279,223l1.8-0.2c0.1,0.6,0.3,1.1,0.7,1.4c0.3,0.3,0.8,0.4,1.4,0.4s1.1-0.1,1.4-0.4c0.3-0.3,0.5-0.6,0.5-0.9
					c0-0.2-0.1-0.4-0.2-0.6c-0.1-0.2-0.4-0.3-0.7-0.4c-0.2-0.1-0.7-0.2-1.5-0.4c-1-0.2-1.7-0.6-2.1-0.9c-0.6-0.5-0.9-1.1-0.9-1.9
					c0-0.5,0.1-0.9,0.4-1.3c0.3-0.4,0.7-0.7,1.2-0.9s1.1-0.3,1.8-0.3c1.2,0,2,0.3,2.6,0.8s0.9,1.2,0.9,2l-1.9,0.1
					c-0.1-0.5-0.3-0.8-0.5-1c-0.3-0.2-0.7-0.3-1.2-0.3s-1,0.1-1.3,0.3c-0.2,0.1-0.3,0.3-0.3,0.6c0,0.2,0.1,0.4,0.3,0.6
					c0.2,0.2,0.8,0.4,1.7,0.6c0.9,0.2,1.6,0.4,2,0.7c0.4,0.2,0.8,0.5,1,0.9s0.4,0.9,0.4,1.5c0,0.5-0.1,1-0.4,1.5s-0.7,0.8-1.3,1
					s-1.2,0.3-2,0.3c-1.2,0-2.1-0.3-2.7-0.8S279.1,224,279,223z"/>
				<path d="M292,223.9l1.8,0.3c-0.2,0.7-0.6,1.1-1.1,1.5c-0.5,0.3-1.1,0.5-1.9,0.5c-1.2,0-2-0.4-2.6-1.1c-0.4-0.6-0.7-1.4-0.7-2.3
					c0-1.1,0.3-2,0.9-2.6s1.3-0.9,2.2-0.9c1,0,1.8,0.3,2.4,1s0.9,1.7,0.8,3h-4.5c0,0.5,0.2,0.9,0.4,1.2s0.6,0.4,1,0.4
					c0.3,0,0.5-0.1,0.7-0.2S291.9,224.2,292,223.9z M292.1,222.1c0-0.5-0.1-0.9-0.4-1.2s-0.6-0.4-0.9-0.4c-0.4,0-0.7,0.1-1,0.4
					s-0.4,0.7-0.4,1.2H292.1z"/>
				<path d="M297,226h-1.8v-6.7h1.7v1c0.3-0.5,0.5-0.8,0.8-0.9c0.2-0.1,0.5-0.2,0.8-0.2c0.4,0,0.8,0.1,1.2,0.3l-0.6,1.6
					c-0.3-0.2-0.6-0.3-0.8-0.3c-0.2,0-0.5,0.1-0.6,0.2s-0.3,0.4-0.4,0.7c-0.1,0.4-0.1,1.1-0.1,2.3v2H297z"/>
				<path d="M302.2,226l-2.7-6.7h1.9l1.3,3.4l0.4,1.1c0.1-0.3,0.2-0.5,0.2-0.6c0.1-0.2,0.1-0.4,0.2-0.6l1.3-3.4h1.8l-2.7,6.7h-1.7
					V226z"/>
				<path d="M307.6,226v-9.3h1.8v9.3H307.6z"/>
				<path d="M315.1,223.9l1.8,0.3c-0.2,0.7-0.6,1.1-1.1,1.5c-0.5,0.3-1.1,0.5-1.9,0.5c-1.2,0-2-0.4-2.6-1.1
					c-0.4-0.6-0.7-1.4-0.7-2.3c0-1.1,0.3-2,0.9-2.6s1.3-0.9,2.2-0.9c1,0,1.8,0.3,2.4,1s0.9,1.7,0.8,3h-4.5c0,0.5,0.2,0.9,0.4,1.2
					s0.6,0.4,1,0.4c0.3,0,0.5-0.1,0.7-0.2S315,224.2,315.1,223.9z M315.2,222.1c0-0.5-0.1-0.9-0.4-1.2s-0.6-0.4-0.9-0.4
					c-0.4,0-0.7,0.1-1,0.4s-0.4,0.7-0.4,1.2H315.2z"/>
				<path d="M321.6,219.3v1.4h-1.2v2.7c0,0.5,0,0.9,0,1s0.1,0.2,0.2,0.2c0.1,0.1,0.2,0.1,0.3,0.1c0.2,0,0.4-0.1,0.7-0.2l0.2,1.4
					c-0.4,0.2-0.9,0.3-1.4,0.3c-0.3,0-0.6-0.1-0.9-0.2c-0.3-0.1-0.4-0.2-0.6-0.4c-0.1-0.2-0.2-0.4-0.3-0.7c0-0.2-0.1-0.6-0.1-1.3
					v-2.9h-0.8v-1.4h0.8V218l1.8-1v2.4h1.3V219.3z"/>
			</g>
		</g>
	</g>
	<g transform="translate(-78,-30) scale(1,1)">
		<rect x="423" y="127" class="st1" width="52.4" height="44"/>
	</g>
	<g transform="translate(-78,-30) scale(1,1)">
		<rect x="416" y="120" class="st2" width="52.4" height="44"/>
	</g>
	<g transform="translate(-78,-30) scale(1,1)">
		<path class="st3" d="M416,120h52.4v44H416V120z"/>
	</g>
	<g transform="translate(-78,-30) scale(1,1)">
		<path class="st3" d="M416,145h52.4"/>
	</g>
	<g transform="translate(-78,-30) scale(1,1)">
		<path class="st3" d="M416,155h52.4"/>
	</g>
	<g transform="translate(-78,-30) scale(1,1)">
		<g>
			<path class="st3" d="M0,0"/>
			<g class="st4">
				<path d="M421,135l1.8-0.2c0.1,0.6,0.3,1.1,0.7,1.4c0.3,0.3,0.8,0.4,1.4,0.4s1.1-0.1,1.4-0.4s0.5-0.6,0.5-0.9
					c0-0.2-0.1-0.4-0.2-0.6c-0.1-0.2-0.4-0.3-0.7-0.4c-0.2-0.1-0.7-0.2-1.5-0.4c-1-0.2-1.7-0.6-2.1-0.9c-0.6-0.5-0.9-1.1-0.9-1.9
					c0-0.5,0.1-0.9,0.4-1.3c0.3-0.4,0.7-0.7,1.2-0.9s1.1-0.3,1.8-0.3c1.2,0,2,0.3,2.6,0.8s0.9,1.2,0.9,2l-1.9,0.1
					c-0.1-0.5-0.3-0.8-0.5-1c-0.3-0.2-0.7-0.3-1.2-0.3s-1,0.1-1.3,0.3c-0.2,0.1-0.3,0.3-0.3,0.6c0,0.2,0.1,0.4,0.3,0.6
					c0.2,0.2,0.8,0.4,1.7,0.6c0.9,0.2,1.6,0.4,2,0.7c0.4,0.2,0.8,0.5,1,0.9s0.4,0.9,0.4,1.5c0,0.5-0.1,1-0.4,1.5s-0.7,0.8-1.3,1
					s-1.2,0.3-2,0.3c-1.2,0-2.1-0.3-2.7-0.8S421.1,136,421,135z"/>
				<path d="M434,135.9l1.8,0.3c-0.2,0.7-0.6,1.1-1.1,1.5c-0.5,0.3-1.1,0.5-1.9,0.5c-1.2,0-2-0.4-2.6-1.1c-0.4-0.6-0.7-1.4-0.7-2.3
					c0-1.1,0.3-2,0.9-2.6s1.3-0.9,2.2-0.9c1,0,1.8,0.3,2.4,1s0.9,1.7,0.8,3h-4.5c0,0.5,0.2,0.9,0.4,1.2c0.3,0.3,0.6,0.4,1,0.4
					c0.3,0,0.5-0.1,0.7-0.2S433.9,136.2,434,135.9z M434.1,134.1c0-0.5-0.1-0.9-0.4-1.2s-0.6-0.4-0.9-0.4c-0.4,0-0.7,0.1-1,0.4
					s-0.4,0.7-0.4,1.2H434.1z"/>
				<path d="M439,138h-1.8v-6.7h1.7v1c0.3-0.5,0.5-0.8,0.8-0.9s0.5-0.2,0.8-0.2c0.4,0,0.8,0.1,1.2,0.3l-0.6,1.6
					c-0.3-0.2-0.6-0.3-0.8-0.3c-0.2,0-0.5,0.1-0.6,0.2c-0.2,0.1-0.3,0.4-0.4,0.7c-0.1,0.4-0.2,1.1-0.2,2.3v2H439z"/>
				<path d="M444.2,138l-2.7-6.7h1.9l1.3,3.4l0.4,1.1c0.1-0.3,0.2-0.5,0.2-0.6c0.1-0.2,0.1-0.4,0.2-0.6l1.3-3.4h1.8l-2.7,6.7h-1.7
					V138z"/>
				<path d="M449.6,138v-9.3h1.8v9.3H449.6z"/>
				<path d="M457.1,135.9l1.8,0.3c-0.2,0.7-0.6,1.1-1.1,1.5c-0.5,0.3-1.1,0.5-1.9,0.5c-1.2,0-2-0.4-2.6-1.1
					c-0.4-0.6-0.7-1.4-0.7-2.3c0-1.1,0.3-2,0.9-2.6s1.3-0.9,2.2-0.9c1,0,1.8,0.3,2.4,1s0.9,1.7,0.8,3h-4.5c0,0.5,0.2,0.9,0.4,1.2
					c0.3,0.3,0.6,0.4,1,0.4c0.3,0,0.5-0.1,0.7-0.2S457,136.2,457.1,135.9z M457.2,134.1c0-0.5-0.1-0.9-0.4-1.2s-0.6-0.4-0.9-0.4
					c-0.4,0-0.7,0.1-1,0.4s-0.4,0.7-0.4,1.2H457.2z"/>
				<path d="M463.6,131.3v1.4h-1.2v2.7c0,0.5,0,0.9,0,1s0.1,0.2,0.2,0.2c0.1,0.1,0.2,0.1,0.3,0.1c0.2,0,0.4-0.1,0.7-0.2l0.2,1.4
					c-0.4,0.2-0.9,0.3-1.4,0.3c-0.3,0-0.6-0.1-0.9-0.2c-0.3-0.1-0.4-0.2-0.6-0.4c-0.1-0.2-0.2-0.4-0.3-0.7c0-0.2-0.1-0.6-0.1-1.3
					v-2.9h-0.8v-1.4h0.8V130l1.8-1v2.4h1.3V131.3z"/>
			</g>
		</g>
	</g>
	<g transform="translate(-78,-30) scale(1,1)">
		<rect x="127" y="271" class="st1" width="72" height="44"/>
	</g>
	<g transform="translate(-78,-30) scale(1,1)">
		<rect x="120" y="264" class="st2" width="72" height="44"/>
	</g>
	<g transform="translate(-78,-30) scale(1,1)">
		<path class="st3" d="M120,264h72v44h-72V264z"/>
	</g>
	<g transform="translate(-78,-30) scale(1,1)">
		<path class="st3" d="M120,289h72"/>
	</g>
	<g transform="translate(-78,-30) scale(1,1)">
		<path class="st3" d="M120,299h72"/>
	</g>
	<g transform="translate(-78,-30) scale(1,1)">
		<g>
			<path class="st3" d="M0,0"/>
			<g class="st4">
				<path d="M137.7,277.3l-1.6-0.3c0.2-0.7,0.5-1.1,0.9-1.4s1.1-0.5,2-0.5c0.8,0,1.4,0.1,1.8,0.3s0.7,0.4,0.8,0.7
					c0.2,0.3,0.2,0.8,0.2,1.6v2.1c0,0.6,0,1,0.1,1.3s0.2,0.6,0.3,0.9h-1.8c0-0.1-0.1-0.3-0.2-0.5c0-0.1-0.1-0.2-0.1-0.2
					c-0.3,0.3-0.6,0.5-1,0.7c-0.3,0.1-0.7,0.2-1.1,0.2c-0.7,0-1.2-0.2-1.6-0.6c-0.4-0.4-0.6-0.9-0.6-1.4c0-0.4,0.1-0.7,0.3-1
					s0.4-0.5,0.8-0.7c0.3-0.2,0.8-0.3,1.4-0.4c0.8-0.2,1.4-0.3,1.7-0.4v-0.2c0-0.3-0.1-0.6-0.3-0.7s-0.5-0.2-1-0.2
					c-0.3,0-0.6,0.1-0.7,0.2S137.8,277,137.7,277.3z M140.1,278.8c-0.2,0.1-0.6,0.2-1.1,0.3c-0.5,0.1-0.8,0.2-1,0.3
					c-0.2,0.2-0.3,0.4-0.3,0.6s0.1,0.5,0.3,0.6c0.2,0.2,0.4,0.3,0.7,0.3s0.6-0.1,0.9-0.3c0.2-0.2,0.4-0.4,0.4-0.6s0.1-0.4,0.1-0.9
					L140.1,278.8L140.1,278.8z"/>
				<path d="M149.4,277.3l-1.8,0.3c-0.1-0.4-0.2-0.6-0.4-0.8c-0.2-0.2-0.5-0.3-0.8-0.3c-0.4,0-0.8,0.2-1.1,0.5s-0.4,0.8-0.4,1.5
					c0,0.8,0.1,1.4,0.4,1.7c0.3,0.3,0.6,0.5,1.1,0.5c0.3,0,0.6-0.1,0.8-0.3s0.4-0.5,0.5-1l1.8,0.3c-0.2,0.8-0.5,1.4-1,1.8
					s-1.2,0.6-2.1,0.6c-1,0-1.8-0.3-2.4-0.9c-0.6-0.6-0.9-1.5-0.9-2.6s0.3-2,0.9-2.6s1.4-0.9,2.4-0.9c0.8,0,1.5,0.2,2,0.5
					C148.9,276,149.2,276.5,149.4,277.3z"/>
				<path d="M153.9,275.3v1.4h-1.2v2.7c0,0.5,0,0.9,0,1s0.1,0.2,0.2,0.2c0.1,0.1,0.2,0.1,0.3,0.1c0.2,0,0.4-0.1,0.7-0.2l0.2,1.4
					c-0.4,0.2-0.9,0.3-1.4,0.3c-0.3,0-0.6-0.1-0.9-0.2c-0.3-0.1-0.4-0.2-0.6-0.4c-0.1-0.2-0.2-0.4-0.3-0.7c0-0.2-0.1-0.6-0.1-1.3
					v-2.9H150v-1.4h0.8V274l1.8-1v2.4h1.3V275.3z"/>
				<path d="M155.1,282v-1.8h1.8v1.8H155.1z"/>
				<path d="M160.5,275.3v6.5c0,0.9-0.1,1.5-0.2,1.8c-0.1,0.4-0.3,0.6-0.6,0.8c-0.3,0.2-0.7,0.3-1.2,0.3c-0.2,0-0.4,0-0.6,0
					c-0.2,0-0.4-0.1-0.7-0.1l0.3-1.5c0.1,0,0.2,0,0.2,0c0.1,0,0.1,0,0.2,0c0.2,0,0.3,0,0.4-0.1c0.1-0.1,0.2-0.2,0.2-0.3
					c0-0.1,0.1-0.4,0.1-1v-6.4L160.5,275.3L160.5,275.3z M158.7,274.3v-1.7h1.8v1.7H158.7z"/>
				<path d="M161.7,280.1l1.8-0.3c0.1,0.3,0.2,0.6,0.5,0.8s0.6,0.3,1,0.3c0.5,0,0.8-0.1,1-0.3c0.2-0.1,0.2-0.3,0.2-0.5
					c0-0.1,0-0.2-0.1-0.3c-0.1-0.1-0.3-0.2-0.6-0.2c-1.4-0.3-2.4-0.6-2.7-0.9c-0.5-0.4-0.8-0.9-0.8-1.5s0.2-1.1,0.7-1.5
					s1.2-0.6,2.1-0.6c0.9,0,1.6,0.2,2.1,0.5c0.4,0.3,0.8,0.7,0.9,1.3l-1.7,0.3c-0.1-0.3-0.2-0.5-0.4-0.6s-0.5-0.2-0.9-0.2
					c-0.5,0-0.8,0.1-1,0.2c-0.1,0.1-0.2,0.2-0.2,0.4c0,0.1,0.1,0.2,0.2,0.3c0.2,0.1,0.7,0.3,1.7,0.5s1.6,0.5,2,0.8s0.6,0.8,0.6,1.3
					c0,0.6-0.3,1.1-0.8,1.6c-0.5,0.4-1.3,0.7-2.3,0.7c-0.9,0-1.6-0.2-2.2-0.6C162.2,281.2,161.9,280.7,161.7,280.1z"/>
				<path d="M169.5,275.3h1.7v1c0.2-0.3,0.5-0.6,0.9-0.8s0.8-0.3,1.2-0.3c0.8,0,1.4,0.3,2,0.9c0.5,0.6,0.8,1.5,0.8,2.6
					s-0.3,2-0.8,2.6s-1.2,0.9-2,0.9c-0.4,0-0.7-0.1-1-0.2s-0.6-0.4-1-0.8v3.4h-1.8L169.5,275.3L169.5,275.3z M171.3,278.5
					c0,0.8,0.2,1.3,0.5,1.7c0.3,0.4,0.7,0.5,1.1,0.5c0.4,0,0.8-0.2,1-0.5s0.4-0.9,0.4-1.6s-0.1-1.2-0.4-1.6
					c-0.3-0.3-0.6-0.5-1.1-0.5c-0.4,0-0.8,0.2-1.1,0.5C171.4,277.4,171.3,277.9,171.3,278.5z"/>
			</g>
		</g>
	</g>
	<g transform="translate(-78,-30) scale(1,1)">
		<rect x="255" y="287" class="st1" width="80.5" height="44"/>
	</g>
	<g transform="translate(-78,-30) scale(1,1)">
		<rect x="248" y="280" class="st2" width="80.5" height="44"/>
	</g>
	<g transform="translate(-78,-30) scale(1,1)">
		<path class="st3" d="M248,280h80.5v44H248V280z"/>
	</g>
	<g transform="translate(-78,-30) scale(1,1)">
		<path class="st3" d="M248,305h80.5"/>
	</g>
	<g transform="translate(-78,-30) scale(1,1)">
		<path class="st3" d="M248,315h80.5"/>
	</g>
	<g transform="translate(-78,-30) scale(1,1)">
		<g>
			<path class="st3" d="M0,0"/>
			<g class="st4">
				<path d="M257.3,295.9l1.8,0.3c-0.2,0.7-0.6,1.1-1.1,1.5c-0.5,0.3-1.1,0.5-1.9,0.5c-1.2,0-2-0.4-2.6-1.1
					c-0.4-0.6-0.7-1.4-0.7-2.3c0-1.1,0.3-2,0.9-2.6s1.3-0.9,2.2-0.9c1,0,1.8,0.3,2.4,1s0.9,1.7,0.8,3h-4.5c0,0.5,0.2,0.9,0.4,1.2
					s0.6,0.4,1,0.4c0.3,0,0.5-0.1,0.7-0.2S257.2,296.2,257.3,295.9z M257.4,294.1c0-0.5-0.1-0.9-0.4-1.2s-0.6-0.4-0.9-0.4
					c-0.4,0-0.7,0.1-1,0.4s-0.4,0.7-0.4,1.2H257.4z"/>
				<path d="M266.5,293.3l-1.8,0.3c-0.1-0.4-0.2-0.6-0.4-0.8c-0.2-0.2-0.5-0.3-0.8-0.3c-0.4,0-0.8,0.2-1.1,0.5
					c-0.3,0.3-0.4,0.8-0.4,1.5c0,0.8,0.1,1.4,0.4,1.7c0.3,0.3,0.6,0.5,1.1,0.5c0.3,0,0.6-0.1,0.8-0.3s0.4-0.5,0.5-1l1.8,0.3
					c-0.2,0.8-0.5,1.4-1,1.8s-1.2,0.6-2.1,0.6c-1,0-1.8-0.3-2.4-0.9s-0.9-1.5-0.9-2.6s0.3-2,0.9-2.6s1.4-0.9,2.4-0.9
					c0.8,0,1.5,0.2,2,0.5C266,292,266.3,292.5,266.5,293.3z"/>
				<path d="M267.5,294.5c0-0.6,0.1-1.2,0.4-1.7c0.3-0.6,0.7-1,1.2-1.3s1.1-0.4,1.8-0.4c1,0,1.9,0.3,2.5,1s1,1.5,1,2.5
					s-0.3,1.9-1,2.5c-0.7,0.7-1.5,1-2.5,1c-0.6,0-1.2-0.1-1.8-0.4c-0.6-0.3-1-0.7-1.3-1.2C267.6,296,267.5,295.3,267.5,294.5z
					 M269.3,294.6c0,0.7,0.2,1.2,0.5,1.5s0.7,0.5,1.2,0.5s0.9-0.2,1.2-0.5c0.3-0.4,0.5-0.9,0.5-1.5c0-0.7-0.2-1.2-0.5-1.5
					c-0.3-0.4-0.7-0.5-1.2-0.5s-0.9,0.2-1.2,0.5S269.3,294,269.3,294.6z"/>
				<path d="M275.7,291.3h1.6v0.9c0.6-0.7,1.3-1.1,2.1-1.1c0.4,0,0.8,0.1,1.1,0.3s0.6,0.4,0.8,0.8c0.3-0.4,0.6-0.6,1-0.8
					s0.7-0.3,1.1-0.3c0.5,0,0.9,0.1,1.3,0.3s0.6,0.5,0.8,0.9c0.1,0.3,0.2,0.8,0.2,1.4v4.3h-1.8v-3.9c0-0.7-0.1-1.1-0.2-1.3
					c-0.2-0.3-0.4-0.4-0.8-0.4c-0.2,0-0.5,0.1-0.7,0.2s-0.4,0.4-0.5,0.7s-0.1,0.8-0.1,1.4v3.2h-1.8v-3.7c0-0.7,0-1.1-0.1-1.3
					s-0.2-0.3-0.3-0.4c-0.1-0.1-0.3-0.1-0.5-0.1c-0.3,0-0.5,0.1-0.7,0.2s-0.4,0.4-0.5,0.6c-0.1,0.3-0.1,0.7-0.1,1.4v3.3h-1.8v-6.6
					H275.7z"/>
				<path d="M288.7,293.3l-1.6-0.3c0.2-0.7,0.5-1.1,0.9-1.4s1.1-0.5,2-0.5c0.8,0,1.4,0.1,1.8,0.3s0.7,0.4,0.8,0.7
					c0.2,0.3,0.2,0.8,0.2,1.6v2.1c0,0.6,0,1,0.1,1.3s0.2,0.6,0.3,0.9h-1.8c0-0.1-0.1-0.3-0.2-0.5c0-0.1-0.1-0.2-0.1-0.2
					c-0.3,0.3-0.6,0.5-1,0.7c-0.3,0.1-0.7,0.2-1.1,0.2c-0.7,0-1.2-0.2-1.6-0.6s-0.6-0.9-0.6-1.4c0-0.4,0.1-0.7,0.3-1
					c0.2-0.3,0.4-0.5,0.8-0.7c0.3-0.2,0.8-0.3,1.4-0.4c0.8-0.2,1.4-0.3,1.7-0.4v-0.2c0-0.3-0.1-0.6-0.3-0.7c-0.2-0.1-0.5-0.2-1-0.2
					c-0.3,0-0.6,0.1-0.7,0.2S288.8,293,288.7,293.3z M291.1,294.8c-0.2,0.1-0.6,0.2-1.1,0.3c-0.5,0.1-0.8,0.2-1,0.3
					c-0.2,0.2-0.3,0.4-0.3,0.6s0.1,0.5,0.3,0.6c0.2,0.2,0.4,0.3,0.7,0.3c0.3,0,0.6-0.1,0.9-0.3c0.2-0.2,0.4-0.4,0.4-0.6
					s0.1-0.4,0.1-0.9V294.8z"/>
				<path d="M294.6,291.3h1.7v1c0.2-0.3,0.5-0.6,0.9-0.8s0.8-0.3,1.2-0.3c0.8,0,1.4,0.3,2,0.9c0.5,0.6,0.8,1.5,0.8,2.6
					s-0.3,2-0.8,2.6s-1.2,0.9-2,0.9c-0.4,0-0.7-0.1-1-0.2s-0.6-0.4-1-0.8v3.4h-1.8L294.6,291.3L294.6,291.3z M296.3,294.5
					c0,0.8,0.2,1.3,0.5,1.7c0.3,0.4,0.7,0.5,1.1,0.5s0.8-0.2,1-0.5s0.4-0.9,0.4-1.6s-0.1-1.2-0.4-1.6c-0.3-0.3-0.6-0.5-1.1-0.5
					c-0.4,0-0.8,0.2-1.1,0.5C296.5,293.4,296.3,293.9,296.3,294.5z"/>
				<path d="M302.6,298v-1.8h1.8v1.8H302.6z"/>
				<path d="M307.9,291.3v6.5c0,0.9-0.1,1.5-0.2,1.8c-0.1,0.4-0.3,0.6-0.6,0.8c-0.3,0.2-0.7,0.3-1.2,0.3c-0.2,0-0.4,0-0.6,0
					s-0.4-0.1-0.7-0.1l0.3-1.5c0.1,0,0.2,0,0.2,0c0.1,0,0.1,0,0.2,0c0.2,0,0.3,0,0.4-0.1s0.2-0.2,0.2-0.3c0-0.1,0.1-0.4,0.1-1v-6.4
					L307.9,291.3L307.9,291.3z M306.1,290.3v-1.7h1.8v1.7H306.1z"/>
				<path d="M309.2,296.1l1.8-0.3c0.1,0.3,0.2,0.6,0.5,0.8s0.6,0.3,1,0.3c0.5,0,0.8-0.1,1-0.3c0.2-0.1,0.2-0.3,0.2-0.5
					c0-0.1,0-0.2-0.1-0.3c-0.1-0.1-0.3-0.2-0.6-0.2c-1.4-0.3-2.4-0.6-2.7-0.9c-0.5-0.4-0.8-0.9-0.8-1.5s0.2-1.1,0.7-1.5
					s1.2-0.6,2.1-0.6s1.6,0.2,2.1,0.5c0.4,0.3,0.8,0.7,0.9,1.3l-1.7,0.3c-0.1-0.3-0.2-0.5-0.4-0.6c-0.2-0.1-0.5-0.2-0.9-0.2
					c-0.5,0-0.8,0.1-1,0.2c-0.1,0.1-0.2,0.2-0.2,0.4c0,0.1,0.1,0.2,0.2,0.3c0.2,0.1,0.7,0.3,1.7,0.5s1.6,0.5,2,0.8s0.6,0.8,0.6,1.3
					c0,0.6-0.3,1.1-0.8,1.6c-0.5,0.4-1.3,0.7-2.3,0.7c-0.9,0-1.6-0.2-2.2-0.6C309.7,297.2,309.3,296.7,309.2,296.1z"/>
				<path d="M317,291.3h1.7v1c0.2-0.3,0.5-0.6,0.9-0.8s0.8-0.3,1.2-0.3c0.8,0,1.4,0.3,2,0.9c0.5,0.6,0.8,1.5,0.8,2.6s-0.3,2-0.8,2.6
					s-1.2,0.9-2,0.9c-0.4,0-0.7-0.1-1-0.2s-0.6-0.4-1-0.8v3.4H317V291.3z M318.7,294.5c0,0.8,0.2,1.3,0.5,1.7
					c0.3,0.4,0.7,0.5,1.1,0.5s0.8-0.2,1-0.5s0.4-0.9,0.4-1.6s-0.1-1.2-0.4-1.6c-0.3-0.3-0.6-0.5-1.1-0.5c-0.4,0-0.8,0.2-1.1,0.5
					C318.9,293.4,318.7,293.9,318.7,294.5z"/>
			</g>
		</g>
	</g>
	<g transform="translate(-78,-30) scale(1,1)">
		<rect x="583" y="287" class="st1" width="54.5" height="44"/>
	</g>
	<g transform="translate(-78,-30) scale(1,1)">
		<rect x="576" y="280" class="st2" width="54.5" height="44"/>
	</g>
	<g transform="translate(-78,-30) scale(1,1)">
		<path class="st3" d="M576,280h54.5v44H576V280z"/>
	</g>
	<g transform="translate(-78,-30) scale(1,1)">
		<path class="st3" d="M576,305h54.5"/>
	</g>
	<g transform="translate(-78,-30) scale(1,1)">
		<path class="st3" d="M576,315h54.5"/>
	</g>
	<g transform="translate(-78,-30) scale(1,1)">
		<g>
			<path class="st3" d="M0,0"/>
			<g class="st4">
				<path d="M585.3,295.9l1.8,0.3c-0.2,0.7-0.6,1.1-1.1,1.5s-1.1,0.5-1.9,0.5c-1.2,0-2-0.4-2.6-1.1c-0.4-0.6-0.7-1.4-0.7-2.3
					c0-1.1,0.3-2,0.9-2.6s1.3-0.9,2.2-0.9c1,0,1.8,0.3,2.4,1s0.9,1.7,0.8,3h-4.5c0,0.5,0.2,0.9,0.4,1.2c0.3,0.3,0.6,0.4,1,0.4
					c0.3,0,0.5-0.1,0.7-0.2S585.2,296.2,585.3,295.9z M585.4,294.1c0-0.5-0.1-0.9-0.4-1.2s-0.6-0.4-0.9-0.4c-0.4,0-0.7,0.1-1,0.4
					s-0.4,0.7-0.4,1.2H585.4z"/>
				<path d="M594.8,298h-1.7v-1c-0.3,0.4-0.6,0.7-1,0.9s-0.8,0.3-1.1,0.3c-0.8,0-1.4-0.3-2-0.9s-0.8-1.5-0.8-2.6s0.3-2,0.8-2.6
					s1.2-0.9,2-0.9s1.4,0.3,2,0.9v-3.4h1.8V298z M590.1,294.5c0,0.7,0.1,1.2,0.3,1.6c0.3,0.5,0.7,0.7,1.2,0.7c0.4,0,0.8-0.2,1-0.5
					c0.3-0.3,0.4-0.9,0.4-1.6c0-0.8-0.1-1.3-0.4-1.7s-0.6-0.5-1.1-0.5c-0.4,0-0.8,0.2-1.1,0.5C590.2,293.3,590.1,293.8,590.1,294.5z
					"/>
				<path d="M596.6,290.3v-1.7h1.8v1.7H596.6z M596.6,298v-6.7h1.8v6.7H596.6z"/>
				<path d="M603.3,291.3v1.4h-1.2v2.7c0,0.5,0,0.9,0,1s0.1,0.2,0.2,0.2c0.1,0.1,0.2,0.1,0.3,0.1c0.2,0,0.4-0.1,0.7-0.2l0.2,1.4
					c-0.4,0.2-0.9,0.3-1.4,0.3c-0.3,0-0.6-0.1-0.9-0.2c-0.3-0.1-0.4-0.2-0.6-0.4c-0.1-0.2-0.2-0.4-0.2-0.7c0-0.2-0.1-0.6-0.1-1.3
					v-2.9h-0.8v-1.4h0.8V290l1.8-1v2.4h1.2V291.3z"/>
				<path d="M604.5,298v-1.8h1.8v1.8H604.5z"/>
				<path d="M609.9,291.3v6.5c0,0.9-0.1,1.5-0.2,1.8c-0.1,0.4-0.3,0.6-0.6,0.8s-0.7,0.3-1.2,0.3c-0.2,0-0.4,0-0.6,0
					c-0.2,0-0.4-0.1-0.7-0.1l0.3-1.5c0.1,0,0.2,0,0.2,0s0.1,0,0.2,0c0.2,0,0.3,0,0.4-0.1c0.1-0.1,0.2-0.2,0.2-0.3
					c0-0.1,0.1-0.4,0.1-1v-6.4L609.9,291.3L609.9,291.3z M608.1,290.3v-1.7h1.8v1.7H608.1z"/>
				<path d="M611.1,296.1l1.8-0.3c0.1,0.3,0.2,0.6,0.5,0.8s0.6,0.3,1,0.3c0.5,0,0.8-0.1,1-0.3c0.2-0.1,0.2-0.3,0.2-0.5
					c0-0.1,0-0.2-0.1-0.3c-0.1-0.1-0.3-0.2-0.6-0.2c-1.4-0.3-2.4-0.6-2.7-0.9c-0.5-0.4-0.8-0.9-0.8-1.5s0.2-1.1,0.7-1.5
					s1.2-0.6,2.1-0.6c0.9,0,1.6,0.2,2.1,0.5c0.4,0.3,0.8,0.7,0.9,1.3l-1.7,0.3c-0.1-0.3-0.2-0.5-0.4-0.6s-0.5-0.2-0.9-0.2
					c-0.5,0-0.8,0.1-1,0.2c-0.1,0.1-0.2,0.2-0.2,0.4c0,0.1,0.1,0.2,0.2,0.3c0.2,0.1,0.7,0.3,1.7,0.5c0.9,0.2,1.6,0.5,2,0.8
					s0.6,0.8,0.6,1.3c0,0.6-0.3,1.1-0.8,1.6c-0.5,0.4-1.3,0.7-2.3,0.7c-0.9,0-1.6-0.2-2.2-0.6C611.7,297.2,611.3,296.7,611.1,296.1z
					"/>
				<path d="M618.9,291.3h1.7v1c0.2-0.3,0.5-0.6,0.9-0.8c0.4-0.2,0.8-0.3,1.2-0.3c0.8,0,1.4,0.3,2,0.9c0.5,0.6,0.8,1.5,0.8,2.6
					s-0.3,2-0.8,2.6c-0.6,0.6-1.2,0.9-2,0.9c-0.4,0-0.7-0.1-1-0.2s-0.6-0.4-1-0.8v3.4h-1.8L618.9,291.3L618.9,291.3z M620.7,294.5
					c0,0.8,0.2,1.3,0.5,1.7c0.3,0.4,0.7,0.5,1.1,0.5c0.4,0,0.8-0.2,1-0.5s0.4-0.9,0.4-1.6s-0.1-1.2-0.4-1.6
					c-0.3-0.3-0.6-0.5-1.1-0.5c-0.4,0-0.8,0.2-1.1,0.5C620.9,293.4,620.7,293.9,620.7,294.5z"/>
			</g>
		</g>
	</g>
	<g transform="translate(-78,-30) scale(1,1)">
		<rect x="663" y="287" class="st1" width="68.9" height="44"/>
	</g>
	<g transform="translate(-78,-30) scale(1,1)">
		<rect x="656" y="280" class="st2" width="68.9" height="44"/>
	</g>
	<g transform="translate(-78,-30) scale(1,1)">
		<path class="st3" d="M656,280h68.9v44H656V280z"/>
	</g>
	<g transform="translate(-78,-30) scale(1,1)">
		<path class="st3" d="M656,305h68.9"/>
	</g>
	<g transform="translate(-78,-30) scale(1,1)">
		<path class="st3" d="M656,315h68.9"/>
	</g>
	<g transform="translate(-78,-30) scale(1,1)">
		<g>
			<path class="st3" d="M0,0"/>
			<g class="st4">
				<path d="M660.7,291.3h1v-0.5c0-0.6,0.1-1,0.2-1.3c0.1-0.3,0.3-0.5,0.7-0.7c0.3-0.2,0.7-0.3,1.2-0.3s1,0.1,1.5,0.2L665,290
					c-0.3-0.1-0.6-0.1-0.8-0.1c-0.3,0-0.4,0.1-0.6,0.2c-0.1,0.1-0.2,0.4-0.2,0.7v0.5h1.3v1.4h-1.3v5.3h-1.8v-5.3h-1L660.7,291.3
					L660.7,291.3z"/>
				<path d="M665.3,294.5c0-0.6,0.1-1.2,0.4-1.7c0.3-0.6,0.7-1,1.2-1.3s1.1-0.4,1.8-0.4c1,0,1.9,0.3,2.5,1s1,1.5,1,2.5
					s-0.3,1.9-1,2.5c-0.7,0.7-1.5,1-2.5,1c-0.6,0-1.2-0.1-1.8-0.4s-1-0.7-1.3-1.2C665.5,296,665.3,295.3,665.3,294.5z M667.2,294.6
					c0,0.7,0.2,1.2,0.5,1.5c0.3,0.4,0.7,0.5,1.2,0.5s0.9-0.2,1.2-0.5s0.5-0.9,0.5-1.5c0-0.7-0.2-1.2-0.5-1.5s-0.7-0.5-1.2-0.5
					s-0.9,0.2-1.2,0.5C667.3,293.4,667.2,294,667.2,294.6z"/>
				<path d="M675.4,298h-1.8v-6.7h1.7v1c0.3-0.5,0.5-0.8,0.8-0.9s0.5-0.2,0.8-0.2c0.4,0,0.8,0.1,1.2,0.3l-0.6,1.6
					c-0.3-0.2-0.6-0.3-0.8-0.3s-0.5,0.1-0.6,0.2c-0.2,0.1-0.3,0.4-0.4,0.7c-0.1,0.4-0.2,1.1-0.2,2.3v2H675.4z"/>
				<path d="M678.6,291.3h1.6v0.9c0.6-0.7,1.3-1.1,2.1-1.1c0.4,0,0.8,0.1,1.1,0.3c0.3,0.2,0.6,0.4,0.8,0.8c0.3-0.4,0.6-0.6,1-0.8
					c0.3-0.2,0.7-0.3,1.1-0.3c0.5,0,0.9,0.1,1.3,0.3s0.6,0.5,0.8,0.9c0.1,0.3,0.2,0.8,0.2,1.4v4.3h-1.8v-3.9c0-0.7-0.1-1.1-0.2-1.3
					c-0.2-0.3-0.4-0.4-0.8-0.4c-0.2,0-0.5,0.1-0.7,0.2c-0.2,0.2-0.4,0.4-0.5,0.7s-0.1,0.8-0.1,1.4v3.2h-1.8v-3.7
					c0-0.7,0-1.1-0.1-1.3c-0.1-0.2-0.2-0.3-0.3-0.4s-0.3-0.1-0.5-0.1c-0.3,0-0.5,0.1-0.7,0.2s-0.4,0.4-0.5,0.6
					c-0.1,0.3-0.1,0.7-0.1,1.4v3.3h-1.8L678.6,291.3L678.6,291.3z"/>
				<path d="M690.3,298v-1.8h1.8v1.8H690.3z"/>
				<path d="M695.7,288.7v3.4c0.6-0.7,1.3-1,2.1-1c0.4,0,0.8,0.1,1.1,0.2s0.6,0.3,0.7,0.6s0.3,0.5,0.3,0.8c0.1,0.3,0.1,0.7,0.1,1.3
					v4h-1.8v-3.6c0-0.7,0-1.2-0.1-1.3c-0.1-0.2-0.2-0.3-0.4-0.5c-0.2-0.1-0.4-0.2-0.6-0.2c-0.3,0-0.6,0.1-0.8,0.2s-0.4,0.4-0.5,0.7
					c-0.1,0.3-0.2,0.7-0.2,1.3v3.4h-1.8v-9.3H695.7z"/>
				<path d="M705,291.3v1.4h-1.2v2.7c0,0.5,0,0.9,0,1s0.1,0.2,0.2,0.2c0.1,0.1,0.2,0.1,0.3,0.1c0.2,0,0.4-0.1,0.7-0.2l0.2,1.4
					c-0.4,0.2-0.9,0.3-1.4,0.3c-0.3,0-0.6-0.1-0.9-0.2c-0.3-0.1-0.4-0.2-0.6-0.4c-0.1-0.2-0.2-0.4-0.2-0.7c0-0.2-0.1-0.6-0.1-1.3
					v-2.9h-0.8v-1.4h0.8V290l1.8-1v2.4h1.2V291.3z"/>
				<path d="M706.1,291.3h1.6v0.9c0.6-0.7,1.3-1.1,2.1-1.1c0.4,0,0.8,0.1,1.1,0.3s0.6,0.4,0.8,0.8c0.3-0.4,0.6-0.6,1-0.8
					s0.7-0.3,1.1-0.3c0.5,0,0.9,0.1,1.3,0.3c0.3,0.2,0.6,0.5,0.8,0.9c0.1,0.3,0.2,0.8,0.2,1.4v4.3h-1.8v-3.9c0-0.7-0.1-1.1-0.2-1.3
					c-0.2-0.3-0.4-0.4-0.8-0.4c-0.2,0-0.5,0.1-0.7,0.2s-0.4,0.4-0.5,0.7c-0.1,0.3-0.1,0.8-0.1,1.4v3.2h-1.8v-3.7
					c0-0.7,0-1.1-0.1-1.3s-0.2-0.3-0.3-0.4s-0.3-0.1-0.5-0.1c-0.3,0-0.5,0.1-0.7,0.2s-0.4,0.4-0.5,0.6s-0.1,0.7-0.1,1.4v3.3h-1.8
					L706.1,291.3L706.1,291.3z"/>
				<path d="M717.8,298v-9.3h1.8v9.3H717.8z"/>
			</g>
		</g>
	</g>
	<g transform="translate(-78,-30) scale(1,1)">
		<rect x="407" y="47" class="st1" width="74" height="44"/>
	</g>
	<g transform="translate(-78,-30) scale(1,1)">
		<rect x="400" y="40" class="st2" width="74" height="44"/>
	</g>
	<g transform="translate(-78,-30) scale(1,1)">
		<path class="st3" d="M400,40h74v44h-74V40z"/>
	</g>
	<g transform="translate(-78,-30) scale(1,1)">
		<path class="st3" d="M400,65h74"/>
	</g>
	<g transform="translate(-78,-30) scale(1,1)">
		<path class="st3" d="M400,75h74"/>
	</g>
	<g transform="translate(-78,-30) scale(1,1)">
		<g>
			<path class="st3" d="M0,0"/>
			<g class="st4">
				<path d="M405.4,50.3v-1.7h1.8v1.7H405.4z M405.4,58v-6.7h1.8V58H405.4z"/>
				<path d="M415.2,58h-1.8v-3.4c0-0.7,0-1.2-0.1-1.4s-0.2-0.4-0.4-0.5c-0.2-0.1-0.4-0.2-0.6-0.2c-0.3,0-0.6,0.1-0.8,0.3
					c-0.2,0.2-0.4,0.4-0.5,0.7s-0.1,0.8-0.1,1.5v3H409v-6.7h1.7v1c0.6-0.8,1.3-1.1,2.2-1.1c0.4,0,0.8,0.1,1.1,0.2
					c0.3,0.1,0.6,0.3,0.7,0.5c0.2,0.2,0.3,0.5,0.3,0.8c0.1,0.3,0.1,0.7,0.1,1.2L415.2,58L415.2,58z"/>
				<path d="M423.2,58h-1.7v-1c-0.3,0.4-0.6,0.7-1,0.9s-0.8,0.3-1.1,0.3c-0.8,0-1.4-0.3-2-0.9c-0.6-0.6-0.8-1.5-0.8-2.6
					s0.3-2,0.8-2.6s1.2-0.9,2-0.9s1.4,0.3,2,0.9v-3.4h1.8L423.2,58L423.2,58z M418.4,54.5c0,0.7,0.1,1.2,0.3,1.6
					c0.3,0.5,0.7,0.7,1.2,0.7c0.4,0,0.8-0.2,1-0.5c0.3-0.3,0.4-0.9,0.4-1.6c0-0.8-0.1-1.3-0.4-1.7s-0.6-0.5-1.1-0.5
					c-0.4,0-0.8,0.2-1.1,0.5C418.6,53.3,418.4,53.8,418.4,54.5z"/>
				<path d="M428.8,55.9l1.8,0.3c-0.2,0.7-0.6,1.1-1.1,1.5c-0.5,0.3-1.1,0.5-1.8,0.5c-1.2,0-2-0.4-2.6-1.1c-0.4-0.6-0.7-1.4-0.7-2.3
					c0-1.1,0.3-2,0.9-2.6s1.3-0.9,2.2-0.9c1,0,1.8,0.3,2.4,1s0.9,1.7,0.8,3h-4.5c0,0.5,0.2,0.9,0.4,1.2s0.6,0.4,1,0.4
					c0.3,0,0.5-0.1,0.7-0.2C428.6,56.4,428.7,56.2,428.8,55.9z M428.9,54.1c0-0.5-0.1-0.9-0.4-1.2s-0.6-0.4-0.9-0.4
					c-0.4,0-0.7,0.1-1,0.4s-0.4,0.7-0.4,1.2H428.9z"/>
				<path d="M431.3,58l2.4-3.5l-2.3-3.3h2.2l1.2,1.9l1.3-1.9h2.1l-2.3,3.2l2.5,3.5h-2.2l-1.4-2.1l-1.4,2.1L431.3,58L431.3,58z"/>
				<path d="M439.4,58v-1.8h1.8V58H439.4z"/>
				<path d="M444.8,48.7v3.4c0.6-0.7,1.3-1,2.1-1c0.4,0,0.8,0.1,1.1,0.2s0.6,0.3,0.7,0.6c0.2,0.2,0.3,0.5,0.3,0.8s0.1,0.7,0.1,1.3v4
					h-1.8v-3.6c0-0.7,0-1.2-0.1-1.3c-0.1-0.2-0.2-0.3-0.4-0.5c-0.2-0.1-0.4-0.2-0.6-0.2c-0.3,0-0.6,0.1-0.8,0.2
					c-0.2,0.1-0.4,0.4-0.5,0.7s-0.2,0.7-0.2,1.3V58H443v-9.3H444.8z"/>
				<path d="M454,51.3v1.4h-1.2v2.7c0,0.5,0,0.9,0,1s0.1,0.2,0.2,0.2c0.1,0.1,0.2,0.1,0.3,0.1c0.2,0,0.4-0.1,0.7-0.2l0.2,1.4
					c-0.4,0.2-0.9,0.3-1.4,0.3c-0.3,0-0.6-0.1-0.9-0.2c-0.3-0.1-0.4-0.2-0.6-0.4c-0.1-0.2-0.2-0.4-0.3-0.7c0-0.2-0.1-0.6-0.1-1.3
					v-2.9h-0.8v-1.4h0.8V50l1.8-1v2.4L454,51.3L454,51.3z"/>
				<path d="M455.1,51.3h1.6v0.9c0.6-0.7,1.3-1.1,2.1-1.1c0.4,0,0.8,0.1,1.1,0.3s0.6,0.4,0.8,0.8c0.3-0.4,0.6-0.6,1-0.8
					s0.7-0.3,1.1-0.3c0.5,0,0.9,0.1,1.3,0.3c0.3,0.2,0.6,0.5,0.8,0.9c0.1,0.3,0.2,0.8,0.2,1.4V58h-1.8v-3.9c0-0.7-0.1-1.1-0.2-1.3
					c-0.2-0.3-0.4-0.4-0.8-0.4c-0.2,0-0.5,0.1-0.7,0.2s-0.4,0.4-0.5,0.7s-0.1,0.8-0.1,1.4V58h-1.8v-3.7c0-0.7,0-1.1-0.1-1.3
					s-0.2-0.3-0.3-0.4c-0.1-0.1-0.3-0.1-0.5-0.1c-0.3,0-0.5,0.1-0.7,0.2c-0.2,0.1-0.4,0.4-0.5,0.6c-0.1,0.3-0.1,0.7-0.1,1.4V58h-1.8
					v-6.7H455.1z"/>
				<path d="M466.8,58v-9.3h1.8V58H466.8z"/>
			</g>
		</g>
	</g>
	<g transform="translate(-78,-30) scale(1,1)">
		<rect x="175" y="359" class="st1" width="63.9" height="44"/>
	</g>
	<g transform="translate(-78,-30) scale(1,1)">
		<rect x="168" y="352" class="st2" width="63.9" height="44"/>
	</g>
	<g transform="translate(-78,-30) scale(1,1)">
		<path class="st3" d="M168,352h63.9v44H168V352z"/>
	</g>
	<g transform="translate(-78,-30) scale(1,1)">
		<path class="st3" d="M168,377h63.9"/>
	</g>
	<g transform="translate(-78,-30) scale(1,1)">
		<path class="st3" d="M168,387h63.9"/>
	</g>
	<g transform="translate(-78,-30) scale(1,1)">
		<g>
			<path class="st3" d="M0,0"/>
			<g class="st4">
				<path d="M173.4,362.3v-1.7h1.8v1.7H173.4z M173.4,370v-6.7h1.8v6.7H173.4z"/>
				<path d="M183.2,370h-1.8v-3.4c0-0.7,0-1.2-0.1-1.4s-0.2-0.4-0.4-0.5s-0.4-0.2-0.6-0.2c-0.3,0-0.6,0.1-0.8,0.3
					c-0.2,0.2-0.4,0.4-0.5,0.7c-0.1,0.3-0.1,0.8-0.1,1.5v3.1H177v-6.7h1.7v1c0.6-0.8,1.3-1.1,2.2-1.1c0.4,0,0.8,0.1,1.1,0.2
					s0.6,0.3,0.7,0.5c0.2,0.2,0.3,0.5,0.3,0.8c0.1,0.3,0.1,0.7,0.1,1.2L183.2,370L183.2,370z"/>
				<path d="M184.2,363.3h1v-0.5c0-0.6,0.1-1,0.2-1.3c0.1-0.3,0.3-0.5,0.7-0.7c0.3-0.2,0.7-0.3,1.2-0.3s1,0.1,1.5,0.2l-0.2,1.2
					c-0.3-0.1-0.6-0.1-0.8-0.1c-0.3,0-0.4,0.1-0.6,0.2c-0.1,0.1-0.2,0.4-0.2,0.7v0.5h1.3v1.4H187v5.3h-1.8v-5.3h-1V363.3z"/>
				<path d="M188.9,366.5c0-0.6,0.1-1.2,0.4-1.7c0.3-0.6,0.7-1,1.2-1.3s1.1-0.4,1.8-0.4c1,0,1.9,0.3,2.5,1s1,1.5,1,2.5
					s-0.3,1.9-1,2.5c-0.7,0.7-1.5,1-2.5,1c-0.6,0-1.2-0.1-1.8-0.4s-1-0.7-1.3-1.2C189,368,188.9,367.3,188.9,366.5z M190.7,366.6
					c0,0.7,0.2,1.2,0.5,1.5s0.7,0.5,1.2,0.5s0.9-0.2,1.2-0.5c0.3-0.4,0.5-0.9,0.5-1.5c0-0.7-0.2-1.2-0.5-1.5
					c-0.3-0.4-0.7-0.5-1.2-0.5s-0.9,0.2-1.2,0.5S190.7,366,190.7,366.6z"/>
				<path d="M197.3,370v-1.8h1.8v1.8H197.3z"/>
				<path d="M202.6,360.7v3.4c0.6-0.7,1.3-1,2.1-1c0.4,0,0.8,0.1,1.1,0.2s0.6,0.3,0.7,0.6c0.2,0.2,0.3,0.5,0.3,0.8
					c0.1,0.3,0.1,0.7,0.1,1.3v4h-1.8v-3.6c0-0.7,0-1.2-0.1-1.3c-0.1-0.2-0.2-0.3-0.4-0.5c-0.2-0.1-0.4-0.2-0.6-0.2
					c-0.3,0-0.6,0.1-0.8,0.2s-0.4,0.4-0.5,0.7c-0.1,0.3-0.2,0.7-0.2,1.3v3.4h-1.8v-9.3H202.6z"/>
				<path d="M211.9,363.3v1.4h-1.2v2.7c0,0.5,0,0.9,0,1s0.1,0.2,0.2,0.2c0.1,0.1,0.2,0.1,0.3,0.1c0.2,0,0.4-0.1,0.7-0.2l0.2,1.4
					c-0.4,0.2-0.9,0.3-1.4,0.3c-0.3,0-0.6-0.1-0.9-0.2c-0.3-0.1-0.4-0.2-0.6-0.4c-0.1-0.2-0.2-0.4-0.3-0.7c0-0.2-0.1-0.6-0.1-1.3
					v-2.9H208v-1.4h0.8V362l1.8-1v2.4h1.3V363.3z"/>
				<path d="M213,363.3h1.6v0.9c0.6-0.7,1.3-1.1,2.1-1.1c0.4,0,0.8,0.1,1.1,0.3s0.6,0.4,0.8,0.8c0.3-0.4,0.6-0.6,1-0.8
					s0.7-0.3,1.1-0.3c0.5,0,0.9,0.1,1.3,0.3s0.6,0.5,0.8,0.9c0.1,0.3,0.2,0.8,0.2,1.4v4.3h-1.8v-3.9c0-0.7-0.1-1.1-0.2-1.3
					c-0.2-0.3-0.4-0.4-0.8-0.4c-0.2,0-0.5,0.1-0.7,0.2s-0.4,0.4-0.5,0.7s-0.1,0.8-0.1,1.4v3.2h-1.8v-3.7c0-0.7,0-1.1-0.1-1.3
					s-0.2-0.3-0.3-0.4s-0.3-0.1-0.5-0.1c-0.3,0-0.5,0.1-0.7,0.2s-0.4,0.4-0.5,0.6c-0.1,0.3-0.1,0.7-0.1,1.4v3.3H213V363.3z"/>
				<path d="M224.7,370v-9.3h1.8v9.3H224.7z"/>
			</g>
		</g>
	</g>
	<g transform="translate(-78,-30) scale(1,1)">
		<rect x="511" y="287" class="st1" width="50.2" height="54"/>
	</g>
	<g transform="translate(-78,-30) scale(1,1)">
		<rect x="504" y="280" class="st2" width="50.2" height="54"/>
	</g>
	<g transform="translate(-78,-30) scale(1,1)">
		<path class="st3" d="M504,280h50.2v54H504V280z"/>
	</g>
	<g transform="translate(-78,-30) scale(1,1)">
		<path class="st3" d="M504,305h50.2"/>
	</g>
	<g transform="translate(-78,-30) scale(1,1)">
		<path class="st3" d="M504,315h50.2"/>
	</g>
	<g transform="translate(-78,-30) scale(1,1)">
		<path class="st3" d="M504,325h50.2"/>
	</g>
	<g transform="translate(-78,-30) scale(1,1)">
		<g>
			<path class="st3" d="M0,0"/>
			<g class="st4">
				<path d="M509.4,298v-9.3h1.8v9.3H509.4z"/>
				<path d="M513,290.3v-1.7h1.8v1.7H513z M513,298v-6.7h1.8v6.7H513z"/>
				<path d="M516,296.1l1.8-0.3c0.1,0.3,0.2,0.6,0.5,0.8c0.2,0.2,0.6,0.3,1,0.3c0.5,0,0.8-0.1,1-0.3c0.2-0.1,0.2-0.3,0.2-0.5
					c0-0.1,0-0.2-0.1-0.3c-0.1-0.1-0.3-0.2-0.6-0.2c-1.4-0.3-2.4-0.6-2.7-0.9c-0.5-0.4-0.8-0.9-0.8-1.5s0.2-1.1,0.7-1.5
					s1.2-0.6,2.1-0.6c0.9,0,1.6,0.2,2.1,0.5c0.4,0.3,0.8,0.7,0.9,1.3l-1.7,0.3c-0.1-0.3-0.2-0.5-0.4-0.6s-0.5-0.2-0.9-0.2
					c-0.5,0-0.8,0.1-1,0.2c-0.1,0.1-0.2,0.2-0.2,0.4c0,0.1,0.1,0.2,0.2,0.3c0.2,0.1,0.7,0.3,1.7,0.5s1.6,0.5,2,0.8s0.6,0.8,0.6,1.3
					c0,0.6-0.3,1.1-0.8,1.6c-0.5,0.4-1.3,0.7-2.3,0.7c-0.9,0-1.6-0.2-2.2-0.6C516.5,297.2,516.2,296.7,516,296.1z"/>
				<path d="M527,291.3v1.4h-1.2v2.7c0,0.5,0,0.9,0,1s0.1,0.2,0.2,0.2c0.1,0.1,0.2,0.1,0.3,0.1c0.2,0,0.4-0.1,0.7-0.2l0.2,1.4
					c-0.4,0.2-0.9,0.3-1.4,0.3c-0.3,0-0.6-0.1-0.9-0.2c-0.3-0.1-0.4-0.2-0.6-0.4c-0.1-0.2-0.2-0.4-0.3-0.7c0-0.2-0.1-0.6-0.1-1.3
					v-2.9h-0.8v-1.4h0.8V290l1.8-1v2.4h1.3V291.3z"/>
				<path d="M528.2,298v-1.8h1.8v1.8H528.2z"/>
				<path d="M533.6,291.3v6.5c0,0.9-0.1,1.5-0.2,1.8s-0.3,0.6-0.6,0.8c-0.3,0.2-0.7,0.3-1.2,0.3c-0.2,0-0.4,0-0.6,0
					c-0.2,0-0.4-0.1-0.7-0.1l0.3-1.5c0.1,0,0.2,0,0.2,0c0.1,0,0.1,0,0.2,0c0.2,0,0.3,0,0.4-0.1s0.2-0.2,0.2-0.3c0-0.1,0.1-0.4,0.1-1
					v-6.4L533.6,291.3L533.6,291.3z M531.8,290.3v-1.7h1.8v1.7H531.8z"/>
				<path d="M534.8,296.1l1.8-0.3c0.1,0.3,0.2,0.6,0.5,0.8s0.6,0.3,1,0.3c0.5,0,0.8-0.1,1-0.3c0.2-0.1,0.2-0.3,0.2-0.5
					c0-0.1,0-0.2-0.1-0.3c-0.1-0.1-0.3-0.2-0.6-0.2c-1.4-0.3-2.3-0.6-2.7-0.9c-0.5-0.4-0.8-0.9-0.8-1.5s0.2-1.1,0.7-1.5
					s1.2-0.6,2.1-0.6c0.9,0,1.6,0.2,2.1,0.5c0.4,0.3,0.8,0.7,0.9,1.3l-1.7,0.3c-0.1-0.3-0.2-0.5-0.4-0.6s-0.5-0.2-0.9-0.2
					c-0.5,0-0.8,0.1-1,0.2c-0.1,0.1-0.2,0.2-0.2,0.4c0,0.1,0.1,0.2,0.2,0.3c0.2,0.1,0.7,0.3,1.7,0.5s1.6,0.5,2,0.8s0.6,0.8,0.6,1.3
					c0,0.6-0.3,1.1-0.8,1.6c-0.5,0.4-1.3,0.7-2.3,0.7c-0.9,0-1.6-0.2-2.2-0.6S535,296.7,534.8,296.1z"/>
				<path d="M542.6,291.3h1.7v1c0.2-0.3,0.5-0.6,0.9-0.8c0.4-0.2,0.8-0.3,1.2-0.3c0.8,0,1.4,0.3,2,0.9c0.5,0.6,0.8,1.5,0.8,2.6
					s-0.3,2-0.8,2.6s-1.2,0.9-2,0.9c-0.4,0-0.7-0.1-1-0.2s-0.6-0.4-1-0.8v3.4h-1.8L542.6,291.3L542.6,291.3z M544.4,294.5
					c0,0.8,0.2,1.3,0.5,1.7c0.3,0.4,0.7,0.5,1.1,0.5c0.4,0,0.8-0.2,1-0.5s0.4-0.9,0.4-1.6s-0.1-1.2-0.4-1.6
					c-0.3-0.3-0.6-0.5-1.1-0.5c-0.4,0-0.8,0.2-1.1,0.5C544.5,293.4,544.4,293.9,544.4,294.5z"/>
			</g>
		</g>
	</g>
	<g transform="translate(-78,-30) scale(1,1)">
		<rect x="391" y="287" class="st1" width="50.2" height="44"/>
	</g>
	<g transform="translate(-78,-30) scale(1,1)">
		<rect x="384" y="280" class="st2" width="50.2" height="44"/>
	</g>
	<g transform="translate(-78,-30) scale(1,1)">
		<path class="st3" d="M384,280h50.2v44H384V280z"/>
	</g>
	<g transform="translate(-78,-30) scale(1,1)">
		<path class="st3" d="M384,305h50.2"/>
	</g>
	<g transform="translate(-78,-30) scale(1,1)">
		<path class="st3" d="M384,315h50.2"/>
	</g>
	<g transform="translate(-78,-30) scale(1,1)">
		<g>
			<path class="st3" d="M0,0"/>
			<g class="st4">
				<path d="M389.3,291.3h1.6v0.9c0.6-0.7,1.3-1.1,2.1-1.1c0.4,0,0.8,0.1,1.1,0.3s0.6,0.4,0.8,0.8c0.3-0.4,0.6-0.6,1-0.8
					s0.7-0.3,1.1-0.3c0.5,0,0.9,0.1,1.3,0.3s0.6,0.5,0.8,0.9c0.1,0.3,0.2,0.8,0.2,1.4v4.3h-1.8v-3.9c0-0.7-0.1-1.1-0.2-1.3
					c-0.2-0.3-0.4-0.4-0.8-0.4c-0.2,0-0.5,0.1-0.7,0.2s-0.4,0.4-0.5,0.7s-0.1,0.8-0.1,1.4v3.2h-1.8v-3.7c0-0.7,0-1.1-0.1-1.3
					s-0.2-0.3-0.3-0.4c-0.1-0.1-0.3-0.1-0.5-0.1c-0.3,0-0.5,0.1-0.7,0.2s-0.4,0.4-0.5,0.6c-0.1,0.3-0.1,0.7-0.1,1.4v3.3h-1.8v-6.6
					H389.3z"/>
				<path d="M402.3,293.3l-1.6-0.3c0.2-0.7,0.5-1.1,0.9-1.4s1.1-0.5,2-0.5c0.8,0,1.4,0.1,1.8,0.3s0.7,0.4,0.8,0.7
					c0.2,0.3,0.2,0.8,0.2,1.6v2.1c0,0.6,0,1,0.1,1.3s0.2,0.6,0.3,0.9H405c0-0.1-0.1-0.3-0.2-0.5c0-0.1-0.1-0.2-0.1-0.2
					c-0.3,0.3-0.6,0.5-1,0.7c-0.3,0.1-0.7,0.2-1.1,0.2c-0.7,0-1.2-0.2-1.6-0.6s-0.6-0.9-0.6-1.4c0-0.4,0.1-0.7,0.3-1
					c0.2-0.3,0.4-0.5,0.8-0.7c0.3-0.2,0.8-0.3,1.4-0.4c0.8-0.2,1.4-0.3,1.7-0.4v-0.2c0-0.3-0.1-0.6-0.3-0.7c-0.2-0.1-0.5-0.2-1-0.2
					c-0.3,0-0.6,0.1-0.7,0.2S402.4,293,402.3,293.3z M404.7,294.8c-0.2,0.1-0.6,0.2-1.1,0.3c-0.5,0.1-0.8,0.2-1,0.3
					c-0.2,0.2-0.3,0.4-0.3,0.6s0.1,0.5,0.3,0.6c0.2,0.2,0.4,0.3,0.7,0.3c0.3,0,0.6-0.1,0.9-0.3c0.2-0.2,0.4-0.4,0.4-0.6
					s0.1-0.4,0.1-0.9V294.8z"/>
				<path d="M408.2,291.3h1.7v1c0.2-0.3,0.5-0.6,0.9-0.8c0.4-0.2,0.8-0.3,1.2-0.3c0.8,0,1.4,0.3,2,0.9c0.5,0.6,0.8,1.5,0.8,2.6
					s-0.3,2-0.8,2.6s-1.2,0.9-2,0.9c-0.4,0-0.7-0.1-1-0.2s-0.6-0.4-1-0.8v3.4h-1.8L408.2,291.3L408.2,291.3z M409.9,294.5
					c0,0.8,0.2,1.3,0.5,1.7c0.3,0.4,0.7,0.5,1.1,0.5s0.8-0.2,1-0.5s0.4-0.9,0.4-1.6s-0.1-1.2-0.4-1.6c-0.3-0.3-0.6-0.5-1.1-0.5
					c-0.4,0-0.8,0.2-1.1,0.5C410.1,293.4,409.9,293.9,409.9,294.5z"/>
				<path d="M416.2,298v-1.8h1.8v1.8H416.2z"/>
				<path d="M421.5,291.3v6.5c0,0.9-0.1,1.5-0.2,1.8s-0.3,0.6-0.6,0.8c-0.3,0.2-0.7,0.3-1.2,0.3c-0.2,0-0.4,0-0.6,0
					s-0.4-0.1-0.7-0.1l0.3-1.5c0.1,0,0.2,0,0.2,0c0.1,0,0.1,0,0.2,0c0.2,0,0.3,0,0.4-0.1s0.2-0.2,0.2-0.3c0-0.1,0.1-0.4,0.1-1v-6.4
					L421.5,291.3L421.5,291.3z M419.7,290.3v-1.7h1.8v1.7H419.7z"/>
				<path d="M422.8,296.1l1.8-0.3c0.1,0.3,0.2,0.6,0.5,0.8s0.6,0.3,1,0.3c0.5,0,0.8-0.1,1-0.3c0.2-0.1,0.2-0.3,0.2-0.5
					c0-0.1,0-0.2-0.1-0.3c-0.1-0.1-0.3-0.2-0.6-0.2c-1.4-0.3-2.3-0.6-2.7-0.9c-0.5-0.4-0.8-0.9-0.8-1.5s0.2-1.1,0.7-1.5
					s1.2-0.6,2.1-0.6s1.6,0.2,2.1,0.5c0.4,0.3,0.8,0.7,0.9,1.3l-1.7,0.3c-0.1-0.3-0.2-0.5-0.4-0.6c-0.2-0.1-0.5-0.2-0.9-0.2
					c-0.5,0-0.8,0.1-1,0.2c-0.1,0.1-0.2,0.2-0.2,0.4c0,0.1,0.1,0.2,0.2,0.3c0.2,0.1,0.7,0.3,1.7,0.5s1.6,0.5,2,0.8s0.6,0.8,0.6,1.3
					c0,0.6-0.3,1.1-0.8,1.6c-0.5,0.4-1.3,0.7-2.3,0.7c-0.9,0-1.6-0.2-2.2-0.6S422.9,296.7,422.8,296.1z"/>
			</g>
		</g>
	</g>
	<g transform="translate(-78,-30) scale(1,1)">
		<rect x="343" y="359" class="st1" width="150.6" height="44"/>
	</g>
	<g transform="translate(-78,-30) scale(1,1)">
		<rect x="336" y="352" class="st2" width="150.6" height="44"/>
	</g>
	<g transform="translate(-78,-30) scale(1,1)">
		<path class="st3" d="M336,352h150.6v44H336V352z"/>
	</g>
	<g transform="translate(-78,-30) scale(1,1)">
		<path class="st3" d="M336,377h150.6"/>
	</g>
	<g transform="translate(-78,-30) scale(1,1)">
		<path class="st3" d="M336,387h150.6"/>
	</g>
	<g transform="translate(-78,-30) scale(1,1)">
		<g>
			<path class="st3" d="M0,0"/>
			<g class="st4">
				<path d="M347.3,365.3l-1.8,0.3c-0.1-0.4-0.2-0.6-0.4-0.8c-0.2-0.2-0.5-0.3-0.8-0.3c-0.4,0-0.8,0.2-1.1,0.5
					c-0.3,0.3-0.4,0.8-0.4,1.5c0,0.8,0.1,1.4,0.4,1.7c0.3,0.3,0.6,0.5,1.1,0.5c0.3,0,0.6-0.1,0.8-0.3s0.4-0.5,0.5-1l1.8,0.3
					c-0.2,0.8-0.5,1.4-1,1.8s-1.2,0.6-2.1,0.6c-1,0-1.8-0.3-2.4-0.9s-0.9-1.5-0.9-2.6s0.3-2,0.9-2.6s1.4-0.9,2.4-0.9
					c0.8,0,1.5,0.2,2,0.5C346.8,364,347.1,364.5,347.3,365.3z"/>
				<path d="M353.1,370v-1c-0.2,0.4-0.6,0.6-1,0.9c-0.4,0.2-0.8,0.3-1.3,0.3s-0.9-0.1-1.2-0.3c-0.4-0.2-0.6-0.5-0.8-0.8
					c-0.2-0.4-0.2-0.9-0.2-1.5v-4.3h1.8v3.1c0,0.9,0,1.5,0.1,1.7s0.2,0.4,0.4,0.5s0.4,0.2,0.7,0.2c0.3,0,0.6-0.1,0.8-0.3
					s0.4-0.4,0.5-0.6s0.1-0.9,0.1-1.8v-2.8h1.8v6.7L353.1,370L353.1,370z"/>
				<path d="M362.7,370H361v-3.4c0-0.7,0-1.2-0.1-1.4s-0.2-0.4-0.4-0.5c-0.2-0.1-0.4-0.2-0.6-0.2c-0.3,0-0.6,0.1-0.8,0.3
					c-0.2,0.2-0.4,0.4-0.5,0.7c-0.1,0.3-0.1,0.8-0.1,1.5v3.1h-1.8v-6.7h1.7v1c0.6-0.8,1.3-1.1,2.2-1.1c0.4,0,0.8,0.1,1.1,0.2
					s0.6,0.3,0.7,0.5c0.2,0.2,0.3,0.5,0.3,0.8c0.1,0.3,0.1,0.7,0.1,1.2v4H362.7z"/>
				<path d="M370.7,370H369v-1c-0.3,0.4-0.6,0.7-1,0.9c-0.4,0.2-0.8,0.3-1.1,0.3c-0.8,0-1.4-0.3-2-0.9s-0.8-1.5-0.8-2.6
					s0.3-2,0.8-2.6s1.2-0.9,2-0.9s1.4,0.3,2,0.9v-3.4h1.8L370.7,370L370.7,370z M366,366.5c0,0.7,0.1,1.2,0.3,1.6
					c0.3,0.5,0.7,0.7,1.2,0.7c0.4,0,0.8-0.2,1-0.5c0.3-0.3,0.4-0.9,0.4-1.6c0-0.8-0.1-1.3-0.4-1.7s-0.6-0.5-1.1-0.5
					c-0.4,0-0.8,0.2-1.1,0.5C366.1,365.3,366,365.8,366,366.5z"/>
				<path d="M372.5,362.3v-1.7h1.8v1.7H372.5z M372.5,370v-6.7h1.8v6.7H372.5z"/>
				<path d="M382.2,370h-1.8v-3.4c0-0.7,0-1.2-0.1-1.4s-0.2-0.4-0.4-0.5c-0.2-0.1-0.4-0.2-0.6-0.2c-0.3,0-0.6,0.1-0.8,0.3
					c-0.2,0.2-0.4,0.4-0.5,0.7c-0.1,0.3-0.1,0.8-0.1,1.5v3.1h-1.8v-6.7h1.7v1c0.6-0.8,1.3-1.1,2.2-1.1c0.4,0,0.8,0.1,1.1,0.2
					s0.6,0.3,0.7,0.5c0.2,0.2,0.3,0.5,0.3,0.8c0.1,0.3,0.1,0.7,0.1,1.2L382.2,370L382.2,370z"/>
				<path d="M385.4,365.3l-1.6-0.3c0.2-0.7,0.5-1.1,0.9-1.4s1.1-0.5,2-0.5c0.8,0,1.4,0.1,1.8,0.3s0.7,0.4,0.8,0.7
					c0.2,0.3,0.2,0.8,0.2,1.6v2.1c0,0.6,0,1,0.1,1.3s0.2,0.6,0.3,0.9h-1.8c0-0.1-0.1-0.3-0.2-0.5c0-0.1-0.1-0.2-0.1-0.2
					c-0.3,0.3-0.6,0.5-1,0.7c-0.3,0.1-0.7,0.2-1.1,0.2c-0.7,0-1.2-0.2-1.6-0.6s-0.6-0.9-0.6-1.4c0-0.4,0.1-0.7,0.3-1
					c0.2-0.3,0.4-0.5,0.8-0.7c0.3-0.2,0.8-0.3,1.4-0.4c0.8-0.2,1.4-0.3,1.7-0.4v-0.2c0-0.3-0.1-0.6-0.3-0.7c-0.2-0.1-0.5-0.2-1-0.2
					c-0.3,0-0.6,0.1-0.7,0.2S385.5,365,385.4,365.3z M387.8,366.8c-0.2,0.1-0.6,0.2-1.1,0.3c-0.5,0.1-0.8,0.2-1,0.3
					c-0.2,0.2-0.3,0.4-0.3,0.6s0.1,0.5,0.3,0.6c0.2,0.2,0.4,0.3,0.7,0.3c0.3,0,0.6-0.1,0.9-0.3c0.2-0.2,0.4-0.4,0.4-0.6
					s0.1-0.4,0.1-0.9V366.8z"/>
				<path d="M391.1,363.3h1.6v0.9c0.6-0.7,1.3-1.1,2.1-1.1c0.4,0,0.8,0.1,1.1,0.3s0.6,0.4,0.8,0.8c0.3-0.4,0.6-0.6,1-0.8
					s0.7-0.3,1.1-0.3c0.5,0,0.9,0.1,1.3,0.3s0.6,0.5,0.8,0.9c0.1,0.3,0.2,0.8,0.2,1.4v4.3h-1.8v-3.9c0-0.7-0.1-1.1-0.2-1.3
					c-0.2-0.3-0.4-0.4-0.8-0.4c-0.2,0-0.5,0.1-0.7,0.2s-0.4,0.4-0.5,0.7s-0.1,0.8-0.1,1.4v3.2h-1.8v-3.7c0-0.7,0-1.1-0.1-1.3
					s-0.2-0.3-0.3-0.4c-0.1-0.1-0.3-0.1-0.5-0.1c-0.3,0-0.5,0.1-0.7,0.2s-0.4,0.4-0.5,0.6c-0.1,0.3-0.1,0.7-0.1,1.4v3.3h-1.8v-6.6
					H391.1z"/>
				<path d="M404.2,365.3l-1.6-0.3c0.2-0.7,0.5-1.1,0.9-1.4s1.1-0.5,2-0.5c0.8,0,1.4,0.1,1.8,0.3c0.4,0.2,0.7,0.4,0.8,0.7
					c0.2,0.3,0.2,0.8,0.2,1.6v2.1c0,0.6,0,1,0.1,1.3s0.2,0.6,0.3,0.9h-1.8c0-0.1-0.1-0.3-0.2-0.5c0-0.1-0.1-0.2-0.1-0.2
					c-0.3,0.3-0.6,0.5-1,0.7c-0.3,0.1-0.7,0.2-1.1,0.2c-0.7,0-1.2-0.2-1.6-0.6s-0.6-0.9-0.6-1.4c0-0.4,0.1-0.7,0.3-1
					c0.2-0.3,0.4-0.5,0.8-0.7c0.3-0.2,0.8-0.3,1.4-0.4c0.8-0.2,1.4-0.3,1.7-0.4v-0.2c0-0.3-0.1-0.6-0.3-0.7c-0.2-0.1-0.5-0.2-1-0.2
					c-0.3,0-0.6,0.1-0.7,0.2S404.3,365,404.2,365.3z M406.5,366.8c-0.2,0.1-0.6,0.2-1.1,0.3c-0.5,0.1-0.8,0.2-1,0.3
					c-0.2,0.2-0.3,0.4-0.3,0.6s0.1,0.5,0.3,0.6c0.2,0.2,0.4,0.3,0.7,0.3c0.3,0,0.6-0.1,0.9-0.3c0.2-0.2,0.4-0.4,0.4-0.6
					s0.1-0.4,0.1-0.9V366.8z"/>
				<path d="M411.8,370H410v-6.7h1.7v1c0.3-0.5,0.5-0.8,0.8-0.9c0.2-0.1,0.5-0.2,0.8-0.2c0.4,0,0.8,0.1,1.2,0.3l-0.6,1.6
					c-0.3-0.2-0.6-0.3-0.8-0.3c-0.2,0-0.5,0.1-0.6,0.2c-0.2,0.1-0.3,0.4-0.4,0.7s-0.1,1.1-0.1,2.3v2H411.8z"/>
				<path d="M421,365.3l-1.8,0.3c-0.1-0.4-0.2-0.6-0.4-0.8c-0.2-0.2-0.5-0.3-0.8-0.3c-0.4,0-0.8,0.2-1.1,0.5s-0.4,0.8-0.4,1.5
					c0,0.8,0.1,1.4,0.4,1.7c0.3,0.3,0.6,0.5,1.1,0.5c0.3,0,0.6-0.1,0.8-0.3c0.2-0.2,0.4-0.5,0.5-1l1.8,0.3c-0.2,0.8-0.5,1.4-1,1.8
					s-1.2,0.6-2.1,0.6c-1,0-1.8-0.3-2.4-0.9s-0.9-1.5-0.9-2.6s0.3-2,0.9-2.6s1.4-0.9,2.4-0.9c0.8,0,1.5,0.2,2,0.5
					C420.4,364,420.8,364.5,421,365.3z"/>
				<path d="M423.7,365.3l-1.6-0.3c0.2-0.7,0.5-1.1,0.9-1.4s1.1-0.5,2-0.5c0.8,0,1.4,0.1,1.8,0.3c0.4,0.2,0.7,0.4,0.8,0.7
					s0.2,0.8,0.2,1.6v2.1c0,0.6,0,1,0.1,1.3s0.2,0.6,0.3,0.9h-1.8c0-0.1-0.1-0.3-0.2-0.5c0-0.1-0.1-0.2-0.1-0.2
					c-0.3,0.3-0.6,0.5-1,0.7c-0.3,0.1-0.7,0.2-1.1,0.2c-0.7,0-1.2-0.2-1.6-0.6s-0.6-0.9-0.6-1.4c0-0.4,0.1-0.7,0.3-1
					c0.2-0.3,0.4-0.5,0.8-0.7c0.3-0.2,0.8-0.3,1.4-0.4c0.8-0.2,1.4-0.3,1.7-0.4v-0.2c0-0.3-0.1-0.6-0.3-0.7c-0.2-0.1-0.5-0.2-1-0.2
					c-0.3,0-0.6,0.1-0.7,0.2S423.8,365,423.7,365.3z M426.1,366.8c-0.2,0.1-0.6,0.2-1.1,0.3c-0.5,0.1-0.8,0.2-1,0.3
					c-0.2,0.2-0.3,0.4-0.3,0.6s0.1,0.5,0.3,0.6c0.2,0.2,0.4,0.3,0.7,0.3c0.3,0,0.6-0.1,0.9-0.3c0.2-0.2,0.4-0.4,0.4-0.6
					s0.1-0.4,0.1-0.9V366.8z"/>
				<path d="M429.6,370v-1.8h1.8v1.8H429.6z"/>
				<path d="M433,370.4l2,0.2c0,0.2,0.1,0.4,0.2,0.5c0.2,0.1,0.4,0.2,0.8,0.2c0.5,0,0.8-0.1,1-0.2s0.3-0.2,0.4-0.5
					c0.1-0.1,0.1-0.4,0.1-0.8v-1c-0.5,0.7-1.2,1.1-2,1.1c-0.9,0-1.6-0.4-2.2-1.1c-0.4-0.6-0.6-1.4-0.6-2.3c0-1.1,0.3-2,0.8-2.6
					s1.2-0.9,2-0.9s1.5,0.4,2.1,1.1v-0.9h1.7v6c0,0.8-0.1,1.4-0.2,1.8s-0.3,0.7-0.6,0.9c-0.2,0.2-0.6,0.4-0.9,0.5
					c-0.4,0.1-0.9,0.2-1.5,0.2c-1.1,0-2-0.2-2.4-0.6s-0.7-0.9-0.7-1.5C433,370.6,433,370.5,433,370.4z M434.6,366.5
					c0,0.7,0.1,1.2,0.4,1.6c0.3,0.3,0.6,0.5,1,0.5s0.8-0.2,1.1-0.5s0.5-0.8,0.5-1.5s-0.1-1.2-0.4-1.6c-0.3-0.3-0.7-0.5-1.1-0.5
					s-0.8,0.2-1.1,0.5C434.8,365.3,434.6,365.8,434.6,366.5z"/>
				<path d="M445,367.9l1.8,0.3c-0.2,0.7-0.6,1.1-1.1,1.5c-0.5,0.3-1.1,0.5-1.9,0.5c-1.2,0-2-0.4-2.6-1.1c-0.4-0.6-0.7-1.4-0.7-2.3
					c0-1.1,0.3-2,0.9-2.6s1.3-0.9,2.2-0.9c1,0,1.8,0.3,2.4,1s0.9,1.7,0.8,3h-4.5c0,0.5,0.2,0.9,0.4,1.2c0.3,0.3,0.6,0.4,1,0.4
					c0.3,0,0.5-0.1,0.7-0.2S444.9,368.2,445,367.9z M445.1,366.1c0-0.5-0.1-0.9-0.4-1.2s-0.6-0.4-0.9-0.4c-0.4,0-0.7,0.1-1,0.4
					s-0.4,0.7-0.4,1.2H445.1z"/>
				<path d="M447.9,366.5c0-0.6,0.1-1.2,0.4-1.7c0.3-0.6,0.7-1,1.2-1.3s1.1-0.4,1.8-0.4c1,0,1.9,0.3,2.5,1c0.7,0.7,1,1.5,1,2.5
					s-0.3,1.9-1,2.5c-0.7,0.7-1.5,1-2.5,1c-0.6,0-1.2-0.1-1.8-0.4s-1-0.7-1.3-1.2C448.1,368,447.9,367.3,447.9,366.5z M449.8,366.6
					c0,0.7,0.2,1.2,0.5,1.5s0.7,0.5,1.2,0.5s0.9-0.2,1.2-0.5c0.3-0.4,0.5-0.9,0.5-1.5c0-0.7-0.2-1.2-0.5-1.5
					c-0.3-0.4-0.7-0.5-1.2-0.5s-0.9,0.2-1.2,0.5S449.8,366,449.8,366.6z"/>
				<path d="M458,363.3v6.5c0,0.9-0.1,1.5-0.2,1.8s-0.3,0.6-0.6,0.8c-0.3,0.2-0.7,0.3-1.2,0.3c-0.2,0-0.4,0-0.6,0s-0.4-0.1-0.7-0.1
					l0.3-1.5c0.1,0,0.2,0,0.2,0c0.1,0,0.1,0,0.2,0c0.2,0,0.3,0,0.4-0.1s0.2-0.2,0.2-0.3c0-0.1,0.1-0.4,0.1-1v-6.4L458,363.3
					L458,363.3z M456.3,362.3v-1.7h1.8v1.7H456.3z"/>
				<path d="M459.3,368.1l1.8-0.3c0.1,0.3,0.2,0.6,0.5,0.8s0.6,0.3,1,0.3c0.5,0,0.8-0.1,1-0.3c0.2-0.1,0.2-0.3,0.2-0.5
					c0-0.1,0-0.2-0.1-0.3c-0.1-0.1-0.3-0.2-0.6-0.2c-1.4-0.3-2.3-0.6-2.7-0.9c-0.5-0.4-0.8-0.9-0.8-1.5s0.2-1.1,0.7-1.5
					s1.2-0.6,2.1-0.6s1.6,0.2,2.1,0.5c0.4,0.3,0.8,0.7,0.9,1.3l-1.7,0.3c-0.1-0.3-0.2-0.5-0.4-0.6c-0.2-0.1-0.5-0.2-0.9-0.2
					c-0.5,0-0.8,0.1-1,0.2c-0.1,0.1-0.2,0.2-0.2,0.4c0,0.1,0.1,0.2,0.2,0.3c0.2,0.1,0.7,0.3,1.7,0.5s1.6,0.5,2,0.8s0.6,0.8,0.6,1.3
					c0,0.6-0.3,1.1-0.8,1.6c-0.5,0.4-1.3,0.7-2.3,0.7c-0.9,0-1.6-0.2-2.2-0.6S459.4,368.7,459.3,368.1z"/>
				<path d="M466.7,366.5c0-0.6,0.1-1.2,0.4-1.7c0.3-0.6,0.7-1,1.2-1.3s1.1-0.4,1.8-0.4c1,0,1.9,0.3,2.5,1s1,1.5,1,2.5
					s-0.3,1.9-1,2.5s-1.5,1-2.5,1c-0.6,0-1.2-0.1-1.8-0.4c-0.6-0.3-1-0.7-1.3-1.2C466.9,368,466.7,367.3,466.7,366.5z M468.6,366.6
					c0,0.7,0.2,1.2,0.5,1.5c0.3,0.4,0.7,0.5,1.2,0.5s0.9-0.2,1.2-0.5c0.3-0.4,0.5-0.9,0.5-1.5c0-0.7-0.2-1.2-0.5-1.5
					c-0.3-0.4-0.7-0.5-1.2-0.5s-0.9,0.2-1.2,0.5C468.7,365.4,468.6,366,468.6,366.6z"/>
				<path d="M481.2,370h-1.8v-3.4c0-0.7,0-1.2-0.1-1.4s-0.2-0.4-0.4-0.5c-0.2-0.1-0.4-0.2-0.6-0.2c-0.3,0-0.6,0.1-0.8,0.3
					c-0.2,0.2-0.4,0.4-0.5,0.7c-0.1,0.3-0.1,0.8-0.1,1.5v3.1h-1.8v-6.7h1.7v1c0.6-0.8,1.3-1.1,2.2-1.1c0.4,0,0.8,0.1,1.1,0.2
					c0.3,0.1,0.6,0.3,0.7,0.5c0.2,0.2,0.3,0.5,0.3,0.8c0.1,0.3,0.1,0.7,0.1,1.2L481.2,370L481.2,370z"/>
			</g>
		</g>
	</g>
	<g transform="translate(-78,-30) scale(1,1)">
		<rect x="623" y="367" class="st1" width="71" height="44"/>
	</g>
	<g transform="translate(-78,-30) scale(1,1)">
		<rect x="616" y="360" class="st2" width="71" height="44"/>
	</g>
	<g transform="translate(-78,-30) scale(1,1)">
		<path class="st3" d="M616,360h71v44h-71V360z"/>
	</g>
	<g transform="translate(-78,-30) scale(1,1)">
		<path class="st3" d="M616,385h71"/>
	</g>
	<g transform="translate(-78,-30) scale(1,1)">
		<path class="st3" d="M616,395h71"/>
	</g>
	<g transform="translate(-78,-30) scale(1,1)">
		<g>
			<path class="st3" d="M0,0"/>
			<g class="st4">
				<path d="M623,371.8l-1.6-0.3c0.2-0.7,0.5-1.1,0.9-1.4s1.1-0.5,2-0.5c0.8,0,1.4,0.1,1.8,0.3c0.4,0.2,0.7,0.4,0.8,0.7
					c0.2,0.3,0.2,0.8,0.2,1.6v2.1c0,0.6,0,1,0.1,1.3s0.2,0.6,0.3,0.9h-1.8c0-0.1-0.1-0.3-0.2-0.5c0-0.1-0.1-0.2-0.1-0.2
					c-0.3,0.3-0.6,0.5-1,0.7c-0.3,0.1-0.7,0.2-1.1,0.2c-0.7,0-1.2-0.2-1.6-0.6c-0.4-0.4-0.6-0.9-0.6-1.4c0-0.4,0.1-0.7,0.3-1
					s0.4-0.5,0.8-0.7c0.3-0.2,0.8-0.3,1.4-0.4c0.8-0.2,1.4-0.3,1.7-0.4V372c0-0.3-0.1-0.6-0.3-0.7s-0.5-0.2-1-0.2
					c-0.3,0-0.6,0.1-0.7,0.2S623.2,371.5,623,371.8z M625.4,373.3c-0.2,0.1-0.6,0.2-1.1,0.3c-0.5,0.1-0.8,0.2-1,0.3
					c-0.2,0.2-0.3,0.4-0.3,0.6s0.1,0.5,0.3,0.6c0.2,0.2,0.4,0.3,0.7,0.3s0.6-0.1,0.9-0.3c0.2-0.2,0.4-0.4,0.4-0.6s0.1-0.4,0.1-0.9
					L625.4,373.3L625.4,373.3z"/>
				<path d="M634.8,371.8l-1.8,0.3c-0.1-0.4-0.2-0.6-0.4-0.8c-0.2-0.2-0.5-0.3-0.8-0.3c-0.4,0-0.8,0.2-1.1,0.5s-0.4,0.8-0.4,1.5
					c0,0.8,0.1,1.4,0.4,1.7s0.6,0.5,1.1,0.5c0.3,0,0.6-0.1,0.8-0.3s0.4-0.5,0.5-1l1.8,0.3c-0.2,0.8-0.5,1.4-1,1.8s-1.2,0.6-2.1,0.6
					c-1,0-1.8-0.3-2.4-0.9c-0.6-0.6-0.9-1.5-0.9-2.6s0.3-2,0.9-2.6c0.6-0.6,1.4-0.9,2.4-0.9c0.8,0,1.5,0.2,2,0.5
					C634.3,370.5,634.6,371,634.8,371.8z"/>
				<path d="M642,371.8l-1.8,0.3c-0.1-0.4-0.2-0.6-0.4-0.8c-0.2-0.2-0.5-0.3-0.8-0.3c-0.4,0-0.8,0.2-1.1,0.5s-0.4,0.8-0.4,1.5
					c0,0.8,0.1,1.4,0.4,1.7c0.3,0.3,0.6,0.5,1.1,0.5c0.3,0,0.6-0.1,0.8-0.3s0.4-0.5,0.5-1l1.8,0.3c-0.2,0.8-0.5,1.4-1,1.8
					s-1.2,0.6-2.1,0.6c-1,0-1.8-0.3-2.4-0.9c-0.6-0.6-0.9-1.5-0.9-2.6s0.3-2,0.9-2.6c0.6-0.6,1.4-0.9,2.4-0.9c0.8,0,1.5,0.2,2,0.5
					S641.8,371,642,371.8z"/>
				<path d="M647.3,374.4l1.8,0.3c-0.2,0.7-0.6,1.1-1.1,1.5s-1.1,0.5-1.9,0.5c-1.2,0-2-0.4-2.6-1.1c-0.4-0.6-0.7-1.4-0.7-2.3
					c0-1.1,0.3-2,0.9-2.6s1.3-0.9,2.2-0.9c1,0,1.8,0.3,2.4,1c0.6,0.7,0.9,1.7,0.8,3h-4.5c0,0.5,0.2,0.9,0.4,1.2
					c0.3,0.3,0.6,0.4,1,0.4c0.3,0,0.5-0.1,0.7-0.2S647.2,374.7,647.3,374.4z M647.4,372.6c0-0.5-0.1-0.9-0.4-1.2s-0.6-0.4-0.9-0.4
					c-0.4,0-0.7,0.1-1,0.4s-0.4,0.7-0.4,1.2H647.4z"/>
				<path d="M650,374.6l1.8-0.3c0.1,0.3,0.2,0.6,0.5,0.8c0.2,0.2,0.6,0.3,1,0.3c0.5,0,0.8-0.1,1-0.3c0.2-0.1,0.2-0.3,0.2-0.5
					c0-0.1,0-0.2-0.1-0.3c-0.1-0.1-0.3-0.2-0.6-0.2c-1.4-0.3-2.4-0.6-2.7-0.9c-0.5-0.4-0.8-0.9-0.8-1.5s0.2-1.1,0.7-1.5
					s1.2-0.6,2.1-0.6c0.9,0,1.6,0.2,2.1,0.5c0.4,0.3,0.8,0.7,0.9,1.3l-1.7,0.3c-0.1-0.3-0.2-0.5-0.4-0.6s-0.5-0.2-0.9-0.2
					c-0.5,0-0.8,0.1-1,0.2c-0.1,0.1-0.2,0.2-0.2,0.4c0,0.1,0.1,0.2,0.2,0.3c0.2,0.1,0.7,0.3,1.7,0.5s1.6,0.5,2,0.8s0.6,0.8,0.6,1.3
					c0,0.6-0.3,1.1-0.8,1.6c-0.5,0.4-1.3,0.7-2.3,0.7c-0.9,0-1.6-0.2-2.2-0.6C650.5,375.7,650.2,375.2,650,374.6z"/>
				<path d="M657.9,376.5v-1.8h1.8v1.8H657.9z"/>
				<path d="M667.3,371.8l-1.8,0.3c-0.1-0.4-0.2-0.6-0.4-0.8c-0.2-0.2-0.5-0.3-0.8-0.3c-0.4,0-0.8,0.2-1.1,0.5s-0.4,0.8-0.4,1.5
					c0,0.8,0.1,1.4,0.4,1.7c0.3,0.3,0.6,0.5,1.1,0.5c0.3,0,0.6-0.1,0.8-0.3s0.4-0.5,0.5-1l1.8,0.3c-0.2,0.8-0.5,1.4-1,1.8
					s-1.2,0.6-2.1,0.6c-1,0-1.8-0.3-2.4-0.9c-0.6-0.6-0.9-1.5-0.9-2.6s0.3-2,0.9-2.6c0.6-0.6,1.4-0.9,2.4-0.9c0.8,0,1.5,0.2,2,0.5
					S667.1,371,667.3,371.8z"/>
				<path d="M668.1,374.6l1.8-0.3c0.1,0.3,0.2,0.6,0.5,0.8c0.2,0.2,0.6,0.3,1,0.3c0.5,0,0.8-0.1,1-0.3c0.2-0.1,0.2-0.3,0.2-0.5
					c0-0.1,0-0.2-0.1-0.3c-0.1-0.1-0.3-0.2-0.6-0.2c-1.4-0.3-2.4-0.6-2.7-0.9c-0.5-0.4-0.8-0.9-0.8-1.5s0.2-1.1,0.7-1.5
					s1.2-0.6,2.1-0.6c0.9,0,1.6,0.2,2.1,0.5c0.4,0.3,0.8,0.7,0.9,1.3l-1.7,0.3c-0.1-0.3-0.2-0.5-0.4-0.6s-0.5-0.2-0.9-0.2
					c-0.5,0-0.8,0.1-1,0.2c-0.1,0.1-0.2,0.2-0.2,0.4c0,0.1,0.1,0.2,0.2,0.3c0.2,0.1,0.7,0.3,1.7,0.5s1.6,0.5,2,0.8s0.6,0.8,0.6,1.3
					c0,0.6-0.3,1.1-0.8,1.6c-0.5,0.4-1.3,0.7-2.3,0.7c-0.9,0-1.6-0.2-2.2-0.6S668.2,375.2,668.1,374.6z"/>
				<path d="M675.3,374.6l1.8-0.3c0.1,0.3,0.2,0.6,0.5,0.8c0.2,0.2,0.6,0.3,1,0.3c0.5,0,0.8-0.1,1-0.3c0.2-0.1,0.2-0.3,0.2-0.5
					c0-0.1,0-0.2-0.1-0.3c-0.1-0.1-0.3-0.2-0.6-0.2c-1.4-0.3-2.4-0.6-2.7-0.9c-0.5-0.4-0.8-0.9-0.8-1.5s0.2-1.1,0.7-1.5
					s1.2-0.6,2.1-0.6c0.9,0,1.6,0.2,2.1,0.5c0.4,0.3,0.8,0.7,0.9,1.3l-1.7,0.3c-0.1-0.3-0.2-0.5-0.4-0.6s-0.5-0.2-0.9-0.2
					c-0.5,0-0.8,0.1-1,0.2c-0.1,0.1-0.2,0.2-0.2,0.4c0,0.1,0.1,0.2,0.2,0.3c0.2,0.1,0.7,0.3,1.7,0.5s1.6,0.5,2,0.8s0.6,0.8,0.6,1.3
					c0,0.6-0.3,1.1-0.8,1.6c-0.5,0.4-1.3,0.7-2.3,0.7c-0.9,0-1.6-0.2-2.2-0.6C675.8,375.7,675.5,375.2,675.3,374.6z"/>
			</g>
		</g>
	</g>
	<g transform="translate(-78,-30) scale(1,1)">
		<rect x="135" y="111" class="st1" width="68.3" height="47"/>
	</g>
	<g transform="translate(-78,-30) scale(1,1)">
		<rect x="128" y="104" class="st2" width="68.3" height="47"/>
	</g>
	<g transform="translate(-78,-30) scale(1,1)">
		<path class="st3" d="M128,104h68.3v47H128V104z"/>
	</g>
	<g transform="translate(-78,-30) scale(1,1)">
		<path class="st3" d="M128,129h68.3"/>
	</g>
	<g transform="translate(-78,-30) scale(1,1)">
		<path class="st3" d="M128,139h68.3"/>
	</g>
	<g transform="translate(-78,-30) scale(1,1)">
		<g>
			<path class="st3" d="M0,0"/>
			<g class="st4">
				<path d="M133.4,114.3v-1.7h1.8v1.7H133.4z M133.4,122v-6.7h1.8v6.7H133.4z"/>
				<path d="M143.2,122h-1.8v-3.4c0-0.7,0-1.2-0.1-1.4s-0.2-0.4-0.4-0.5s-0.4-0.2-0.6-0.2c-0.3,0-0.6,0.1-0.8,0.3
					c-0.2,0.2-0.4,0.4-0.5,0.7c-0.1,0.3-0.1,0.8-0.1,1.5v3.1H137v-6.7h1.7v1c0.6-0.8,1.3-1.1,2.2-1.1c0.4,0,0.8,0.1,1.1,0.2
					s0.6,0.3,0.7,0.5c0.2,0.2,0.3,0.5,0.3,0.8c0.1,0.3,0.1,0.7,0.1,1.2L143.2,122L143.2,122z"/>
				<path d="M151.2,122h-1.7v-1c-0.3,0.4-0.6,0.7-1,0.9c-0.4,0.2-0.8,0.3-1.1,0.3c-0.8,0-1.4-0.3-2-0.9s-0.8-1.5-0.8-2.6
					s0.3-2,0.8-2.6s1.2-0.9,2-0.9s1.4,0.3,2,0.9v-3.4h1.8V122z M146.4,118.5c0,0.7,0.1,1.2,0.3,1.6c0.3,0.5,0.7,0.7,1.2,0.7
					c0.4,0,0.8-0.2,1-0.5c0.3-0.3,0.4-0.9,0.4-1.6c0-0.8-0.1-1.3-0.4-1.7s-0.6-0.5-1.1-0.5c-0.4,0-0.8,0.2-1.1,0.5
					C146.6,117.3,146.4,117.8,146.4,118.5z"/>
				<path d="M156.8,119.9l1.8,0.3c-0.2,0.7-0.6,1.1-1.1,1.5c-0.5,0.3-1.1,0.5-1.9,0.5c-1.2,0-2-0.4-2.6-1.1
					c-0.4-0.6-0.7-1.4-0.7-2.3c0-1.1,0.3-2,0.9-2.6s1.3-0.9,2.2-0.9c1,0,1.8,0.3,2.4,1s0.9,1.7,0.8,3h-4.5c0,0.5,0.2,0.9,0.4,1.2
					s0.6,0.4,1,0.4c0.3,0,0.5-0.1,0.7-0.2S156.7,120.2,156.8,119.9z M156.9,118.1c0-0.5-0.1-0.9-0.4-1.2s-0.6-0.4-0.9-0.4
					c-0.4,0-0.7,0.1-1,0.4s-0.4,0.7-0.4,1.2H156.9z"/>
				<path d="M159.3,122l2.4-3.5l-2.3-3.3h2.2l1.2,1.9l1.3-1.9h2.1l-2.3,3.2l2.5,3.5h-2.2l-1.4-2.1l-1.4,2.1h-2.1V122z"/>
				<path d="M167.4,122v-1.8h1.8v1.8H167.4z"/>
				<path d="M176.9,117.3l-1.8,0.3c-0.1-0.4-0.2-0.6-0.4-0.8c-0.2-0.2-0.5-0.3-0.8-0.3c-0.4,0-0.8,0.2-1.1,0.5s-0.4,0.8-0.4,1.5
					c0,0.8,0.1,1.4,0.4,1.7c0.3,0.3,0.6,0.5,1.1,0.5c0.3,0,0.6-0.1,0.8-0.3s0.4-0.5,0.5-1l1.8,0.3c-0.2,0.8-0.5,1.4-1,1.8
					s-1.2,0.6-2.1,0.6c-1,0-1.8-0.3-2.4-0.9c-0.6-0.6-0.9-1.5-0.9-2.6s0.3-2,0.9-2.6s1.4-0.9,2.4-0.9c0.8,0,1.5,0.2,2,0.5
					C176.3,116,176.7,116.5,176.9,117.3z"/>
				<path d="M177.6,120.1l1.8-0.3c0.1,0.3,0.2,0.6,0.5,0.8s0.6,0.3,1,0.3c0.5,0,0.8-0.1,1-0.3c0.2-0.1,0.2-0.3,0.2-0.5
					c0-0.1,0-0.2-0.1-0.3c-0.1-0.1-0.3-0.2-0.6-0.2c-1.4-0.3-2.4-0.6-2.7-0.9c-0.5-0.4-0.8-0.9-0.8-1.5s0.2-1.1,0.7-1.5
					s1.2-0.6,2.1-0.6c0.9,0,1.6,0.2,2.1,0.5c0.4,0.3,0.8,0.7,0.9,1.3l-1.7,0.3c-0.1-0.3-0.2-0.5-0.4-0.6s-0.5-0.2-0.9-0.2
					c-0.5,0-0.8,0.1-1,0.2c-0.1,0.1-0.2,0.2-0.2,0.4c0,0.1,0.1,0.2,0.2,0.3c0.2,0.1,0.7,0.3,1.7,0.5s1.6,0.5,2,0.8s0.6,0.8,0.6,1.3
					c0,0.6-0.3,1.1-0.8,1.6c-0.5,0.4-1.3,0.7-2.3,0.7c-0.9,0-1.6-0.2-2.2-0.6C178.1,121.2,177.8,120.7,177.6,120.1z"/>
				<path d="M184.8,120.1l1.8-0.3c0.1,0.3,0.2,0.6,0.5,0.8s0.6,0.3,1,0.3c0.5,0,0.8-0.1,1-0.3c0.2-0.1,0.2-0.3,0.2-0.5
					c0-0.1,0-0.2-0.1-0.3c-0.1-0.1-0.3-0.2-0.6-0.2c-1.4-0.3-2.4-0.6-2.7-0.9c-0.5-0.4-0.8-0.9-0.8-1.5s0.2-1.1,0.7-1.5
					s1.2-0.6,2.1-0.6c0.9,0,1.6,0.2,2.1,0.5c0.4,0.3,0.8,0.7,0.9,1.3l-1.7,0.3c-0.1-0.3-0.2-0.5-0.4-0.6s-0.5-0.2-0.9-0.2
					c-0.5,0-0.8,0.1-1,0.2c-0.1,0.1-0.2,0.2-0.2,0.4c0,0.1,0.1,0.2,0.2,0.3c0.2,0.1,0.7,0.3,1.7,0.5s1.6,0.5,2,0.8s0.6,0.8,0.6,1.3
					c0,0.6-0.3,1.1-0.8,1.6c-0.5,0.4-1.3,0.7-2.3,0.7c-0.9,0-1.6-0.2-2.2-0.6C185.3,121.2,185,120.7,184.8,120.1z"/>
			</g>
		</g>
	</g>
	<g transform="translate(-78,-30) scale(1,1)">
		<rect x="175" y="423" class="st1" width="58.1" height="44"/>
	</g>
	<g transform="translate(-78,-30) scale(1,1)">
		<rect x="168" y="416" class="st2" width="58.1" height="44"/>
	</g>
	<g transform="translate(-78,-30) scale(1,1)">
		<path class="st3" d="M168,416h58.1v44H168V416z"/>
	</g>
	<g transform="translate(-78,-30) scale(1,1)">
		<path class="st3" d="M168,441h58.1"/>
	</g>
	<g transform="translate(-78,-30) scale(1,1)">
		<path class="st3" d="M168,451h58.1"/>
	</g>
	<g transform="translate(-78,-30) scale(1,1)">
		<g>
			<path class="st3" d="M0,0"/>
			<g class="st4">
				<path d="M173.4,426.3v-1.7h1.8v1.7H173.4z M173.4,434v-6.7h1.8v6.7H173.4z"/>
				<path d="M183.2,434h-1.8v-3.4c0-0.7,0-1.2-0.1-1.4s-0.2-0.4-0.4-0.5s-0.4-0.2-0.6-0.2c-0.3,0-0.6,0.1-0.8,0.3
					c-0.2,0.2-0.4,0.4-0.5,0.7c-0.1,0.3-0.1,0.8-0.1,1.5v3.1H177v-6.7h1.7v1c0.6-0.8,1.3-1.1,2.2-1.1c0.4,0,0.8,0.1,1.1,0.2
					s0.6,0.3,0.7,0.5c0.2,0.2,0.3,0.5,0.3,0.8c0.1,0.3,0.1,0.7,0.1,1.2L183.2,434L183.2,434z"/>
				<path d="M184.2,427.3h1v-0.5c0-0.6,0.1-1,0.2-1.3c0.1-0.3,0.3-0.5,0.7-0.7c0.3-0.2,0.7-0.3,1.2-0.3s1,0.1,1.5,0.2l-0.2,1.2
					c-0.3-0.1-0.6-0.1-0.8-0.1c-0.3,0-0.4,0.1-0.6,0.2c-0.1,0.1-0.2,0.4-0.2,0.7v0.5h1.3v1.4H187v5.3h-1.8v-5.3h-1V427.3z"/>
				<path d="M188.9,430.5c0-0.6,0.1-1.2,0.4-1.7c0.3-0.6,0.7-1,1.2-1.3s1.1-0.4,1.8-0.4c1,0,1.9,0.3,2.5,1s1,1.5,1,2.5
					s-0.3,1.9-1,2.5c-0.7,0.7-1.5,1-2.5,1c-0.6,0-1.2-0.1-1.8-0.4s-1-0.7-1.3-1.2C189,432,188.9,431.3,188.9,430.5z M190.7,430.6
					c0,0.7,0.2,1.2,0.5,1.5s0.7,0.5,1.2,0.5s0.9-0.2,1.2-0.5c0.3-0.4,0.5-0.9,0.5-1.5c0-0.7-0.2-1.2-0.5-1.5
					c-0.3-0.4-0.7-0.5-1.2-0.5s-0.9,0.2-1.2,0.5S190.7,430,190.7,430.6z"/>
				<path d="M197.3,434v-1.8h1.8v1.8H197.3z"/>
				<path d="M206.7,429.3l-1.8,0.3c-0.1-0.4-0.2-0.6-0.4-0.8c-0.2-0.2-0.5-0.3-0.8-0.3c-0.4,0-0.8,0.2-1.1,0.5s-0.4,0.8-0.4,1.5
					c0,0.8,0.1,1.4,0.4,1.7c0.3,0.3,0.6,0.5,1.1,0.5c0.3,0,0.6-0.1,0.8-0.3s0.4-0.5,0.5-1l1.8,0.3c-0.2,0.8-0.5,1.4-1,1.8
					s-1.2,0.6-2.1,0.6c-1,0-1.8-0.3-2.4-0.9c-0.6-0.6-0.9-1.5-0.9-2.6s0.3-2,0.9-2.6s1.4-0.9,2.4-0.9c0.8,0,1.5,0.2,2,0.5
					C206.2,428,206.5,428.5,206.7,429.3z"/>
				<path d="M207.5,432.1l1.8-0.3c0.1,0.3,0.2,0.6,0.5,0.8s0.6,0.3,1,0.3c0.5,0,0.8-0.1,1-0.3c0.2-0.1,0.2-0.3,0.2-0.5
					c0-0.1,0-0.2-0.1-0.3c-0.1-0.1-0.3-0.2-0.6-0.2c-1.4-0.3-2.4-0.6-2.7-0.9c-0.5-0.4-0.8-0.9-0.8-1.5s0.2-1.1,0.7-1.5
					s1.2-0.6,2.1-0.6c0.9,0,1.6,0.2,2.1,0.5c0.4,0.3,0.8,0.7,0.9,1.3l-1.7,0.3c-0.1-0.3-0.2-0.5-0.4-0.6s-0.5-0.2-0.9-0.2
					c-0.5,0-0.8,0.1-1,0.2c-0.1,0.1-0.2,0.2-0.2,0.4c0,0.1,0.1,0.2,0.2,0.3c0.2,0.1,0.7,0.3,1.7,0.5s1.6,0.5,2,0.8s0.6,0.8,0.6,1.3
					c0,0.6-0.3,1.1-0.8,1.6c-0.5,0.4-1.3,0.7-2.3,0.7c-0.9,0-1.6-0.2-2.2-0.6C208,433.2,207.6,432.7,207.5,432.1z"/>
				<path d="M214.7,432.1l1.8-0.3c0.1,0.3,0.2,0.6,0.5,0.8s0.6,0.3,1,0.3c0.5,0,0.8-0.1,1-0.3c0.2-0.1,0.2-0.3,0.2-0.5
					c0-0.1,0-0.2-0.1-0.3c-0.1-0.1-0.3-0.2-0.6-0.2c-1.4-0.3-2.4-0.6-2.7-0.9c-0.5-0.4-0.8-0.9-0.8-1.5s0.2-1.1,0.7-1.5
					s1.2-0.6,2.1-0.6c0.9,0,1.6,0.2,2.1,0.5c0.4,0.3,0.8,0.7,0.9,1.3l-1.7,0.3c-0.1-0.3-0.2-0.5-0.4-0.6s-0.5-0.2-0.9-0.2
					c-0.5,0-0.8,0.1-1,0.2c-0.1,0.1-0.2,0.2-0.2,0.4c0,0.1,0.1,0.2,0.2,0.3c0.2,0.1,0.7,0.3,1.7,0.5s1.6,0.5,2,0.8s0.6,0.8,0.6,1.3
					c0,0.6-0.3,1.1-0.8,1.6c-0.5,0.4-1.3,0.7-2.3,0.7c-0.9,0-1.6-0.2-2.2-0.6C215.2,433.2,214.9,432.7,214.7,432.1z"/>
			</g>
		</g>
	</g>
	<g transform="translate(-78,-30) scale(1,1)">
		<rect x="263" y="359" class="st1" width="61" height="44"/>
	</g>
	<g transform="translate(-78,-30) scale(1,1)">
		<rect x="256" y="352" class="st2" width="61" height="44"/>
	</g>
	<g transform="translate(-78,-30) scale(1,1)">
		<path class="st3" d="M256,352h61v44h-61V352z"/>
	</g>
	<g transform="translate(-78,-30) scale(1,1)">
		<path class="st3" d="M256,377h61"/>
	</g>
	<g transform="translate(-78,-30) scale(1,1)">
		<path class="st3" d="M256,387h61"/>
	</g>
	<g transform="translate(-78,-30) scale(1,1)">
		<g>
			<path class="st3" d="M0,0"/>
			<g class="st4">
				<path d="M261.3,361.8h1.6v0.9c0.6-0.7,1.3-1.1,2.1-1.1c0.4,0,0.8,0.1,1.1,0.3s0.6,0.4,0.8,0.8c0.3-0.4,0.6-0.6,1-0.8
					s0.7-0.3,1.1-0.3c0.5,0,0.9,0.1,1.3,0.3s0.6,0.5,0.8,0.9c0.1,0.3,0.2,0.8,0.2,1.4v4.3h-1.8v-3.9c0-0.7-0.1-1.1-0.2-1.3
					c-0.2-0.3-0.4-0.4-0.8-0.4c-0.2,0-0.5,0.1-0.7,0.2s-0.4,0.4-0.5,0.7s-0.1,0.8-0.1,1.4v3.2h-1.8v-3.7c0-0.7,0-1.1-0.1-1.3
					s-0.2-0.3-0.3-0.4c-0.1-0.1-0.3-0.1-0.5-0.1c-0.3,0-0.5,0.1-0.7,0.2s-0.4,0.4-0.5,0.6c-0.1,0.3-0.1,0.7-0.1,1.4v3.3h-1.8v-6.6
					H261.3z"/>
				<path d="M274.3,363.8l-1.6-0.3c0.2-0.7,0.5-1.1,0.9-1.4s1.1-0.5,2-0.5c0.8,0,1.4,0.1,1.8,0.3s0.7,0.4,0.8,0.7
					c0.2,0.3,0.2,0.8,0.2,1.6v2.1c0,0.6,0,1,0.1,1.3s0.2,0.6,0.3,0.9H277c0-0.1-0.1-0.3-0.2-0.5c0-0.1-0.1-0.2-0.1-0.2
					c-0.3,0.3-0.6,0.5-1,0.7c-0.3,0.1-0.7,0.2-1.1,0.2c-0.7,0-1.2-0.2-1.6-0.6s-0.6-0.9-0.6-1.4c0-0.4,0.1-0.7,0.3-1
					c0.2-0.3,0.4-0.5,0.8-0.7c0.3-0.2,0.8-0.3,1.4-0.4c0.8-0.2,1.4-0.3,1.7-0.4V364c0-0.3-0.1-0.6-0.3-0.7c-0.2-0.1-0.5-0.2-1-0.2
					c-0.3,0-0.6,0.1-0.7,0.2S274.4,363.5,274.3,363.8z M276.7,365.3c-0.2,0.1-0.6,0.2-1.1,0.3c-0.5,0.1-0.8,0.2-1,0.3
					c-0.2,0.2-0.3,0.4-0.3,0.6s0.1,0.5,0.3,0.6c0.2,0.2,0.4,0.3,0.7,0.3c0.3,0,0.6-0.1,0.9-0.3c0.2-0.2,0.4-0.4,0.4-0.6
					s0.1-0.4,0.1-0.9V365.3z"/>
				<path d="M280.2,361.8h1.7v1c0.2-0.3,0.5-0.6,0.9-0.8s0.8-0.3,1.2-0.3c0.8,0,1.4,0.3,2,0.9c0.5,0.6,0.8,1.5,0.8,2.6
					s-0.3,2-0.8,2.6s-1.2,0.9-2,0.9c-0.4,0-0.7-0.1-1-0.2s-0.6-0.4-1-0.8v3.4h-1.8L280.2,361.8L280.2,361.8z M281.9,365
					c0,0.8,0.2,1.3,0.5,1.7c0.3,0.4,0.7,0.5,1.1,0.5s0.8-0.2,1-0.5s0.4-0.9,0.4-1.6s-0.1-1.2-0.4-1.6c-0.3-0.3-0.6-0.5-1.1-0.5
					c-0.4,0-0.8,0.2-1.1,0.5C282.1,363.9,281.9,364.4,281.9,365z"/>
				<path d="M288.2,368.5v-1.8h1.8v1.8H288.2z"/>
				<path d="M297.7,363.8l-1.8,0.3c-0.1-0.4-0.2-0.6-0.4-0.8c-0.2-0.2-0.5-0.3-0.8-0.3c-0.4,0-0.8,0.2-1.1,0.5
					c-0.3,0.3-0.4,0.8-0.4,1.5c0,0.8,0.1,1.4,0.4,1.7c0.3,0.3,0.6,0.5,1.1,0.5c0.3,0,0.6-0.1,0.8-0.3s0.4-0.5,0.5-1l1.8,0.3
					c-0.2,0.8-0.5,1.4-1,1.8s-1.2,0.6-2.1,0.6c-1,0-1.8-0.3-2.4-0.9s-0.9-1.5-0.9-2.6s0.3-2,0.9-2.6s1.4-0.9,2.4-0.9
					c0.8,0,1.5,0.2,2,0.5C297.1,362.5,297.4,363,297.7,363.8z"/>
				<path d="M298.4,366.6l1.8-0.3c0.1,0.3,0.2,0.6,0.5,0.8s0.6,0.3,1,0.3c0.5,0,0.8-0.1,1-0.3c0.2-0.1,0.2-0.3,0.2-0.5
					c0-0.1,0-0.2-0.1-0.3c-0.1-0.1-0.3-0.2-0.6-0.2c-1.4-0.3-2.4-0.6-2.7-0.9c-0.5-0.4-0.8-0.9-0.8-1.5s0.2-1.1,0.7-1.5
					s1.2-0.6,2.1-0.6s1.6,0.2,2.1,0.5c0.4,0.3,0.8,0.7,0.9,1.3l-1.7,0.3c-0.1-0.3-0.2-0.5-0.4-0.6c-0.2-0.1-0.5-0.2-0.9-0.2
					c-0.5,0-0.8,0.1-1,0.2c-0.1,0.1-0.2,0.2-0.2,0.4c0,0.1,0.1,0.2,0.2,0.3c0.2,0.1,0.7,0.3,1.7,0.5s1.6,0.5,2,0.8s0.6,0.8,0.6,1.3
					c0,0.6-0.3,1.1-0.8,1.6c-0.5,0.4-1.3,0.7-2.3,0.7c-0.9,0-1.6-0.2-2.2-0.6C298.9,367.7,298.5,367.2,298.4,366.6z"/>
				<path d="M305.6,366.6l1.8-0.3c0.1,0.3,0.2,0.6,0.5,0.8s0.6,0.3,1,0.3c0.5,0,0.8-0.1,1-0.3c0.2-0.1,0.2-0.3,0.2-0.5
					c0-0.1,0-0.2-0.1-0.3c-0.1-0.1-0.3-0.2-0.6-0.2c-1.4-0.3-2.4-0.6-2.7-0.9c-0.5-0.4-0.8-0.9-0.8-1.5s0.2-1.1,0.7-1.5
					s1.2-0.6,2.1-0.6s1.6,0.2,2.1,0.5c0.4,0.3,0.8,0.7,0.9,1.3l-1.7,0.3c-0.1-0.3-0.2-0.5-0.4-0.6c-0.2-0.1-0.5-0.2-0.9-0.2
					c-0.5,0-0.8,0.1-1,0.2c-0.1,0.1-0.2,0.2-0.2,0.4c0,0.1,0.1,0.2,0.2,0.3c0.2,0.1,0.7,0.3,1.7,0.5s1.6,0.5,2,0.8s0.6,0.8,0.6,1.3
					c0,0.6-0.3,1.1-0.8,1.6c-0.5,0.4-1.3,0.7-2.3,0.7c-0.9,0-1.6-0.2-2.2-0.6C306.1,367.7,305.8,367.2,305.6,366.6z"/>
			</g>
		</g>
	</g>
	<g transform="translate(-78,-30) scale(1,1)">
		<rect x="503" y="367" class="st1" width="64.6" height="44"/>
	</g>
	<g transform="translate(-78,-30) scale(1,1)">
		<rect x="496" y="360" class="st2" width="64.6" height="44"/>
	</g>
	<g transform="translate(-78,-30) scale(1,1)">
		<path class="st3" d="M496,360h64.6v44H496V360z"/>
	</g>
	<g transform="translate(-78,-30) scale(1,1)">
		<path class="st3" d="M496,385h64.6"/>
	</g>
	<g transform="translate(-78,-30) scale(1,1)">
		<path class="st3" d="M496,395h64.6"/>
	</g>
	<g transform="translate(-78,-30) scale(1,1)">
		<g>
			<path class="st3" d="M0,0"/>
			<g class="st4">
				<path d="M504.5,371.3v1.4h-1.2v2.7c0,0.5,0,0.9,0,1s0.1,0.2,0.2,0.2c0.1,0.1,0.2,0.1,0.3,0.1c0.2,0,0.4-0.1,0.7-0.2l0.2,1.4
					c-0.4,0.2-0.9,0.3-1.4,0.3c-0.3,0-0.6-0.1-0.9-0.2s-0.4-0.2-0.6-0.4c-0.1-0.2-0.2-0.4-0.3-0.7c0-0.2-0.1-0.6-0.1-1.3v-2.9h-0.8
					v-1.4h0.8V370l1.8-1v2.4h1.3V371.3z"/>
				<path d="M507.1,373.3l-1.6-0.3c0.2-0.7,0.5-1.1,0.9-1.4s1.1-0.5,2-0.5c0.8,0,1.4,0.1,1.8,0.3s0.7,0.4,0.8,0.7
					c0.2,0.3,0.2,0.8,0.2,1.6v2.1c0,0.6,0,1,0.1,1.3s0.2,0.6,0.3,0.9h-1.8c0-0.1-0.1-0.3-0.2-0.5c0-0.1-0.1-0.2-0.1-0.2
					c-0.3,0.3-0.6,0.5-1,0.7c-0.3,0.1-0.7,0.2-1.1,0.2c-0.7,0-1.2-0.2-1.6-0.6s-0.6-0.9-0.6-1.4c0-0.4,0.1-0.7,0.3-1
					c0.2-0.3,0.4-0.5,0.8-0.7c0.3-0.2,0.8-0.3,1.4-0.4c0.8-0.2,1.4-0.3,1.7-0.4v-0.2c0-0.3-0.1-0.6-0.3-0.7c-0.2-0.1-0.5-0.2-1-0.2
					c-0.3,0-0.6,0.1-0.7,0.2S507.2,373,507.1,373.3z M509.5,374.8c-0.2,0.1-0.6,0.2-1.1,0.3c-0.5,0.1-0.8,0.2-1,0.3
					c-0.2,0.2-0.3,0.4-0.3,0.6s0.1,0.5,0.3,0.6c0.2,0.2,0.4,0.3,0.7,0.3c0.3,0,0.6-0.1,0.9-0.3c0.2-0.2,0.4-0.4,0.4-0.6
					s0.1-0.4,0.1-0.9V374.8z"/>
				<path d="M512.9,378v-9.3h1.8v3.4c0.6-0.6,1.2-0.9,2-0.9s1.5,0.3,2,0.9s0.8,1.4,0.8,2.6s-0.3,2-0.8,2.7c-0.5,0.6-1.2,0.9-2,0.9
					c-0.4,0-0.8-0.1-1.1-0.3s-0.7-0.5-1-0.9v1h-1.7V378z M514.7,374.5c0,0.7,0.1,1.2,0.3,1.5c0.3,0.5,0.7,0.7,1.2,0.7
					c0.4,0,0.7-0.2,1-0.5s0.4-0.9,0.4-1.6c0-0.8-0.1-1.3-0.4-1.7s-0.6-0.5-1.1-0.5c-0.4,0-0.8,0.2-1.1,0.5S514.7,373.8,514.7,374.5z
					"/>
				<path d="M520.9,378v-9.3h1.8v9.3H520.9z"/>
				<path d="M528.4,375.9l1.8,0.3c-0.2,0.7-0.6,1.1-1.1,1.5c-0.5,0.3-1.1,0.5-1.9,0.5c-1.2,0-2-0.4-2.6-1.1
					c-0.4-0.6-0.7-1.4-0.7-2.3c0-1.1,0.3-2,0.9-2.6s1.3-0.9,2.2-0.9c1,0,1.8,0.3,2.4,1c0.6,0.7,0.9,1.7,0.8,3h-4.5
					c0,0.5,0.2,0.9,0.4,1.2s0.6,0.4,1,0.4c0.3,0,0.5-0.1,0.7-0.2C528.2,376.4,528.4,376.2,528.4,375.9z M528.6,374.1
					c0-0.5-0.1-0.9-0.4-1.2s-0.6-0.4-0.9-0.4c-0.4,0-0.7,0.1-1,0.4s-0.4,0.7-0.4,1.2H528.6z"/>
				<path d="M531.8,378v-1.8h1.8v1.8H531.8z"/>
				<path d="M541.3,373.3l-1.8,0.3c-0.1-0.4-0.2-0.6-0.4-0.8s-0.5-0.3-0.8-0.3c-0.4,0-0.8,0.2-1.1,0.5s-0.4,0.8-0.4,1.5
					c0,0.8,0.1,1.4,0.4,1.7c0.3,0.3,0.6,0.5,1.1,0.5c0.3,0,0.6-0.1,0.8-0.3s0.4-0.5,0.5-1l1.8,0.3c-0.2,0.8-0.5,1.4-1,1.8
					s-1.2,0.6-2.1,0.6c-1,0-1.8-0.3-2.4-0.9c-0.6-0.6-0.9-1.5-0.9-2.6s0.3-2,0.9-2.6c0.6-0.6,1.4-0.9,2.4-0.9c0.8,0,1.5,0.2,2,0.5
					S541.1,372.5,541.3,373.3z"/>
				<path d="M542,376.1l1.8-0.3c0.1,0.3,0.2,0.6,0.5,0.8c0.2,0.2,0.6,0.3,1,0.3c0.5,0,0.8-0.1,1-0.3c0.2-0.1,0.2-0.3,0.2-0.5
					c0-0.1,0-0.2-0.1-0.3c-0.1-0.1-0.3-0.2-0.6-0.2c-1.4-0.3-2.4-0.6-2.7-0.9c-0.5-0.4-0.8-0.9-0.8-1.5s0.2-1.1,0.7-1.5
					s1.2-0.6,2.1-0.6c0.9,0,1.6,0.2,2.1,0.5c0.4,0.3,0.8,0.7,0.9,1.3l-1.7,0.3c-0.1-0.3-0.2-0.5-0.4-0.6s-0.5-0.2-0.9-0.2
					c-0.5,0-0.8,0.1-1,0.2c-0.1,0.1-0.2,0.2-0.2,0.4c0,0.1,0.1,0.2,0.2,0.3c0.2,0.1,0.7,0.3,1.7,0.5s1.6,0.5,2,0.8s0.6,0.8,0.6,1.3
					c0,0.6-0.3,1.1-0.8,1.6c-0.5,0.4-1.3,0.7-2.3,0.7c-0.9,0-1.6-0.2-2.2-0.6S542.2,376.7,542,376.1z"/>
				<path d="M549.2,376.1l1.8-0.3c0.1,0.3,0.2,0.6,0.5,0.8s0.6,0.3,1,0.3c0.5,0,0.8-0.1,1-0.3c0.2-0.1,0.2-0.3,0.2-0.5
					c0-0.1,0-0.2-0.1-0.3c-0.1-0.1-0.3-0.2-0.6-0.2c-1.4-0.3-2.4-0.6-2.7-0.9c-0.5-0.4-0.8-0.9-0.8-1.5s0.2-1.1,0.7-1.5
					s1.2-0.6,2.1-0.6c0.9,0,1.6,0.2,2.1,0.5c0.4,0.3,0.8,0.7,0.9,1.3l-1.7,0.3c-0.1-0.3-0.2-0.5-0.4-0.6s-0.5-0.2-0.9-0.2
					c-0.5,0-0.8,0.1-1,0.2c-0.1,0.1-0.2,0.2-0.2,0.4c0,0.1,0.1,0.2,0.2,0.3c0.2,0.1,0.7,0.3,1.7,0.5c0.9,0.2,1.6,0.5,2,0.8
					s0.6,0.8,0.6,1.3c0,0.6-0.3,1.1-0.8,1.6c-0.5,0.4-1.3,0.7-2.3,0.7c-0.9,0-1.6-0.2-2.2-0.6C549.7,377.2,549.4,376.7,549.2,376.1z
					"/>
			</g>
		</g>
	</g>
	<g transform="translate(-78,-30) scale(1,1)">
		<path class="st3" d="M287,325v26"/>
	</g>
	<g transform="translate(-78,-30) scale(1,1)">
		<path class="st5" d="M156,229v34"/>
	</g>
	<g transform="translate(-78,-30) scale(1,1)">
		<path class="st3" d="M151.8,252.8L156,263l4.2-10.2"/>
	</g>
	<g transform="translate(-78,-30) scale(1,1)">
		<path class="st5" d="M582,253l-27,27"/>
	</g>
	<g transform="translate(-78,-30) scale(1,1)">
		<path class="st3" d="M559.2,269.8L555,280l10.2-4.2"/>
	</g>
	<g transform="translate(-78,-30) scale(1,1)">
		<path class="st5" d="M287,253l1,26"/>
	</g>
	<g transform="translate(-78,-30) scale(1,1)">
		<path class="st3" d="M283.4,269l4.6,10l3.8-10.3"/>
	</g>
	<g transform="translate(-78,-30) scale(1,1)">
		<path class="st3" d="M529,335l-1,24"/>
	</g>
	<g transform="translate(-78,-30) scale(1,1)">
		<path class="st5" d="M438,85l3,34"/>
	</g>
	<g transform="translate(-78,-30) scale(1,1)">
		<path class="st3" d="M435.9,109.2l5.1,9.8l3.3-10.5"/>
	</g>
	<g transform="translate(-78,-30) scale(1,1)">
		<path class="st3" d="M136,263l-48-55l51-56"/>
	</g>
	<g transform="translate(-78,-30) scale(1,1)">
		<path class="st3" d="M197,119l202-48"/>
	</g>
	<g transform="translate(-78,-30) scale(1,1)">
		<path class="st5" d="M410,351v-26"/>
	</g>
	<g transform="translate(-78,-30) scale(1,1)">
		<path class="st3" d="M414.2,335.2L410,325l-4.2,10.2"/>
	</g>
	<g transform="translate(-78,-30) scale(1,1)">
		<path class="st5" d="M383,302h-53"/>
	</g>
	<g transform="translate(-78,-30) scale(1,1)">
		<path class="st3" d="M340.2,297.8L330,302l10.2,4.2"/>
	</g>
	<g transform="translate(-78,-30) scale(1,1)">
		<path class="st5" d="M227,351l33-26"/>
	</g>
	<g transform="translate(-78,-30) scale(1,1)">
		<path class="st3" d="M254.6,334.6l5.4-9.6l-10.6,3"/>
	</g>
	<g transform="translate(-78,-30) scale(1,1)">
		<path class="st3" d="M198,397v18"/>
	</g>
	<g transform="translate(-78,-30) scale(1,1)">
		<path class="st5" d="M604,253v26"/>
	</g>
	<g transform="translate(-78,-30) scale(1,1)">
		<path class="st3" d="M599.8,268.8L604,279l4.2-10.2"/>
	</g>
	<g transform="translate(-78,-30) scale(1,1)">
		<path class="st5" d="M632,253l31,26"/>
	</g>
	<g transform="translate(-78,-30) scale(1,1)">
		<path class="st3" d="M652.5,275.7L663,279l-5.1-9.8"/>
	</g>
	<g transform="translate(-78,-30) scale(1,1)">
		<path class="st3" d="M679,325l-17,34"/>
	</g>
	<g transform="translate(-78,-30) scale(1,1)">
		<path class="st3" d="M617,325l20,34"/>
	</g>
	<g transform="translate(-78,-30) scale(1,1)">
		<path class="st5" d="M415,148l-221,49"/>
	</g>
	<g transform="translate(-78,-30) scale(1,1)">
		<path class="st3" d="M203,190.7l-9,6.3l10.8,1.9"/>
	</g>
	<g transform="translate(-78,-30) scale(1,1)">
		<path class="st5" d="M415,157l-88,50"/>
	</g>
	<g transform="translate(-78,-30) scale(1,1)">
		<path class="st3" d="M333.8,198.3L327,207l10.9-1.4"/>
	</g>
	<g transform="translate(-78,-30) scale(1,1)">
		<path class="st5" d="M469,157l98,52"/>
	</g>
	<g transform="translate(-78,-30) scale(1,1)">
		<path class="st3" d="M556,208l11,1l-7-8.5"/>
	</g>
</g>
</svg>
