<?xml version="1.0" encoding="utf-8"?>
<!-- Generator: Adobe Illustrator 25.0.0, SVG Export Plug-In . SVG Version: 6.00 Build 0)  -->
<svg version="1.1" id="Capa_1" xmlns="http://www.w3.org/2000/svg" xmlns:xlink="http://www.w3.org/1999/xlink" x="0px" y="0px"
	 viewBox="0 0 656.9 440" style="enable-background:new 0 0 656.9 440;" xml:space="preserve">
<style type="text/css">
	.st0{fill:#FFFFFF;}
	.st1{opacity:0.2;fill:#C0C0C0;enable-background:new    ;}
	.st2{fill:none;stroke:#000000;stroke-miterlimit:10;}
	.st3{font-family:'Arial-BoldMT';}
	.st4{font-size:13px;}
	.st5{fill:none;stroke:#000000;stroke-miterlimit:10;stroke-dasharray:3;}
</style>
<g>
	<rect class="st0" width="656.9" height="440"/>
	<g transform="translate(-78,-30) scale(1,1)">
		<rect x="127" y="191" class="st1" width="73.3" height="44"/>
	</g>
	<g transform="translate(-78,-30) scale(1,1)">
		<rect x="120" y="184" class="st0" width="73.3" height="44"/>
	</g>
	<g transform="translate(-78,-30) scale(1,1)">
		<path class="st2" d="M120,184h73.3v44H120V184z"/>
	</g>
	<g transform="translate(-78,-30) scale(1,1)">
		<path class="st2" d="M120,209h73.3"/>
	</g>
	<g transform="translate(-78,-30) scale(1,1)">
		<path class="st2" d="M120,219h73.3"/>
	</g>
	<g transform="translate(-78,-30) scale(1,1)">
		<g>
			<path class="st2" d="M0,0"/>
			<text transform="matrix(1 0 0 1 124.5 202)" class="st3 st4">ActServlet</text>
		</g>
	</g>
	<g transform="translate(-78,-30) scale(1,1)">
		<rect x="495" y="215" class="st1" width="75.5" height="44"/>
	</g>
	<g transform="translate(-78,-30) scale(1,1)">
		<rect x="488" y="208" class="st0" width="75.5" height="44"/>
	</g>
	<g transform="translate(-78,-30) scale(1,1)">
		<path class="st2" d="M488,208h75.5v44H488V208z"/>
	</g>
	<g transform="translate(-78,-30) scale(1,1)">
		<path class="st2" d="M488,233h75.5"/>
	</g>
	<g transform="translate(-78,-30) scale(1,1)">
		<path class="st2" d="M488,243h75.5"/>
	</g>
	<g transform="translate(-78,-30) scale(1,1)">
		<g>
			<path class="st2" d="M0,0"/>
			<text transform="matrix(1 0 0 1 492.5 226)" class="st3 st4">ListServlet</text>
		</g>
	</g>
	<g transform="translate(-78,-30) scale(1,1)">
		<rect x="255" y="215" class="st1" width="78.4" height="44"/>
	</g>
	<g transform="translate(-78,-30) scale(1,1)">
		<rect x="248" y="208" class="st0" width="78.4" height="44"/>
	</g>
	<g transform="translate(-78,-30) scale(1,1)">
		<path class="st2" d="M248,208h78.4v44H248V208z"/>
	</g>
	<g transform="translate(-78,-30) scale(1,1)">
		<path class="st2" d="M248,233h78.4"/>
	</g>
	<g transform="translate(-78,-30) scale(1,1)">
		<path class="st2" d="M248,243h78.4"/>
	</g>
	<g transform="translate(-78,-30) scale(1,1)">
		<g>
			<path class="st2" d="M0,0"/>
			<text transform="matrix(1 0 0 1 252.5 226)" class="st3 st4">MapServlet</text>
		</g>
	</g>
	<g transform="translate(-78,-30) scale(1,1)">
		<rect x="615" y="215" class="st1" width="52.4" height="44"/>
	</g>
	<g transform="translate(-78,-30) scale(1,1)">
		<rect x="608" y="208" class="st0" width="52.4" height="44"/>
	</g>
	<g transform="translate(-78,-30) scale(1,1)">
		<path class="st2" d="M608,208h52.4v44H608V208z"/>
	</g>
	<g transform="translate(-78,-30) scale(1,1)">
		<path class="st2" d="M608,233h52.4"/>
	</g>
	<g transform="translate(-78,-30) scale(1,1)">
		<path class="st2" d="M608,243h52.4"/>
	</g>
	<g transform="translate(-78,-30) scale(1,1)">
		<g>
			<path class="st2" d="M0,0"/>
			<text transform="matrix(1 0 0 1 612.5 226)" class="st3 st4">Servlet</text>
		</g>
	</g>
	<g transform="translate(-78,-30) scale(1,1)">
		<rect x="127" y="271" class="st1" width="72" height="44"/>
	</g>
	<g transform="translate(-78,-30) scale(1,1)">
		<rect x="120" y="264" class="st0" width="72" height="44"/>
	</g>
	<g transform="translate(-78,-30) scale(1,1)">
		<path class="st2" d="M120,264h72v44h-72V264z"/>
	</g>
	<g transform="translate(-78,-30) scale(1,1)">
		<path class="st2" d="M120,289h72"/>
	</g>
	<g transform="translate(-78,-30) scale(1,1)">
		<path class="st2" d="M120,299h72"/>
	</g>
	<g transform="translate(-78,-30) scale(1,1)">
		<g>
			<path class="st2" d="M0,0"/>
			<text transform="matrix(1 0 0 1 135.4082 282)" class="st3 st4">act.jsp</text>
		</g>
	</g>
	<g transform="translate(-78,-30) scale(1,1)">
		<rect x="255" y="287" class="st1" width="80.5" height="44"/>
	</g>
	<g transform="translate(-78,-30) scale(1,1)">
		<rect x="248" y="280" class="st0" width="80.5" height="44"/>
	</g>
	<g transform="translate(-78,-30) scale(1,1)">
		<path class="st2" d="M248,280h80.5v44H248V280z"/>
	</g>
	<g transform="translate(-78,-30) scale(1,1)">
		<path class="st2" d="M248,305h80.5"/>
	</g>
	<g transform="translate(-78,-30) scale(1,1)">
		<path class="st2" d="M248,315h80.5"/>
	</g>
	<g transform="translate(-78,-30) scale(1,1)">
		<g>
			<path class="st2" d="M0,0"/>
			<text transform="matrix(1 0 0 1 252.5 298)" class="st3 st4">ecomap.jsp</text>
		</g>
	</g>
	<g transform="translate(-78,-30) scale(1,1)">
		<rect x="583" y="287" class="st1" width="54.5" height="44"/>
	</g>
	<g transform="translate(-78,-30) scale(1,1)">
		<rect x="576" y="280" class="st0" width="54.5" height="44"/>
	</g>
	<g transform="translate(-78,-30) scale(1,1)">
		<path class="st2" d="M576,280h54.5v44H576V280z"/>
	</g>
	<g transform="translate(-78,-30) scale(1,1)">
		<path class="st2" d="M576,305h54.5"/>
	</g>
	<g transform="translate(-78,-30) scale(1,1)">
		<path class="st2" d="M576,315h54.5"/>
	</g>
	<g transform="translate(-78,-30) scale(1,1)">
		<g>
			<path class="st2" d="M0,0"/>
			<text transform="matrix(1 0 0 1 580.5 298)" class="st3 st4">edit.jsp</text>
		</g>
	</g>
	<g transform="translate(-78,-30) scale(1,1)">
		<rect x="663" y="287" class="st1" width="68.9" height="44"/>
	</g>
	<g transform="translate(-78,-30) scale(1,1)">
		<rect x="656" y="280" class="st0" width="68.9" height="44"/>
	</g>
	<g transform="translate(-78,-30) scale(1,1)">
		<path class="st2" d="M656,280h68.9v44H656V280z"/>
	</g>
	<g transform="translate(-78,-30) scale(1,1)">
		<path class="st2" d="M656,305h68.9"/>
	</g>
	<g transform="translate(-78,-30) scale(1,1)">
		<path class="st2" d="M656,315h68.9"/>
	</g>
	<g transform="translate(-78,-30) scale(1,1)">
		<g>
			<path class="st2" d="M0,0"/>
			<text transform="matrix(1 0 0 1 660.5 298)" class="st3 st4">form.html</text>
		</g>
	</g>
	<g transform="translate(-78,-30) scale(1,1)">
		<rect x="407" y="47" class="st1" width="74" height="44"/>
	</g>
	<g transform="translate(-78,-30) scale(1,1)">
		<rect x="400" y="40" class="st0" width="74" height="44"/>
	</g>
	<g transform="translate(-78,-30) scale(1,1)">
		<path class="st2" d="M400,40h74v44h-74V40z"/>
	</g>
	<g transform="translate(-78,-30) scale(1,1)">
		<path class="st2" d="M400,65h74"/>
	</g>
	<g transform="translate(-78,-30) scale(1,1)">
		<path class="st2" d="M400,75h74"/>
	</g>
	<g transform="translate(-78,-30) scale(1,1)">
		<g>
			<path class="st2" d="M0,0"/>
			<text transform="matrix(1 0 0 1 404.5 58)" class="st3 st4">index.html</text>
		</g>
	</g>
	<g transform="translate(-78,-30) scale(1,1)">
		<rect x="175" y="359" class="st1" width="63.9" height="44"/>
	</g>
	<g transform="translate(-78,-30) scale(1,1)">
		<rect x="168" y="352" class="st0" width="63.9" height="44"/>
	</g>
	<g transform="translate(-78,-30) scale(1,1)">
		<path class="st2" d="M168,352h63.9v44H168V352z"/>
	</g>
	<g transform="translate(-78,-30) scale(1,1)">
		<path class="st2" d="M168,377h63.9"/>
	</g>
	<g transform="translate(-78,-30) scale(1,1)">
		<path class="st2" d="M168,387h63.9"/>
	</g>
	<g transform="translate(-78,-30) scale(1,1)">
		<g>
			<path class="st2" d="M0,0"/>
			<text transform="matrix(1 0 0 1 172.5 370)" class="st3 st4">info.html</text>
		</g>
	</g>
	<g transform="translate(-78,-30) scale(1,1)">
		<rect x="511" y="287" class="st1" width="50.2" height="54"/>
	</g>
	<g transform="translate(-78,-30) scale(1,1)">
		<rect x="504" y="280" class="st0" width="50.2" height="54"/>
	</g>
	<g transform="translate(-78,-30) scale(1,1)">
		<path class="st2" d="M504,280h50.2v54H504V280z"/>
	</g>
	<g transform="translate(-78,-30) scale(1,1)">
		<path class="st2" d="M504,305h50.2"/>
	</g>
	<g transform="translate(-78,-30) scale(1,1)">
		<path class="st2" d="M504,315h50.2"/>
	</g>
	<g transform="translate(-78,-30) scale(1,1)">
		<path class="st2" d="M504,325h50.2"/>
	</g>
	<g transform="translate(-78,-30) scale(1,1)">
		<g>
			<path class="st2" d="M0,0"/>
			<text transform="matrix(1 0 0 1 508.5 298)" class="st3 st4">list.jsp</text>
		</g>
	</g>
	<g transform="translate(-78,-30) scale(1,1)">
		<rect x="391" y="287" class="st1" width="50.2" height="44"/>
	</g>
	<g transform="translate(-78,-30) scale(1,1)">
		<rect x="384" y="280" class="st0" width="50.2" height="44"/>
	</g>
	<g transform="translate(-78,-30) scale(1,1)">
		<path class="st2" d="M384,280h50.2v44H384V280z"/>
	</g>
	<g transform="translate(-78,-30) scale(1,1)">
		<path class="st2" d="M384,305h50.2"/>
	</g>
	<g transform="translate(-78,-30) scale(1,1)">
		<path class="st2" d="M384,315h50.2"/>
	</g>
	<g transform="translate(-78,-30) scale(1,1)">
		<g>
			<path class="st2" d="M0,0"/>
			<text transform="matrix(1 0 0 1 388.5 298)" class="st3 st4">map.js</text>
		</g>
	</g>
	<g transform="translate(-78,-30) scale(1,1)">
		<rect x="343" y="359" class="st1" width="150.6" height="44"/>
	</g>
	<g transform="translate(-78,-30) scale(1,1)">
		<rect x="336" y="352" class="st0" width="150.6" height="44"/>
	</g>
	<g transform="translate(-78,-30) scale(1,1)">
		<path class="st2" d="M336,352h150.6v44H336V352z"/>
	</g>
	<g transform="translate(-78,-30) scale(1,1)">
		<path class="st2" d="M336,377h150.6"/>
	</g>
	<g transform="translate(-78,-30) scale(1,1)">
		<path class="st2" d="M336,387h150.6"/>
	</g>
	<g transform="translate(-78,-30) scale(1,1)">
		<g>
			<path class="st2" d="M0,0"/>
			<text transform="matrix(1 0 0 1 340.5 370)" class="st3 st4">cundinamarca.geojson</text>
		</g>
	</g>
	<g transform="translate(-78,-30) scale(1,1)">
		<rect x="616" y="360" class="st0" width="71" height="44"/>
	</g>
	<g transform="translate(-78,-30) scale(1,1)">
		<path class="st2" d="M616,360h71v44h-71V360z"/>
	</g>
	<g transform="translate(-78,-30) scale(1,1)">
		<path class="st2" d="M616,385h71"/>
	</g>
	<g transform="translate(-78,-30) scale(1,1)">
		<path class="st2" d="M616,395h71"/>
	</g>
	<g transform="translate(-78,-30) scale(1,1)">
		<g>
			<path class="st2" d="M0,0"/>
			<text transform="matrix(1 0 0 1 620.7742 376.5)" class="st3 st4">acces.css</text>
		</g>
	</g>
	<g transform="translate(-78,-30) scale(1,1)">
		<rect x="135" y="111" class="st1" width="68.3" height="47"/>
	</g>
	<g transform="translate(-78,-30) scale(1,1)">
		<rect x="128" y="104" class="st0" width="68.3" height="47"/>
	</g>
	<g transform="translate(-78,-30) scale(1,1)">
		<path class="st2" d="M128,104h68.3v47H128V104z"/>
	</g>
	<g transform="translate(-78,-30) scale(1,1)">
		<path class="st2" d="M128,129h68.3"/>
	</g>
	<g transform="translate(-78,-30) scale(1,1)">
		<path class="st2" d="M128,139h68.3"/>
	</g>
	<g transform="translate(-78,-30) scale(1,1)">
		<g>
			<path class="st2" d="M0,0"/>
			<text transform="matrix(1 0 0 1 132.5 122)" class="st3 st4">index.css</text>
		</g>
	</g>
	<g transform="translate(-78,-30) scale(1,1)">
		<rect x="175" y="423" class="st1" width="58.1" height="44"/>
	</g>
	<g transform="translate(-78,-30) scale(1,1)">
		<rect x="168" y="416" class="st0" width="58.1" height="44"/>
	</g>
	<g transform="translate(-78,-30) scale(1,1)">
		<path class="st2" d="M168,416h58.1v44H168V416z"/>
	</g>
	<g transform="translate(-78,-30) scale(1,1)">
		<path class="st2" d="M168,441h58.1"/>
	</g>
	<g transform="translate(-78,-30) scale(1,1)">
		<path class="st2" d="M168,451h58.1"/>
	</g>
	<g transform="translate(-78,-30) scale(1,1)">
		<g>
			<path class="st2" d="M0,0"/>
			<text transform="matrix(1 0 0 1 172.5 434)" class="st3 st4">info.css</text>
		</g>
	</g>
	<g transform="translate(-78,-30) scale(1,1)">
		<rect x="263" y="359" class="st1" width="61" height="44"/>
	</g>
	<g transform="translate(-78,-30) scale(1,1)">
		<rect x="256" y="352" class="st0" width="61" height="44"/>
	</g>
	<g transform="translate(-78,-30) scale(1,1)">
		<path class="st2" d="M256,352h61v44h-61V352z"/>
	</g>
	<g transform="translate(-78,-30) scale(1,1)">
		<path class="st2" d="M256,377h61"/>
	</g>
	<g transform="translate(-78,-30) scale(1,1)">
		<path class="st2" d="M256,387h61"/>
	</g>
	<g transform="translate(-78,-30) scale(1,1)">
		<g>
			<path class="st2" d="M0,0"/>
			<text transform="matrix(1 0 0 1 260.5 368.5)" class="st3 st4">map.css</text>
		</g>
	</g>
	<g transform="translate(-78,-30) scale(1,1)">
		<rect x="496" y="360" class="st0" width="64.6" height="44"/>
	</g>
	<g transform="translate(-78,-30) scale(1,1)">
		<path class="st2" d="M496,360h64.6v44H496V360z"/>
	</g>
	<g transform="translate(-78,-30) scale(1,1)">
		<path class="st2" d="M496,385h64.6"/>
	</g>
	<g transform="translate(-78,-30) scale(1,1)">
		<path class="st2" d="M496,395h64.6"/>
	</g>
	<g transform="translate(-78,-30) scale(1,1)">
		<g>
			<path class="st2" d="M0,0"/>
			<text transform="matrix(1 0 0 1 500.5 378)" class="st3 st4">table.css</text>
		</g>
	</g>
	<g transform="translate(-78,-30) scale(1,1)">
		<path class="st2" d="M287,325v26"/>
	</g>
	<g transform="translate(-78,-30) scale(1,1)">
		<path class="st5" d="M156,229v34"/>
	</g>
	<g transform="translate(-78,-30) scale(1,1)">
		<path class="st2" d="M151.8,252.8L156,263l4.2-10.2"/>
	</g>
	<g transform="translate(-78,-30) scale(1,1)">
		<path class="st5" d="M526,253l2,26"/>
	</g>
	<g transform="translate(-78,-30) scale(1,1)">
		<path class="st2" d="M523,269.2l5,9.8l3.4-10.5"/>
	</g>
	<g transform="translate(-78,-30) scale(1,1)">
		<path class="st5" d="M287,253l1,26"/>
	</g>
	<g transform="translate(-78,-30) scale(1,1)">
		<path class="st2" d="M283.4,269l4.6,10l3.8-10.3"/>
	</g>
	<g transform="translate(-78,-30) scale(1,1)">
		<path class="st2" d="M529,335l-1,24"/>
	</g>
	<g transform="translate(-78,-30) scale(1,1)">
		<path class="st5" d="M464,85l143,122"/>
	</g>
	<g transform="translate(-78,-30) scale(1,1)">
		<path class="st2" d="M596.5,203.6L607,207l-5-9.8"/>
	</g>
	<g transform="translate(-78,-30) scale(1,1)">
		<path class="st2" d="M136,263l-48-55l51-56"/>
	</g>
	<g transform="translate(-78,-30) scale(1,1)">
		<path class="st2" d="M197,119l202-48"/>
	</g>
	<g transform="translate(-78,-30) scale(1,1)">
		<path class="st5" d="M410,351v-26"/>
	</g>
	<g transform="translate(-78,-30) scale(1,1)">
		<path class="st2" d="M414.2,335.2L410,325l-4.2,10.2"/>
	</g>
	<g transform="translate(-78,-30) scale(1,1)">
		<path class="st5" d="M383,302h-53"/>
	</g>
	<g transform="translate(-78,-30) scale(1,1)">
		<path class="st2" d="M340.2,297.8L330,302l10.2,4.2"/>
	</g>
	<g transform="translate(-78,-30) scale(1,1)">
		<path class="st5" d="M227,351l33-26"/>
	</g>
	<g transform="translate(-78,-30) scale(1,1)">
		<path class="st2" d="M254.6,334.6l5.4-9.6l-10.6,3"/>
	</g>
	<g transform="translate(-78,-30) scale(1,1)">
		<path class="st2" d="M198,397v18"/>
	</g>
	<g transform="translate(-78,-30) scale(1,1)">
		<path class="st2" d="M679,325l-17,34"/>
	</g>
	<g transform="translate(-78,-30) scale(1,1)">
		<path class="st2" d="M617,325l20,34"/>
	</g>
	<g transform="translate(-78,-30) scale(1,1)">
		<path class="st5" d="M607,230h-43"/>
	</g>
	<g transform="translate(-78,-30) scale(1,1)">
		<path class="st2" d="M574.2,225.8L564,230l10.2,4.2"/>
	</g>
	<g transform="translate(-78,-30) scale(1,1)">
		<path class="st5" d="M399,81L194,186"/>
	</g>
	<g transform="translate(-78,-30) scale(1,1)">
		<path class="st2" d="M201.1,177.6L194,186l11-0.9"/>
	</g>
	<g transform="translate(-78,-30) scale(1,1)">
		<path class="st5" d="M416,85L308,207"/>
	</g>
	<g transform="translate(-78,-30) scale(1,1)">
		<path class="st2" d="M311.6,196.6L308,207l9.9-4.8"/>
	</g>
	<g transform="translate(-78,-30) scale(1,1)">
		<path class="st5" d="M624,253l-11,26"/>
	</g>
	<g transform="translate(-78,-30) scale(1,1)">
		<path class="st2" d="M613.1,268l-0.1,11l7.8-7.7"/>
	</g>
	<g transform="translate(-78,-30) scale(1,1)">
		<path class="st5" d="M652,253l20,26"/>
	</g>
	<g transform="translate(-78,-30) scale(1,1)">
		<path class="st2" d="M662.5,273.5l9.5,5.5l-2.9-10.6"/>
	</g>
</g>
</svg>
